<?xml version="1.0" standalone="no"?>
<!DOCTYPE svg PUBLIC "-//W3C//DTD SVG 1.1//EN" "http://www.w3.org/Graphics/SVG/1.1/DTD/svg11.dtd" >
<svg xmlns="http://www.w3.org/2000/svg" xmlns:xlink="http://www.w3.org/1999/xlink" version="1.1">
<metadata>
Created by FontForge 20161003 at Tue Oct 24 22:38:33 2017
 By www-data
Copyright (c) 2014 by Andriy Konstantynov. All rights reserved.
</metadata>
<defs>
<font id="AngleciaProTitleItalic" horiz-adv-x="584" >
  <font-face 
    font-family="AngleciaProTitleItalic"
    font-weight="400"
    font-style="italic"
    font-stretch="normal"
    units-per-em="1000"
    panose-1="2 5 0 3 7 0 0 0 0 0"
    ascent="750"
    descent="-250"
    x-height="484"
    cap-height="700"
    bbox="-110.5 -250 1294 992"
    underline-thickness="50"
    underline-position="-150"
    slope="-12"
    unicode-range="U+0020-FB04"
  />
<missing-glyph horiz-adv-x="208" 
 />
    <glyph glyph-name="ff" unicode="ff" horiz-adv-x="661" 
d="M-10 -167l-7 -34q61 0 104 209l92 443h-59l4 19l61 16l12 55q17 83 94 131t183 48q58 0 98 -23q55 42 133 42q58 0 92.5 -26t25.5 -69q-5 -24 -20.5 -37.5t-35.5 -13.5q-21 0 -32.5 15t-7.5 38l12 56q-14 12 -38 12q-35 0 -62 -35.5t-39 -96.5l-21 -102h161l-7 -29h-161
l-92 -451q-21 -97 -102.5 -154t-193.5 -57q-64 0 -103 24q-52 -43 -115 -43q-45 0 -63 18t-12 45q4 24 21.5 38t38.5 14t32 -14.5t7 -37.5zM474 451h-197l-91 -443q-23 -110 -78 -171q35 -24 85 -24q71 0 120.5 50.5t67.5 136.5zM481 486l20 95q11 56 44 92q-29 22 -79 22
q-66 0 -111 -41t-59 -112l-13 -62h173z" />
    <glyph glyph-name="fi" unicode="fi" horiz-adv-x="566" 
d="M-10 -167l-7 -34q61 0 104 209l92 443h-59l4 19l61 16l20 92q15 74 84.5 117.5t173.5 43.5q76 0 117.5 -29.5t31.5 -78.5q-6 -29 -25.5 -44t-43.5 -15q-25 0 -39.5 18t-7.5 45l12 63q-21 16 -58 16q-57 0 -95 -36t-51 -99l-21 -99h141l142 7l11 -14l-81 -393
q-9 -42 17 -42q23 0 53 27l8 -10q-30 -25 -67.5 -42.5t-66.5 -17.5q-61 0 -46 70l76 371l-43 15h-150l-91 -443q-23 -112 -81.5 -175t-138.5 -63q-45 0 -63 18t-12 45q4 24 21.5 38t38.5 14t32 -14.5t7 -37.5z" />
    <glyph glyph-name="fl" unicode="fl" horiz-adv-x="563" 
d="M-10 -167l-7 -34q61 0 104 209l92 443h-59l4 19l61 16l20 95q15 73 81.5 115.5t172.5 42.5q44 0 81 -8l82 11l11 -14l-134 -648q-9 -42 18 -42q23 0 52 27l8 -10q-29 -25 -67 -42.5t-67 -17.5q-60 0 -45 70l128 620q-25 28 -74 28q-58 0 -96.5 -34.5t-51.5 -96.5
l-21 -102h142l-6 -29h-142l-91 -443q-23 -112 -81.5 -175t-138.5 -63q-45 0 -63 18t-12 45q4 24 21.5 38t38.5 14t32 -14.5t7 -37.5z" />
    <glyph glyph-name="ffi" unicode="ffi" horiz-adv-x="861" 
d="M-10 -167l-7 -34q61 0 104 209l92 443h-59l4 19l61 16l12 55q17 82 93.5 130.5t180.5 48.5q70 0 111 -28q67 47 176 47q76 0 117.5 -29.5t31.5 -78.5q-6 -29 -25 -44t-43 -15q-25 0 -40 18t-9 45l13 63q-21 16 -58 16q-56 0 -94.5 -36t-51.5 -99l-20 -99h140l143 7
l10 -14l-81 -393q-9 -42 18 -42q21 0 53 27l8 -10q-30 -25 -68 -42.5t-67 -17.5q-60 0 -45 70l76 371l-44 15h-150l-92 -451q-21 -97 -102.5 -154t-193.5 -57q-64 0 -103 24q-52 -43 -115 -43q-45 0 -63 18t-12 45q4 24 21.5 38t38.5 14t32 -14.5t7 -37.5zM474 451h-197
l-91 -443q-23 -110 -78 -171q35 -24 85 -24q71 0 120.5 50.5t67.5 136.5zM482 486l19 92q10 52 51 91q-33 26 -86 26q-66 0 -111 -41.5t-59 -111.5l-13 -62h173z" />
    <glyph glyph-name="ffl" unicode="ffl" horiz-adv-x="865" 
d="M-10 -167l-7 -34q61 0 104 209l92 443h-59l4 19l61 16l12 55q17 82 93 130.5t180 48.5q69 0 109 -28q67 47 176 47q44 0 81 -8l82 11l11 -14l-134 -648q-9 -42 17 -42q23 0 53 27l8 -10q-30 -25 -67.5 -42.5t-66.5 -17.5q-61 0 -45 70l127 620q-25 28 -74 28
q-58 0 -96.5 -34.5t-50.5 -96.5l-21 -102h142l-7 -29h-142l-92 -451q-21 -97 -102.5 -154t-193.5 -57q-64 0 -103 24q-52 -43 -115 -43q-45 0 -63 18t-12 45q4 24 21.5 38t38.5 14t32 -14.5t7 -37.5zM474 451h-197l-91 -443q-23 -110 -78 -171q35 -24 85 -24
q71 0 120.5 50.5t67.5 136.5zM481 486l20 95q11 54 49 89q-34 25 -84 25q-66 0 -110.5 -41.5t-59.5 -111.5l-13 -62h173z" />
    <glyph glyph-name="f_f_j" unicode="ffj" horiz-adv-x="855" 
d="M-10 -167l-7 -34q61 0 104 209l92 443h-59l4 19l61 16l12 55q17 82 93.5 130.5t180.5 48.5q70 0 111 -28q66 47 172 47q74 0 116 -29.5t32 -78.5q-6 -29 -26 -44t-44 -15q-25 0 -39.5 18t-8.5 45l13 63q-21 16 -55 16q-56 0 -93 -36t-50 -99l-20 -99h135l142 7l10 -14
l-91 -443q-20 -97 -102 -154t-193 -57q-64 0 -105 25q-79 -55 -191 -55q-64 0 -103 24q-52 -43 -115 -43q-45 0 -63 18t-12 45q4 24 21.5 38t38.5 14t32 -14.5t7 -37.5zM474 451h-197l-91 -443q-23 -110 -78 -171q35 -24 85 -24q71 0 120.5 50.5t67.5 136.5zM760 436l-44 15
h-144l-92 -451q-18 -81 -77 -134q34 -23 85 -23q72 0 121 50t67 137zM482 486l19 92q10 52 51 91q-33 26 -85 26q-66 0 -111 -41.5t-60 -111.5l-13 -62h173z" />
    <glyph glyph-name="f_j" unicode="fj" horiz-adv-x="565" 
d="M424 480l142 7l11 -14l-97 -473q-21 -97 -102.5 -154t-193.5 -57q-64 0 -103 24q-52 -43 -115 -43q-45 0 -63 18t-12 45q4 24 21.5 38t38.5 14t32 -14.5t7 -37.5l-7 -34q61 0 104 209l92 443h-59l4 19l61 16l20 92q15 74 84.5 117.5t173.5 43.5q76 0 117.5 -29.5
t31.5 -78.5q-6 -29 -25.5 -44t-43.5 -15q-25 0 -39.5 18t-7.5 45l12 63q-21 16 -58 16q-57 0 -95 -36t-51 -99l-21 -99h141zM470 436l-43 15h-150l-91 -443q-23 -110 -78 -171q35 -24 85 -24q71 0 120.5 50.5t67.5 136.5z" />
    <glyph glyph-name=".notdef" horiz-adv-x="208" 
 />
    <glyph glyph-name=".null" horiz-adv-x="0" 
 />
    <glyph glyph-name="nonmarkingreturn" horiz-adv-x="333" 
 />
    <glyph glyph-name="space" unicode=" " horiz-adv-x="208" 
 />
    <glyph glyph-name="exclam" unicode="!" horiz-adv-x="202" 
d="M156 193h-31q16 111 26.5 195.5t14.5 127.5t5.5 70t1.5 39t1 18q5 26 25.5 43.5t46.5 17.5t39 -17.5t8 -43.5q-1 -3 -13 -33.5t-44.5 -136t-79.5 -280.5zM54 54q5 25 25 41.5t44 16.5q25 0 38 -16.5t8 -41.5t-24.5 -41.5t-44.5 -16.5t-38 16.5t-8 41.5z" />
    <glyph glyph-name="quotedbl" unicode="&#x22;" horiz-adv-x="283" 
d="M197 500h-24q8 68 6.5 113.5t-0.5 50.5q4 17 17.5 28.5t30.5 11.5t25.5 -11.5t4.5 -28.5q-1 -9 -9.5 -26.5t-23 -54t-27.5 -83.5zM318 500h-24q6 47 6.5 85.5t-1.5 49.5t1 29q4 17 17.5 28.5t30.5 11.5t25.5 -11.5t4.5 -28.5q-2 -9 -9.5 -26.5t-22 -54t-28.5 -83.5z" />
    <glyph glyph-name="numbersign" unicode="#" horiz-adv-x="578" 
d="M176 450l7 34h115l107 216h38l-107 -216h181l107 216h37l-107 -216h83l-7 -34h-94l-98 -200h108l-8 -35h-118l-106 -215h-37l106 215h-181l-106 -215h-38l106 215h-80l7 35h90l100 200h-105zM318 450l-99 -200h181l100 200h-182z" />
    <glyph glyph-name="dollar" unicode="$" horiz-adv-x="572" 
d="M242 -50l10 45q-83 5 -141 43l-39 -27l-9 11l22 142h26q1 -75 43 -108t104 -37l71 294l-33 11t-31 11t-30 13t-25.5 16t-22 19.5t-16 23.5t-11 29t-2.5 35t5 42q18 86 83 139.5t177 53.5l11 44h31l-11 -45q69 -6 126 -43l37 25l9 -11l-21 -141h-27q0 75 -38 108t-92 36
l-66 -272q23 -8 36 -13t34 -13.5t32.5 -15t27.5 -17.5t24.5 -21.5t17.5 -25t12 -30.5t3 -36t-5 -43q-18 -89 -89 -143t-193 -55l-10 -44h-30zM472 168q12 56 -14.5 83t-100.5 53l-69 -285q72 4 121 42t63 107zM255 541q-10 -52 13.5 -77t85.5 -47l63 262q-63 -5 -106.5 -42
t-55.5 -96z" />
    <glyph glyph-name="percent" unicode="%" horiz-adv-x="724" 
d="M153 525q17 83 67 132t114 49t93 -49t12 -132t-66.5 -132t-113.5 -49t-93.5 49t-12.5 132zM221 525q-15 -77 -2.5 -116t46.5 -39t63 40t44 115q15 76 3 115.5t-46 39.5t-63.5 -40.5t-44.5 -114.5zM182 0h-43l548 700h42zM429 175q17 83 66.5 132t112.5 49q65 0 94.5 -49
t12.5 -132t-67 -132t-114 -49t-93.5 49t-11.5 132zM496 175q-15 -77 -2.5 -116t45.5 -39q34 0 63.5 40.5t44.5 114.5q15 76 2.5 115.5t-46.5 39.5q-33 0 -62.5 -40.5t-44.5 -114.5z" />
    <glyph glyph-name="ampersand" unicode="&#x26;" horiz-adv-x="698" 
d="M489 71q-87 -76 -205 -76q-111 0 -163.5 55.5t-34.5 144.5q9 43 29.5 76t53.5 56.5t61.5 38t72.5 31.5q-49 92 -33 167q13 64 62.5 102.5t130.5 38.5q74 0 104 -34.5t18 -90.5q-12 -58 -55.5 -96t-115.5 -71l41 -68q73 58 110 58q23 0 57.5 -23t58.5 -23q43 0 96 45
l13 -16q-88 -72 -132 -83q-23 -89 -82 -164q36 -65 51 -83t29 -18q20 0 53 27l8 -10q-70 -59 -132 -59q-31 0 -51.5 15t-44.5 60zM311 28q97 0 163 69l-151 260q-55 -28 -90.5 -65.5t-48.5 -100.5q-16 -80 17 -121.5t110 -41.5zM369 587q-14 -66 31 -148q65 31 102 62.5
t47 78.5q10 45 -12.5 71.5t-65.5 26.5q-39 0 -66 -23.5t-36 -67.5zM560 166q47 69 63 137q-11 3 -42 23.5t-56 20.5q-24 0 -57 -26z" />
    <glyph glyph-name="quotesingle" unicode="'" horiz-adv-x="164" 
d="M197 500h-24q8 68 6.5 113.5t-0.5 50.5q4 17 17.5 28.5t30.5 11.5t25.5 -11.5t4.5 -28.5q-1 -9 -9.5 -26.5t-23 -54t-27.5 -83.5z" />
    <glyph glyph-name="parenleft" unicode="(" horiz-adv-x="269" 
d="M103 275q62 303 271 481l12 -18q-133 -169 -193 -463q-62 -294 2 -464l-19 -17q-137 177 -73 481z" />
    <glyph glyph-name="parenright" unicode=")" horiz-adv-x="269" 
d="M278 275q-62 -304 -270 -481l-14 17q135 170 195 464q61 295 -4 463l22 18q133 -178 71 -481z" />
    <glyph glyph-name="asterisk" unicode="*" horiz-adv-x="428" 
d="M315 495q-29 -36 -49 -65t-29 -44.5t-14 -20.5q-11 -11 -24 -13.5t-22 6.5q-9 7 -8 20.5t11 23.5q1 1 38.5 30.5t82.5 74.5q-38 10 -68.5 14.5t-46 6t-21.5 3.5q-11 5 -15 16t3 25q7 13 20 18.5t24 1.5q3 -1 35 -22.5t79 -42.5q6 42 7 74.5t1 48t2 22.5q2 14 13 23t24 9
q14 0 21 -9.5t4 -22.5q-1 -7 -8 -23t-19 -48t-24 -74q42 16 73 31t46.5 23.5t22.5 10.5q14 4 24 -2t11 -19q2 -12 -7 -23.5t-23 -15.5q-7 -2 -22.5 -3.5t-48 -6.5t-74.5 -15q20 -33 38 -55.5t28 -33t13 -16.5q13 -27 -15 -45q-29 -17 -43 8q-3 6 -6 21t-11.5 44t-22.5 65z
" />
    <glyph glyph-name="plus" unicode="+" horiz-adv-x="442" 
d="M96 283l7 34h166l35 169h34l-35 -169h166l-8 -34h-166l-35 -171h-34l36 171h-166z" />
    <glyph glyph-name="comma" unicode="," horiz-adv-x="191" 
d="M40 -112l-12 14q23 20 44 47t23 41q1 7 0 10q-24 0 -37.5 16t-8.5 40q5 25 24.5 40.5t44.5 15.5q24 0 37.5 -16.5t6.5 -49.5q-14 -67 -122 -158z" />
    <glyph glyph-name="hyphen" unicode="-" horiz-adv-x="300" 
d="M91 258l7 34h222l-7 -34h-222z" />
    <glyph glyph-name="period" unicode="." horiz-adv-x="191" 
d="M49 54q4 25 24 41.5t44 16.5q25 0 38 -16.5t8 -41.5t-25 -41.5t-44 -16.5q-25 0 -37.5 16.5t-7.5 41.5z" />
    <glyph glyph-name="slash" unicode="/" horiz-adv-x="340" 
d="M17 -100h-37l476 850h37z" />
    <glyph glyph-name="zero" unicode="0" horiz-adv-x="633" 
d="M120 350q34 163 128 259.5t212 96.5q120 0 174.5 -97t20.5 -259q-33 -163 -127.5 -259.5t-213.5 -96.5t-173 96.5t-21 259.5zM225 349q-31 -162 -5 -245.5t99 -83.5q74 0 136.5 85.5t94.5 243.5q31 163 5 247t-99 84q-74 0 -136.5 -86.5t-94.5 -244.5z" />
    <glyph glyph-name="one" unicode="1" horiz-adv-x="360" 
d="M52 0l4 19l85 21l127 610h-94l4 23l186 34l11 -14l-135 -656l78 -18l-4 -19h-262z" />
    <glyph glyph-name="two" unicode="2" horiz-adv-x="521" 
d="M36 0l7 40q61 47 90.5 70.5t81 66t79 69.5t64.5 67t57.5 72.5t39 72t26.5 78.5q30 142 -101 142q-57 0 -107 -38l-16 -80q-4 -24 -22.5 -39.5t-41.5 -15.5q-22 0 -33.5 14.5t-5.5 43.5q12 59 78.5 100t161.5 41q103 0 151.5 -46t30.5 -136q-9 -43 -30.5 -84.5t-59 -83
t-70.5 -73.5t-91.5 -75.5t-93 -67.5t-100.5 -69h308l49 88h25l-34 -157h-443z" />
    <glyph glyph-name="three" unicode="3" horiz-adv-x="572" 
d="M301 645l-15 -71q-4 -24 -22 -39.5t-41 -15.5q-21 0 -33.5 14.5t-6.5 42.5q12 59 84 94t157 35q99 0 147.5 -47.5t32.5 -128.5q-13 -64 -59.5 -106.5t-116.5 -58.5q76 -16 111.5 -62.5t21.5 -117.5q-18 -87 -96 -138.5t-187 -51.5q-89 0 -147.5 34.5t-46.5 95.5
q6 28 23 42t40 14t34.5 -15t7.5 -39l-16 -74q35 -29 96 -29q71 0 123 42.5t68 120.5q17 82 -24 123t-126 41h-46l6 27h44q159 0 189 150q15 72 -12 111t-86 39t-104 -32z" />
    <glyph glyph-name="four" unicode="4" horiz-adv-x="572" 
d="M297 0l4 19l62 21l22 110h-307l5 20q118 154 187 274.5t96 255.5h99q-29 -139 -115.5 -261t-229.5 -262h271l47 226l102 84l9 -14l-61 -296h73l-6 -27h-73l-23 -113l56 -18l-4 -19h-214z" />
    <glyph glyph-name="five" unicode="5" horiz-adv-x="531" 
d="M176 117l-15 -69q33 -27 83 -27q70 0 119 49t67 137q19 93 -14.5 144t-115.5 51q-67 0 -122 -34l-14 17l92 314q203 0 326 14l-17 -83h-286l-88 -233q66 36 149 36q113 0 163 -59t29 -160q-21 -102 -97.5 -160.5t-189.5 -58.5q-83 0 -134.5 32t-40.5 88q6 28 24 42.5
t40 14.5q23 0 34.5 -15t7.5 -40z" />
    <glyph glyph-name="six" unicode="6" horiz-adv-x="563" 
d="M223 371q67 54 159 54q100 0 149.5 -57.5t29.5 -155.5q-21 -100 -96 -158.5t-176 -58.5q-120 0 -166 83t-16 228q20 97 64.5 171.5t107.5 121.5t138.5 73.5t164.5 33.5l13 -17q-300 -49 -372 -318zM211 317q-30 -142 -10.5 -219t88.5 -77q60 0 106 50t65 138
q19 89 -11.5 137t-94.5 48q-42 0 -81 -21t-62 -56z" />
    <glyph glyph-name="seven" unicode="7" horiz-adv-x="540" 
d="M292 0h-99q18 86 62 173t89 147.5t115 153t111 154.5h-332l-53 -87h-25l38 159h437l-4 -22q-30 -54 -123.5 -207t-143.5 -258.5t-72 -212.5z" />
    <glyph glyph-name="eight" unicode="8" horiz-adv-x="570" 
d="M603 539q-24 -110 -153 -164q66 -30 96 -71.5t15 -114.5q-18 -89 -89 -142t-197 -53q-116 0 -163 46.5t-30 126.5q15 71 63 112.5t122 70.5q-54 25 -77.5 63t-9.5 105q17 84 80 136t175 52q101 0 142 -46t26 -121zM338 321l-42 15q-51 -29 -81.5 -66t-42.5 -96
q-17 -78 13.5 -116t100.5 -38q73 0 122 38t64 108q4 17 4.5 31.5t-3 26.5t-8.5 21.5t-15 18.5t-20 15.5t-26 14t-30 13.5t-36 14zM386 402l29 -12q84 55 103 146q14 70 -10.5 107t-83.5 37q-60 0 -102.5 -36.5t-54.5 -96.5q-13 -60 15 -88.5t104 -56.5z" />
    <glyph glyph-name="nine" unicode="9" horiz-adv-x="562" 
d="M480 329q-66 -54 -158 -54q-100 0 -148.5 56.5t-28.5 153.5q20 101 97 160.5t180 59.5q117 0 161.5 -80t14.5 -226q-78 -377 -485 -404l-13 16q161 22 251 102.5t129 215.5zM493 383q61 296 -72 296q-62 0 -110.5 -52.5t-66.5 -140.5t12 -134t92 -46q90 0 145 77z" />
    <glyph glyph-name="colon" unicode=":" horiz-adv-x="191" 
d="M49 54q4 25 24 41.5t44 16.5q25 0 38 -16.5t8 -41.5t-25 -41.5t-44 -16.5q-25 0 -37.5 16.5t-7.5 41.5zM126 425q4 25 24 42t44 17q25 0 38 -17t8 -42t-25 -41.5t-44 -16.5q-25 0 -37.5 16.5t-7.5 41.5z" />
    <glyph glyph-name="semicolon" unicode=";" horiz-adv-x="191" 
d="M40 -112l-12 14q23 20 44 47t23 41q1 7 0 10q-24 0 -37.5 16t-8.5 40q5 25 24.5 40.5t44.5 15.5q24 0 37.5 -16.5t6.5 -49.5q-14 -67 -122 -158zM126 425q4 25 24 42t44 17q25 0 38 -17t8 -42t-25 -41.5t-44 -16.5q-25 0 -37.5 16.5t-7.5 41.5z" />
    <glyph glyph-name="less" unicode="&#x3c;" horiz-adv-x="441" 
d="M470 446l8 -32l-320 -139l263 -139l-21 -31l-299 157l6 26z" />
    <glyph glyph-name="equal" unicode="=" horiz-adv-x="442" 
d="M112 358l7 35h365l-7 -35h-365zM81 207l7 35h365l-7 -35h-365z" />
    <glyph glyph-name="greater" unicode="&#x3e;" horiz-adv-x="441" 
d="M132 414l22 32l298 -158l-5 -26l-363 -157l-9 31l320 139z" />
    <glyph glyph-name="question" unicode="?" horiz-adv-x="478" 
d="M287 193h-31q5 58 24.5 103t45.5 73.5t52 53.5t49 58.5t31 73.5q12 57 -12.5 90t-79.5 33q-52 0 -92 -31l-16 -77q-4 -24 -22.5 -39.5t-41.5 -15.5q-22 0 -33.5 14.5t-5.5 43.5q11 57 73 94t148 37q96 0 143.5 -44t31.5 -121q-9 -43 -36.5 -78.5t-61 -61.5t-67 -52.5
t-61.5 -66t-38 -87.5zM187 54q5 25 25 41.5t45 16.5q24 0 37 -16.5t8 -41.5q-4 -25 -24 -41.5t-45 -16.5t-38 16.5t-8 41.5z" />
    <glyph glyph-name="at" unicode="@" horiz-adv-x="851" 
d="M720 -45l11 -14q-59 -49 -143.5 -76.5t-180.5 -27.5q-180 0 -263 95.5t-49 263.5q34 165 152.5 259t302.5 94q178 0 249.5 -88.5t40.5 -235.5q-22 -108 -82 -169t-148 -61q-82 0 -82 51l-2 2q-61 -53 -141 -53q-76 0 -106 54.5t-11 143.5q21 103 87 157.5t167 54.5
q55 0 106 -20l45 21l11 -12l-69 -332q-7 -38 24 -38q39 0 72.5 52t50.5 137q64 309 -217 309q-147 0 -243 -84.5t-127 -238.5q-32 -154 32 -242t233 -88q177 0 280 86zM530 72l60 287q-34 23 -75 23q-117 0 -155 -180q-17 -81 2 -127t70 -46q55 0 98 43z" />
    <glyph glyph-name="A" unicode="A" horiz-adv-x="745" 
d="M539 700l140 -662l58 -19l-3 -19h-230l4 19l66 19l-39 194h-302l-121 -194l79 -19l-4 -19h-177l3 19l68 19l418 662h40zM461 595l-210 -335h277z" />
    <glyph glyph-name="B" unicode="B" horiz-adv-x="645" 
d="M173 700h304q105 0 159.5 -47t37.5 -128q-13 -63 -61 -106t-120 -60q78 -15 115.5 -61t23.5 -115q-18 -84 -100 -133.5t-199 -49.5h-304l2 16l67 16l131 635l-60 17zM199 27h123q77 0 132.5 41t71.5 118t-22 118t-116 41h-123zM455 671h-123l-61 -299h123
q64 0 111.5 38.5t62.5 111.5q15 72 -16.5 110.5t-96.5 38.5z" />
    <glyph glyph-name="C" unicode="C" horiz-adv-x="695" 
d="M647 113l14 -16q-121 -103 -277 -103q-153 0 -224.5 95.5t-37.5 259.5t145 260.5t262 96.5q119 0 187 -56l42 23l9 -12l-21 -137h-25q-3 46 -21.5 78t-47.5 47t-55 20.5t-55 5.5q-116 0 -197.5 -83t-114.5 -240q-30 -148 17.5 -233.5t176.5 -85.5t223 80z" />
    <glyph glyph-name="D" unicode="D" horiz-adv-x="716" 
d="M173 700h303q150 0 222 -94t39 -256q-33 -163 -143.5 -256.5t-260.5 -93.5h-304l2 16l67 16l131 635l-60 17zM470 671h-138l-133 -644h138q102 0 181 83t111 239q31 156 -13 239t-146 83z" />
    <glyph glyph-name="E" unicode="E" horiz-adv-x="612" 
d="M199 27h300l61 99h25l-31 -126h-525l2 16l67 16l131 635l-60 17l4 16h516l-21 -126h-25l-21 97h-290l-61 -297h231l34 75h23l-35 -177h-24l-4 74h-231z" />
    <glyph glyph-name="F" unicode="F" horiz-adv-x="591" 
d="M479 345h-214l-63 -305l88 -21l-3 -19h-258l3 19l68 22l129 626l-60 17l4 16h504l-21 -126h-25l-21 97h-278l-62 -298h215l34 74h24l-36 -176h-24z" />
    <glyph glyph-name="G" unicode="G" horiz-adv-x="737" 
d="M707 297l-54 -261l-15 -13l-45 25q-94 -54 -208 -54q-155 0 -226 95.5t-37 259.5t145 260.5t263 96.5q119 0 187 -56l43 23l9 -12l-21 -137h-26q-2 46 -21 78.5t-48 47t-55 20t-55 5.5q-117 0 -198.5 -83.5t-114.5 -241.5q-30 -147 14.5 -234t163.5 -87q86 0 151 44
l47 225l-60 19l4 19h227l-4 -19z" />
    <glyph glyph-name="H" unicode="H" horiz-adv-x="747" 
d="M32 19l68 22l128 621l-59 19l4 19h229l-4 -19l-68 -20l-60 -292h358l60 293l-59 19l4 19h229l-4 -19l-68 -20l-128 -623l60 -19l-4 -19h-229l4 19l67 22l62 300h-358l-62 -303l59 -19l-3 -19h-229z" />
    <glyph glyph-name="I" unicode="I" horiz-adv-x="286" 
d="M330 661l-129 -623l58 -19l-3 -19h-227l4 19l68 22l128 621l-60 19l4 19h227l-4 -19z" />
    <glyph glyph-name="J" unicode="J" horiz-adv-x="286" 
d="M95 8l134 654l-59 19l4 19h225l-3 -19l-67 -20l-134 -653q-31 -151 -201 -239l-14 17q85 84 115 222z" />
    <glyph glyph-name="K" unicode="K" horiz-adv-x="675" 
d="M327 661l-71 -342l389 343l-77 19l3 19h187l-3 -19l-70 -19l-255 -227l174 -399l58 -17l-4 -19h-152l-160 366l-98 -87l-50 -241l60 -19l-3 -19h-230l4 19l68 22l128 621l-59 19l3 19h229l-3 -19z" />
    <glyph glyph-name="L" unicode="L" horiz-adv-x="583" 
d="M199 27h270l61 99h25l-31 -126h-495l2 16l67 16l130 630l-59 19l4 19h229l-4 -19l-68 -20z" />
    <glyph glyph-name="M" unicode="M" horiz-adv-x="910" 
d="M918 661l-82 -623l58 -19l-4 -19h-228l4 19l68 22l74 549l-368 -590h-39l-128 591l-157 -558l59 -20l-3 -13h-153l3 14l67 22l175 626l-60 19l4 19h146l123 -595l371 595h140l-3 -19z" />
    <glyph glyph-name="N" unicode="N" horiz-adv-x="697" 
d="M31 14l68 22l129 626l-59 19l4 19h168l265 -554l109 521l-60 19l3 14h154l-2 -14l-68 -20l-137 -666h-38l-314 646l-126 -613l59 -20l-2 -13h-155z" />
    <glyph glyph-name="O" unicode="O" horiz-adv-x="759" 
d="M122 350q34 163 144.5 259.5t257.5 96.5q148 0 219 -96.5t37 -259.5q-33 -163 -144 -259.5t-259 -96.5q-147 0 -217.5 96.5t-37.5 259.5zM230 349q-32 -158 10.5 -243.5t142.5 -85.5t178.5 85.5t110.5 243.5t-10.5 244.5t-141.5 86.5q-100 0 -179 -86.5t-111 -244.5z" />
    <glyph glyph-name="P" unicode="P" horiz-adv-x="608" 
d="M427 671h-95l-130 -631l91 -21l-4 -19h-260l3 19l68 22l129 626l-60 17l4 16h274q114 0 173 -54.5t39 -147.5q-18 -92 -99.5 -146t-195.5 -54h-72l-11 13l3 14h72q73 0 126.5 44.5t70.5 128.5t-17.5 128.5t-108.5 44.5z" />
    <glyph glyph-name="Q" unicode="Q" horiz-adv-x="759" 
d="M732 -65l8 -11q-64 -53 -145 -53q-34 0 -64 6.5t-60.5 23.5t-47 27.5t-50.5 36.5t-44 33q-125 15 -181.5 109t-25.5 243q34 163 144.5 259.5t257.5 96.5q148 0 219 -96.5t37 -259.5q-29 -138 -114 -229t-202 -115q19 -11 61 -39.5t71.5 -41.5t62.5 -13q45 0 73 23z
M230 349q-32 -158 10.5 -242.5t142.5 -84.5q101 0 179 84.5t110 242.5t-10.5 244.5t-141.5 86.5q-100 0 -179 -86.5t-111 -244.5z" />
    <glyph glyph-name="R" unicode="R" horiz-adv-x="650" 
d="M665 510q-16 -74 -73.5 -122.5t-139.5 -59.5q32 -16 55 -86l72 -206l57 -17l-3 -19h-149l-111 322h-113l-58 -284l59 -19l-3 -19h-229l3 19l68 22l129 626l-60 17l4 16h293q107 0 162 -51t37 -139zM446 671h-114l-66 -321h114q65 0 113.5 41.5t65.5 119.5
q16 77 -16 118.5t-97 41.5z" />
    <glyph glyph-name="S" unicode="S" horiz-adv-x="575" 
d="M63 22l22 142h26q1 -79 48.5 -112t113.5 -33q77 0 130.5 38.5t68.5 110.5q4 16 4.5 29.5t-3.5 25t-8.5 20t-15 17t-20.5 14.5t-27 13t-31.5 12t-37.5 13q-23 7 -33.5 10.5t-31.5 11.5t-31 13.5t-25.5 15.5t-23 19.5t-16.5 23.5t-11.5 29.5t-2.5 35t5 42.5
q18 86 83.5 139.5t177.5 53.5q90 0 156 -44l37 25l9 -11l-21 -141h-27q0 42 -13 72t-35.5 45t-45.5 21.5t-49 6.5q-70 0 -118.5 -37.5t-61.5 -101.5q-3 -15 -3.5 -28t3.5 -23.5t8 -18.5t14.5 -16t19 -13t24.5 -12t27.5 -11t32.5 -11q23 -8 36 -13t34 -13.5t32.5 -15
t27.5 -17.5t24.5 -21.5t17.5 -25t12 -30.5t3.5 -36.5t-4.5 -43.5q-18 -90 -90 -144t-196 -54q-101 0 -167 44l-39 -27z" />
    <glyph glyph-name="T" unicode="T" horiz-adv-x="658" 
d="M695 671h-177l-131 -633l60 -19l-3 -19h-230l4 19l68 22l129 630h-176l-62 -99h-25l32 128h578l-20 -126h-26z" />
    <glyph glyph-name="U" unicode="U" horiz-adv-x="720" 
d="M765 666l-84 -408q-25 -121 -113.5 -192t-208.5 -71t-179.5 71t-34.5 192l83 404l-59 19l4 19h229l-4 -19l-68 -20l-83 -403q-22 -104 22.5 -161.5t135.5 -57.5t160 58t90 161l84 409l-59 19l3 14h153l-3 -14z" />
    <glyph glyph-name="V" unicode="V" horiz-adv-x="745" 
d="M352 0l-144 662l-58 19l3 19h232l-4 -19l-67 -19l116 -557l346 557l-79 19l4 19h177l-4 -19l-67 -19l-416 -662h-39z" />
    <glyph glyph-name="W" unicode="W" horiz-adv-x="1157" 
d="M776 0l-98 491l-295 -491h-39l-136 662l-58 19l3 19h232l-4 -19l-67 -19l106 -557l250 421l-29 136l-58 19l3 19h232l-4 -19l-68 -19l106 -557l337 557l-80 19l4 19h178l-4 -19l-67 -19l-405 -662h-39z" />
    <glyph glyph-name="X" unicode="X" horiz-adv-x="726" 
d="M545 37l-147 288l-273 -288l75 -18l-4 -19h-178l3 19l71 18l295 310l-160 316l-58 18l4 19h233l-3 -19l-67 -18l134 -269l250 269l-75 18l4 19h178l-4 -19l-69 -18l-272 -290l172 -336l57 -18l-3 -19h-233l4 19z" />
    <glyph glyph-name="Y" unicode="Y" horiz-adv-x="697" 
d="M317 663l133 -333l274 333l-75 18l4 19h177l-4 -19l-69 -18l-300 -364l-54 -261l57 -19l-3 -19h-227l4 19l67 22l54 257l-148 365l-57 18l3 19h234l-3 -19z" />
    <glyph glyph-name="Z" unicode="Z" horiz-adv-x="612" 
d="M47 0l3 20l538 651h-330l-62 -99h-25l32 128h503l-5 -22l-538 -651h347l63 104h25l-32 -131h-519z" />
    <glyph glyph-name="bracketleft" unicode="[" horiz-adv-x="287" 
d="M304 712l-181 -874l97 -19l-3 -19h-191l196 950h190l-3 -19z" />
    <glyph glyph-name="backslash" unicode="\" horiz-adv-x="340" 
d="M318 -100h-38l-125 850h37z" />
    <glyph glyph-name="bracketright" unicode="]" horiz-adv-x="287" 
d="M95 -162l181 874l-98 19l4 19h191l-196 -950h-190l4 19z" />
    <glyph glyph-name="asciicircum" unicode="^" horiz-adv-x="432" 
d="M354 704h13l131 -212l-19 -16l-134 152l-198 -152l-11 16z" />
    <glyph glyph-name="underscore" unicode="_" horiz-adv-x="612" 
d="M-16 -85l7 35h609l-7 -35h-609z" />
    <glyph glyph-name="grave" unicode="`" horiz-adv-x="273" 
d="M237 690l110 -140l-18 -15l-161 98z" />
    <glyph glyph-name="a" unicode="a" horiz-adv-x="570" 
d="M571 65l7 -10q-29 -25 -66.5 -42.5t-67.5 -17.5q-61 0 -45 70l6 18l-2 3q-40 -43 -90.5 -66.5t-100.5 -23.5q-83 0 -114.5 64t-9.5 169q26 125 104 190t199 65q69 0 126 -23l54 26l10 -14l-81 -393q-9 -42 18 -42q23 0 53 27zM410 121l64 310q-39 27 -92 27
q-70 0 -119 -56t-71 -162q-20 -94 0 -150t74 -56q34 0 73 22.5t71 64.5z" />
    <glyph glyph-name="b" unicode="b" horiz-adv-x="569" 
d="M125 194l103 497l-56 14l4 18l147 19l11 -14l-51 -248l-20 -84l2 -3q39 42 89.5 65.5t99.5 23.5q83 0 114.5 -63.5t10.5 -167.5q-26 -124 -104 -190t-188 -66q-203 0 -162 199zM293 21q63 0 112.5 57.5t71.5 164.5q19 92 -1 147t-74 55q-76 0 -144 -87l-38 -184
q-17 -80 1.5 -116.5t71.5 -36.5z" />
    <glyph glyph-name="c" unicode="c" horiz-adv-x="520" 
d="M439 364l14 69q-29 25 -78 25q-65 0 -113 -55t-68 -151q-22 -106 11 -163.5t116 -57.5q84 0 146 53l14 -17q-85 -72 -202 -72q-113 0 -163 66t-26 178q23 114 98.5 179.5t188.5 65.5q78 0 127.5 -32t38.5 -87q-6 -27 -23.5 -41.5t-38.5 -14.5q-23 0 -35 15t-7 40z" />
    <glyph glyph-name="d" unicode="d" horiz-adv-x="570" 
d="M571 65l7 -10q-29 -25 -66.5 -42.5t-67.5 -17.5q-61 0 -45 70l7 21l-3 3q-40 -44 -90.5 -69t-100.5 -25q-83 0 -114.5 64t-9.5 170q25 122 100 188.5t185 66.5q64 0 106 -28l48 235l-55 14l4 18l147 19l11 -14l-134 -648q-9 -42 18 -42q23 0 53 27zM410 121l63 308
q-40 29 -91 29q-69 0 -118.5 -56.5t-71.5 -161.5q-20 -94 -0.5 -150t72.5 -56q35 0 74.5 22.5t71.5 64.5z" />
    <glyph glyph-name="e" unicode="e" horiz-adv-x="506" 
d="M190 230q-40 -198 133 -198q86 0 148 52l14 -17q-85 -72 -203 -72q-115 0 -165 67t-27 178q23 114 102.5 179t196.5 65q79 0 118 -32t27 -93q-5 -27 -21 -47t-52 -38.5t-104 -29.5t-167 -14zM375 458q-57 0 -107.5 -52t-73.5 -151q118 4 179.5 28t72.5 80q8 40 -10 67.5
t-61 27.5z" />
    <glyph glyph-name="f" unicode="f" horiz-adv-x="380" 
d="M-2 -201q61 0 104 209l92 443h-74l4 19l76 16l20 95q15 73 68.5 115.5t134.5 42.5q60 0 94.5 -25.5t25.5 -69.5q-12 -51 -56 -51q-21 0 -33 15t-7 38l12 56q-15 12 -38 12q-35 0 -62 -35t-40 -97l-21 -102h161l-6 -29h-161l-91 -443q-23 -112 -81.5 -175t-138.5 -63
q-45 0 -63 18t-12 45q4 24 21.5 38t38.5 14t32 -14.5t7 -37.5z" />
    <glyph glyph-name="g" unicode="g" horiz-adv-x="551" 
d="M530 441h-39q50 -45 34 -119q-15 -72 -79 -114.5t-154 -42.5q-70 0 -114 26q-31 -32 -37 -64q-6 -26 10 -39.5t54 -13.5h151q83 0 115 -34t20 -98q-34 -170 -305 -170q-97 0 -144.5 23.5t-37.5 71.5q12 67 117 123q-60 20 -47 92q12 56 87 120q-55 43 -38 120
q16 73 80.5 116.5t153.5 43.5q12 0 34 -2h210l-4 -19zM182 -18q-12 0 -30 2q-50 -46 -59 -95q-10 -50 20 -70.5t96 -20.5q86 0 141.5 29t66.5 81q7 32 -9 53t-60 21h-166zM220 324q-13 -66 8 -101t68 -35q48 0 84 35.5t49 100.5q14 64 -7.5 99t-68.5 35t-83.5 -35t-49.5 -99
z" />
    <glyph glyph-name="h" unicode="h" horiz-adv-x="588" 
d="M589 65l8 -10q-30 -25 -67.5 -42.5t-66.5 -17.5q-61 0 -46 70l49 240q15 62 1 101t-56 39q-32 0 -76 -25.5t-78 -68.5l-73 -351h-85l-11 13l140 678l-56 14l4 18l147 19l11 -14l-51 -248l-22 -90l2 -3q44 46 100.5 71.5t103.5 25.5q67 0 91.5 -46t8.5 -122l-48 -236
q-10 -42 18 -42q22 0 52 27z" />
    <glyph glyph-name="i" unicode="i" horiz-adv-x="271" 
d="M97 415l-8 10q29 25 67.5 42.5t67.5 17.5q60 0 45 -70l-68 -335q-10 -42 18 -42q20 0 52 27l8 -10q-30 -25 -67.5 -42.5t-66.5 -17.5q-61 0 -46 70l69 335q9 42 -19 42q-20 0 -52 -27zM190 624q6 28 29 47t51 19t43 -19t8 -47q-5 -29 -27 -48t-51 -19t-44 19t-9 48z" />
    <glyph glyph-name="j" unicode="j" horiz-adv-x="269" 
d="M-10 -167l-7 -34q61 0 104 209l81 392q9 42 -18 42q-20 0 -54 -27l-7 10q29 25 67 42.5t68 17.5q60 0 45 -70l-83 -407q-23 -112 -81.5 -175t-138.5 -63q-45 0 -63 18t-12 45q4 24 21.5 38t38.5 14t32 -14.5t7 -37.5zM190 624q6 28 28.5 47t50.5 19t43 -19t8 -47
q-5 -29 -27 -48t-51 -19t-43.5 19t-8.5 48z" />
    <glyph glyph-name="k" unicode="k" horiz-adv-x="524" 
d="M334 728l-150 -728h-85l-11 13l140 678l-56 14l4 18l147 19zM458 421l5 28q-60 -11 -149 -137l124 -239q16 -35 42 -35q21 0 52 27l8 -10q-69 -59 -123 -59q-26 0 -45 14.5t-36 50.5l-89 181q1 1 19 30t32 50.5t40 54t49.5 54t54.5 37.5t59 16q32 0 48.5 -18t11.5 -45
q-5 -23 -23 -37.5t-39 -14.5q-22 0 -34 14.5t-7 37.5z" />
    <glyph glyph-name="l" unicode="l" horiz-adv-x="270" 
d="M272 65l7 -10q-30 -25 -67.5 -42.5t-67.5 -17.5q-60 0 -45 70l128 624l-53 15l4 19l145 19l11 -14l-133 -648q-10 -42 17 -42q22 0 54 27z" />
    <glyph glyph-name="m" unicode="m" horiz-adv-x="843" 
d="M97 415l-8 10q29 25 67.5 42.5t67.5 17.5q60 0 45 -70l-8 -26l2 -3q40 47 91 72.5t92 25.5q84 0 95 -103q42 49 95 76t97 27q61 0 83 -46t6 -122l-49 -236q-9 -42 18 -42q23 0 52 27l9 -10q-30 -25 -68 -42.5t-67 -17.5q-60 0 -45 70l49 240q14 61 2 100.5t-50 39.5
q-26 0 -63 -23t-70 -67q-2 -26 -5 -39l-64 -316h-86l-11 13l60 292q14 62 3 101t-48 39q-27 0 -64.5 -25t-68.5 -70l-72 -350h-85l-11 13l80 387q9 42 -19 42q-20 0 -52 -27z" />
    <glyph glyph-name="n" unicode="n" horiz-adv-x="588" 
d="M97 415l-8 10q29 25 67.5 42.5t67.5 17.5q60 0 45 -70l-8 -25l2 -3q43 47 99.5 72t103.5 25q67 0 92 -46t9 -122l-48 -236q-10 -42 17 -42q23 0 53 27l8 -10q-30 -25 -67.5 -42.5t-67.5 -17.5q-60 0 -45 70l49 240q14 64 -1 102t-57 38q-33 0 -75 -25t-76 -69l-73 -351
h-85l-11 13l80 387q9 42 -19 42q-20 0 -52 -27z" />
    <glyph glyph-name="o" unicode="o" horiz-adv-x="558" 
d="M90 239q23 112 102 178.5t186 66.5q106 0 158 -67t29 -178q-23 -112 -102 -178t-186 -66t-158.5 66t-28.5 178zM191 239q-21 -105 4 -161.5t87 -56.5t111.5 56.5t71.5 161.5t-3.5 162t-88.5 57q-62 0 -111 -57t-71 -162z" />
    <glyph glyph-name="p" unicode="p" horiz-adv-x="569" 
d="M-18 -225l4 19l61 21l121 585q9 42 -19 42q-20 0 -52 -27l-8 10q29 25 67.5 42.5t67.5 17.5q60 0 45 -70l-6 -19l2 -3q39 43 89.5 67t100.5 24q83 0 114 -64.5t9 -170.5q-25 -122 -99 -188t-183 -66q-68 0 -107 27l-44 -208l86 -20l-4 -19h-245zM258 358l-64 -309
q38 -29 91 -29q69 0 119.5 56.5t71.5 162.5q20 95 0 150.5t-74 55.5q-35 0 -73.5 -22t-70.5 -65z" />
    <glyph glyph-name="q" unicode="q" horiz-adv-x="557" 
d="M445 -185l54 -21l-3 -19h-216l4 19l62 18l39 188l20 83l-2 3q-40 -43 -90.5 -66.5t-100.5 -23.5q-83 0 -114.5 64t-9.5 169q26 125 104 190t199 65q69 0 126 -23l54 26l10 -14zM410 121l64 310q-39 27 -92 27q-70 0 -119 -56t-71 -162q-20 -94 0 -150t74 -56
q34 0 73 22.5t71 64.5z" />
    <glyph glyph-name="r" unicode="r" horiz-adv-x="452" 
d="M97 415l-8 10q29 25 67.5 42.5t67.5 17.5q60 0 45 -70l-12 -44l2 -3q3 5 8 12.5t21.5 27.5t33.5 35.5t42.5 28t49.5 12.5q42 0 66.5 -29t15.5 -72q-13 -59 -63 -59q-23 0 -35 15.5t-7 39.5l14 66q-9 7 -21 7q-29 0 -63 -34.5t-53 -69.5l-20 -34l-64 -314h-85l-11 13
l80 387q9 42 -19 42q-20 0 -52 -27z" />
    <glyph glyph-name="s" unicode="s" horiz-adv-x="445" 
d="M377 386l9 51q-25 21 -68 21q-46 0 -78 -22t-39 -59q-8 -36 13.5 -54.5t73.5 -34.5q86 -30 114 -56q41 -38 29 -101q-13 -63 -67 -99.5t-148 -36.5q-78 0 -119 26t-32 72q5 24 20.5 36.5t33.5 12.5q21 0 31 -13.5t6 -35.5l-11 -49q27 -23 75 -23q51 0 88 22.5t46 64.5
q8 38 -16 57.5t-84 38.5q-39 14 -59 23t-42.5 25.5t-29 40.5t0.5 57q12 61 61 97t137 36q73 0 113.5 -25t30.5 -72q-4 -24 -19.5 -36.5t-34.5 -12.5q-20 0 -30 14t-5 35z" />
    <glyph glyph-name="t" unicode="t" horiz-adv-x="376" 
d="M119 451l3 15q99 28 170 127l12 -14l-21 -99h149l-6 -29h-149l-67 -322q-19 -98 60 -98q42 0 76 29l12 -15q-58 -50 -137 -50q-65 0 -93.5 36.5t-15.5 97.5l67 322h-60z" />
    <glyph glyph-name="u" unicode="u" 
d="M97 415l-8 10q29 25 67.5 42.5t67.5 17.5q60 0 45 -70l-54 -261q-11 -55 4 -87.5t54 -32.5q34 0 76 25t77 71l72 350h86l10 -14l-80 -386q-9 -42 18 -42q23 0 53 27l7 -10q-29 -25 -66.5 -42.5t-67.5 -17.5q-60 0 -45 70l8 25l-2 4q-43 -47 -98.5 -73t-103.5 -26
q-65 0 -90.5 41.5t-11.5 107.5l53 256q9 42 -19 42q-20 0 -52 -27z" />
    <glyph glyph-name="v" unicode="v" horiz-adv-x="555" 
d="M270 0l-87 407q-8 35 -36 35q-21 0 -53 -27l-8 10q72 60 131 60q27 0 42 -14.5t22 -51.5l66 -350q8 9 21 24t47 57t61 79.5t51.5 81t30.5 71.5h-29q-21 0 -32.5 14.5t-7.5 36.5q4 21 21 36t41 15q27 0 39.5 -20.5t4.5 -58.5q-9 -43 -42 -100.5t-74.5 -109t-81.5 -96.5
t-67 -72l-27 -27h-33z" />
    <glyph glyph-name="w" unicode="w" horiz-adv-x="860" 
d="M585 0l-58 275q-38 -60 -94 -128.5t-93 -107.5l-37 -39h-33l-87 407q-8 35 -36 35q-21 0 -53 -27l-8 10q72 60 131 60q27 0 42 -14.5t22 -51.5l66 -348q115 134 172 237l-21 99q-8 35 -36 35q-21 0 -54 -27l-7 10q69 60 131 60q28 0 42.5 -14.5t21.5 -51.5l65 -348
q7 9 19.5 23.5t45.5 56.5t59 79.5t50 80.5t30 71h-30q-21 0 -33 14.5t-8 36.5q5 21 22 36t41 15q27 0 39.5 -20.5t4.5 -59.5q-14 -68 -84.5 -169t-134.5 -168l-63 -67h-34z" />
    <glyph glyph-name="x" unicode="x" horiz-adv-x="537" 
d="M142 57l-5 -25q68 16 150 195l-72 173q-17 42 -40 42q-20 0 -52 -27l-7 10q67 60 110 60q51 0 80 -70l47 -113q91 182 189 182q31 0 46.5 -18t10.5 -46q-4 -23 -22 -37t-39 -14q-22 0 -34 14.5t-7 37.5l5 25q-62 -15 -137 -173l81 -193q17 -42 41 -42q23 0 50 27l8 -10
q-67 -60 -111 -60q-52 0 -79 70l-57 135q-16 -34 -34.5 -65.5t-45 -65t-58.5 -54t-64 -20.5q-31 0 -46 17.5t-10 45.5q5 23 22.5 37.5t38.5 14.5q23 0 34.5 -15.5t6.5 -37.5z" />
    <glyph glyph-name="y" unicode="y" horiz-adv-x="555" 
d="M75 -156l-6 -32q3 -3 9 -3q20 0 78 49t121 125l-94 424q-8 35 -34 35q-23 0 -55 -27l-8 10q72 60 132 60q27 0 41 -15t22 -51l71 -358q21 26 53 67t89 127.5t65 126.5h-29q-22 0 -33.5 14.5t-7.5 36.5q5 22 23 36.5t40 14.5q25 0 38.5 -19.5t6.5 -53.5
q-12 -57 -82.5 -165t-158 -212.5t-180 -183t-141.5 -78.5q-25 0 -45 17t-13 51q5 25 21.5 38.5t37.5 13.5q22 0 33 -13.5t6 -34.5z" />
    <glyph glyph-name="z" unicode="z" horiz-adv-x="472" 
d="M120 354l-13 17q82 69 118.5 92.5t62.5 23.5q27 0 63 -13t67 -13q67 0 97 24l11 -16l-365 -373l1 -4q29 12 56 12q24 0 61.5 -17t62.5 -17q57 0 130 62l13 -16q-145 -124 -207 -124q-20 0 -61 17.5t-74 17.5q-64 0 -104 -34l-11 16l372 379l-2 4q-24 -10 -55 -10
q-25 0 -59.5 13t-59.5 13q-23 0 -44.5 -11t-59.5 -43z" />
    <glyph glyph-name="braceleft" unicode="{" horiz-adv-x="356" 
d="M163 276q50 -23 69.5 -84t1.5 -149q-21 -109 -8 -165t56 -56l-5 -25q-85 0 -122.5 66.5t-14.5 179.5q21 108 7.5 164t-55.5 56l5 25q42 0 79.5 57.5t59.5 163.5q23 113 88 179.5t150 66.5l-6 -26q-42 0 -79 -57t-59 -163q-18 -88 -62.5 -149.5t-104.5 -83.5z" />
    <glyph glyph-name="bar" unicode="|" horiz-adv-x="206" 
d="M73 -225h-34l201 975h34z" />
    <glyph glyph-name="braceright" unicode="}" horiz-adv-x="356" 
d="M306 276q-50 22 -69 83t-1 150q21 108 7.5 164t-55.5 56l5 26q84 0 122.5 -67t14.5 -179q-21 -108 -8 -164.5t56 -56.5l-5 -25q-43 0 -80 -57t-59 -163q-23 -113 -88.5 -179.5t-149.5 -66.5l5 25q42 0 79.5 57.5t59.5 163.5q18 88 62 149t104 84z" />
    <glyph glyph-name="asciitilde" unicode="~" horiz-adv-x="465" 
d="M101 242l-13 16q64 53 101.5 77t62.5 24q23 0 59.5 -26.5t61.5 -26.5q53 0 113 52l13 -15q-119 -103 -169 -103q-22 0 -59 26.5t-64 26.5q-46 0 -106 -51z" />
    <glyph glyph-name="exclamdown" unicode="&#xa1;" horiz-adv-x="202" 
d="M184 480h31q-20 -127 -33.5 -225.5t-18.5 -148t-7.5 -81.5t-3 -46.5t-2.5 -22.5q-5 -25 -25 -42t-45 -17t-39.5 17t-9.5 43q1 6 14 41t50 158t89 324zM169 612q5 25 25 41.5t44 16.5q25 0 38 -16.5t8 -41.5t-24.5 -42t-44.5 -17t-38 17t-8 42z" />
    <glyph glyph-name="cent" unicode="&#xa2;" horiz-adv-x="527" 
d="M279 -50h-29l9 46q-103 5 -147.5 70t-21.5 173q22 109 92.5 173.5t177.5 70.5l10 47h28l-10 -46q77 -2 125.5 -33.5t37.5 -85.5q-6 -27 -24 -41.5t-40 -14.5q-23 0 -34 15t-7 40l15 69q-30 23 -78 25l-88 -426q8 -1 26 -1q84 0 146 53l14 -17q-80 -69 -193 -72zM192 251
q-37 -179 76 -213l86 418q-59 -10 -101.5 -63.5t-60.5 -141.5z" />
    <glyph glyph-name="sterling" unicode="&#xa3;" horiz-adv-x="559" 
d="M95 337l3 15l62 12l26 124q21 101 90.5 158.5t173.5 57.5q75 0 123 -32t37 -86q-6 -28 -24 -42.5t-40 -14.5t-34 15.5t-7 39.5l14 69q-25 25 -70 25q-59 0 -102 -47t-60 -130l-28 -137h201l-6 -27h-200q-28 -132 -100 -258q46 23 77 23q30 0 78.5 -25.5t81.5 -25.5
q66 0 142 52l13 -16q-148 -101 -209 -101q-28 0 -77.5 26t-83.5 26q-60 0 -134 -50l-12 15q16 11 65 43l60 291h-60z" />
    <glyph glyph-name="currency" unicode="&#xa4;" horiz-adv-x="504" 
d="M146 300q11 63 57 112l-52 68l28 24l52 -68q54 39 118 39q65 0 103 -38l78 67l20 -24l-80 -67q27 -45 13 -113q-13 -66 -60 -113l52 -68l-28 -23l-53 68q-51 -37 -117 -37t-101 37l-81 -68l-19 23l81 69q-25 49 -11 112zM181 300q-13 -62 15 -100t88 -38q61 0 105.5 38
t57.5 100q14 63 -15 102t-89 39t-104.5 -39t-57.5 -102z" />
    <glyph glyph-name="yen" unicode="&#xa5;" horiz-adv-x="694" 
d="M207 232l8 35h131l7 31l-147 365l-58 18l4 19h234l-4 -19l-66 -18l133 -333l273 333l-75 18l4 19h178l-4 -19l-70 -18l-300 -364l-7 -32h133l-7 -35h-133l-17 -83h132l-7 -34h-132l-16 -77l58 -19l-3 -19h-228l4 19l67 22l15 74h-131l7 34h131l18 83h-132z" />
    <glyph glyph-name="brokenbar" unicode="&#xa6;" horiz-adv-x="206" 
d="M274 750l-90 -438h-34l90 438h34zM73 -225h-34l90 437h35z" />
    <glyph glyph-name="section" unicode="&#xa7;" horiz-adv-x="478" 
d="M182 439q-42 39 -29 104q15 74 79 117.5t160 43.5q85 0 130 -37t34 -94q-6 -29 -24 -43.5t-40 -14.5q-23 0 -34.5 15t-6.5 40l15 77q-27 31 -75 31q-55 0 -92.5 -33t-47.5 -83q-9 -41 7 -70.5t46.5 -44t66 -30t65.5 -29.5t46.5 -42t8.5 -67q-12 -57 -70 -118
q44 -39 31 -105q-16 -74 -81.5 -117.5t-161.5 -43.5q-86 0 -132 37t-35 94q6 28 23.5 43t39.5 15q23 0 34.5 -15.5t7.5 -39.5l-16 -77q28 -32 78 -32q56 0 95.5 33t50.5 85q10 48 -15 79t-66.5 46.5t-82.5 30.5t-66.5 44.5t-15.5 75.5q12 61 73 125zM394 178q28 41 33 67
q8 38 -14.5 65.5t-55.5 40.5t-79 32t-70 37q-27 -37 -35 -71q-8 -38 15 -65t56.5 -39.5t79.5 -30.5t70 -36z" />
    <glyph glyph-name="dieresis" unicode="&#xa8;" horiz-adv-x="283" 
d="M99 605q4 25 24.5 42t46.5 17q25 0 38 -16.5t8 -42.5q-6 -26 -26 -42.5t-45 -16.5t-38 17t-8 42zM316 605q4 25 24.5 42t46.5 17q25 0 38 -16.5t8 -42.5q-5 -25 -25.5 -42t-44.5 -17q-26 0 -39 17t-8 42z" />
    <glyph glyph-name="copyright" unicode="&#xa9;" horiz-adv-x="796" 
d="M115 350q30 147 155.5 251t272.5 104t229.5 -104t52.5 -251q-31 -147 -156.5 -251t-272.5 -104t-229.5 104t-51.5 251zM151 350q-28 -132 46.5 -225.5t206.5 -93.5t245 93.5t140 225.5t-47 225.5t-206 93.5q-133 0 -245.5 -93.5t-139.5 -225.5zM571 235l8 -11
q-60 -52 -140 -52q-78 0 -114 48t-20 130q17 82 74 130.5t134 48.5q53 0 89 -26l26 12l4 -7l-11 -72h-14q-8 74 -87 74q-54 0 -92 -39.5t-54 -118.5q-15 -73 6 -115t84 -42t107 40z" />
    <glyph glyph-name="ordfeminine" unicode="&#xaa;" horiz-adv-x="298" 
d="M390 494l4 -6q-35 -30 -75 -30q-35 0 -28 34l4 9l-1 1q-42 -44 -94 -44q-40 0 -55 32t-3 84q26 128 155 128q34 0 63 -11l30 13l6 -8l-41 -193q-3 -21 10 -21q10 0 25 12zM297 521l32 155q-19 12 -38 12q-63 0 -85 -108q-10 -46 -2.5 -72.5t30.5 -26.5q34 0 63 40z" />
    <glyph glyph-name="guillemotleft" unicode="&#xab;" horiz-adv-x="406" 
d="M88 263l4 13l189 158l12 -16l-126 -148l65 -150l-18 -15zM242 263l3 13l189 158l12 -16l-127 -148l65 -150l-18 -15z" />
    <glyph glyph-name="logicalnot" unicode="&#xac;" horiz-adv-x="492" 
d="M107 333l6 34h415l-28 -135h-34l21 101h-380z" />
    <glyph glyph-name="uni00AD" unicode="&#xad;" horiz-adv-x="300" 
d="M96 283l7 34h223l-7 -34h-223z" />
    <glyph glyph-name="registered" unicode="&#xae;" horiz-adv-x="796" 
d="M115 350q30 147 155.5 251t272.5 104t229.5 -104t52.5 -251q-31 -147 -156.5 -251t-272.5 -104t-229.5 104t-51.5 251zM151 350q-28 -132 46.5 -225.5t206.5 -93.5t245 93.5t140 225.5t-47 225.5t-206 93.5q-133 0 -245.5 -93.5t-139.5 -225.5zM622 439q-7 -36 -35.5 -60
t-69.5 -31q17 -8 29 -43l33 -100l30 -10l-2 -11h-88l-52 160h-47l-29 -138l30 -11l-2 -11h-128l2 12l34 12l64 307l-30 9l2 10h153q56 0 85.5 -25.5t20.5 -69.5zM505 518h-50l-32 -158h50q30 0 52 20t29 59q8 39 -5.5 59t-43.5 20z" />
    <glyph glyph-name="macron" unicode="&#xaf;" horiz-adv-x="298" 
d="M146 578l7 36h243l-7 -36h-243z" />
    <glyph glyph-name="degree" unicode="&#xb0;" horiz-adv-x="258" 
d="M161 609q9 43 40 69.5t72 26.5q43 0 63 -26t12 -70q-9 -42 -40.5 -68.5t-74.5 -26.5q-41 0 -61 26.5t-11 68.5zM198 609q-6 -28 5.5 -45t36.5 -17q26 0 45.5 17t25.5 45q5 28 -7 45.5t-38 17.5q-25 0 -43.5 -17.5t-24.5 -45.5z" />
    <glyph glyph-name="plusminus" unicode="&#xb1;" horiz-adv-x="442" 
d="M107 333l6 34h166l35 169h34l-35 -169h166l-7 -34h-166l-35 -171h-34l35 171h-165zM48 51l7 34h366l-7 -34h-366z" />
    <glyph glyph-name="twosuperior" unicode="&#xb2;" horiz-adv-x="273" 
d="M93 350l5 24q51 40 77.5 62t60 55.5t51 64.5t24.5 65q14 67 -44 67q-23 0 -46 -17l-9 -40q-2 -15 -12.5 -24t-24.5 -9q-30 0 -23 33q6 31 40.5 51t82.5 20q54 0 79 -23t15 -67q-6 -31 -25.5 -60t-56 -59.5t-62.5 -49t-76 -51.5h149l27 46h14l-19 -88h-227z" />
    <glyph glyph-name="threesuperior" unicode="&#xb3;" horiz-adv-x="299" 
d="M233 673l-8 -38q-7 -32 -37 -32q-13 0 -20 8.5t-3 23.5q6 32 43.5 50t82.5 18q51 0 76.5 -24t17.5 -65q-13 -64 -88 -82q38 -8 55.5 -31.5t10.5 -58.5q-9 -43 -49 -69t-97 -26q-46 0 -76.5 17.5t-24.5 49.5q8 33 37 33q13 0 20 -9t4 -23l-8 -39q16 -13 42 -13
q33 0 57 20.5t32 59.5q16 81 -70 81h-23l4 16h21q75 0 89 73q7 36 -5 55t-38 19q-24 0 -45 -14z" />
    <glyph glyph-name="acute" unicode="&#xb4;" horiz-adv-x="273" 
d="M151 550l168 140l45 -57l-200 -98z" />
    <glyph glyph-name="mu" unicode="&#xb5;" horiz-adv-x="597" 
d="M174 432l-52 15l5 21l144 19l10 -14l-66 -319q-11 -55 6.5 -87.5t63.5 -32.5q33 0 74 16t73 46l69 336l-53 15l4 21l146 19l10 -14l-88 -426l51 -18l-4 -21l-143 -13l-10 13l13 54l-2 3q-38 -33 -89.5 -51.5t-95.5 -18.5q-58 0 -82 34q-1 -42 1.5 -72.5t4 -42.5t0.5 -18
q-5 -22 -22 -36t-39 -14q-21 0 -32 14.5t-7 36.5z" />
    <glyph glyph-name="paragraph" unicode="&#xb6;" horiz-adv-x="491" 
d="M336 25l39 188q-127 0 -191.5 65.5t-40.5 177.5q23 112 114.5 178t217.5 66h132l-4 -19l-62 -19l-132 -637q-32 -160 -202 -256l-14 17q111 87 143 239z" />
    <glyph glyph-name="periodcentered" unicode="&#xb7;" horiz-adv-x="191" 
d="M97 290q5 25 25 41.5t44 16.5t37.5 -16.5t8.5 -41.5t-25 -41.5t-45 -16.5q-24 0 -37 16.5t-8 41.5z" />
    <glyph glyph-name="cedilla" unicode="&#xb8;" horiz-adv-x="180" 
d="M7 -101l76 101h24l-35 -48q35 0 56 -10.5t16 -34.5q-9 -41 -120 -131l-8 11q57 46 63 80q4 17 -12.5 24.5t-59.5 7.5z" />
    <glyph glyph-name="onesuperior" unicode="&#xb9;" horiz-adv-x="198" 
d="M100 350l3 12l44 11l61 298h-47l3 13l105 20l6 -8l-67 -325l40 -10l-3 -11h-145z" />
    <glyph glyph-name="ordmasculine" unicode="&#xba;" horiz-adv-x="289" 
d="M143 580q11 56 51.5 89t94.5 33t80.5 -33t15.5 -89q-12 -56 -52 -89t-94 -33q-55 0 -81.5 33t-14.5 89zM206 580q-10 -55 -0.5 -81.5t35.5 -26.5q27 0 48.5 27.5t32.5 80.5q10 54 0 81t-37 27q-26 0 -47 -27.5t-32 -80.5z" />
    <glyph glyph-name="guillemotright" unicode="&#xbb;" horiz-adv-x="406" 
d="M427 276l-3 -13l-190 -158l-11 15l127 150l-66 148l18 16zM274 276l-3 -13l-189 -158l-13 15l127 150l-65 148l19 16z" />
    <glyph glyph-name="onequarter" unicode="&#xbc;" horiz-adv-x="585" 
d="M430 0l1 12l33 11l11 52h-155l3 11q60 79 94 138.5t48 125.5h62q-14 -70 -59.5 -130t-122.5 -129h133l21 100l63 53l6 -8l-30 -145h37l-4 -16h-36l-11 -54l28 -10l-2 -11h-120zM150 0h-38l452 700h38zM102 350l2 12l45 11l61 298h-47l2 13l106 20l6 -8l-67 -325l41 -10
l-3 -11h-146z" />
    <glyph glyph-name="onehalf" unicode="&#xbd;" horiz-adv-x="634" 
d="M102 350l2 12l45 11l61 298h-47l2 13l106 20l6 -8l-67 -325l41 -10l-3 -11h-146zM150 0h-38l452 700h38zM367 0l5 24q68 52 103 82t70 75.5t44 89.5q14 67 -45 67q-24 0 -50 -17l-8 -40q-3 -15 -13.5 -24t-23.5 -9q-30 0 -24 33q7 31 42 51t83 20q54 0 80 -23t17 -67
q-5 -25 -21.5 -50.5t-35 -45t-51.5 -44.5t-54.5 -39.5t-61.5 -40.5h152l27 46h15l-19 -88h-231z" />
    <glyph glyph-name="threequarters" unicode="&#xbe;" horiz-adv-x="653" 
d="M236 673l-7 -38q-3 -14 -14 -23t-24 -9t-20 8.5t-4 23.5q6 32 44.5 50t83.5 18q52 0 77.5 -24t17.5 -65q-13 -64 -90 -82q39 -8 57 -31.5t11 -58.5q-9 -43 -49.5 -69t-97.5 -26q-46 0 -77 17.5t-25 49.5q3 16 13.5 24.5t23.5 8.5t20 -9.5t4 -22.5l-8 -39q16 -13 44 -13
q33 0 57 20.5t32 59.5q17 81 -72 81h-23l3 16h22q77 0 91 73q7 36 -5 55t-39 19q-25 0 -46 -14zM499 0l1 12l33 11l11 52h-154l3 11q60 80 93.5 139t47.5 125h62q-14 -70 -59.5 -129.5t-121.5 -129.5h132l21 100l63 53l6 -8l-30 -145h37l-4 -16h-36l-11 -54l28 -10l-2 -11
h-120zM219 0h-38l452 700h38z" />
    <glyph glyph-name="questiondown" unicode="&#xbf;" horiz-adv-x="478" 
d="M330 480h31q-7 -67 -28 -118.5t-48 -84t-54 -61.5t-50.5 -67.5t-33.5 -85.5q-13 -66 10.5 -103.5t77.5 -37.5q51 0 92 32l16 76q4 24 22.5 39.5t41.5 15.5q22 0 33.5 -14.5t5.5 -43.5q-12 -56 -74 -93.5t-147 -37.5q-97 0 -143 50.5t-28 138.5q9 42 30.5 77.5t47.5 59
t57 50.5t58 52.5t49.5 66t33.5 89.5zM427 612q-4 -25 -24.5 -42t-44.5 -17q-25 0 -38 17t-8 42t24.5 41.5t44.5 16.5t38 -16.5t8 -41.5z" />
    <glyph glyph-name="Agrave" unicode="&#xc0;" horiz-adv-x="745" 
d="M539 700l140 -662l58 -19l-3 -19h-230l4 19l66 19l-39 194h-302l-121 -194l79 -19l-4 -19h-177l3 19l68 19l418 662h40zM461 595l-210 -335h277zM499 900l110 -139l-18 -16l-161 98z" />
    <glyph glyph-name="Aacute" unicode="&#xc1;" horiz-adv-x="745" 
d="M539 700l140 -662l58 -19l-3 -19h-230l4 19l66 19l-39 194h-302l-121 -194l79 -19l-4 -19h-177l3 19l68 19l418 662h40zM461 595l-210 -335h277zM453 761l167 139l45 -57l-200 -98z" />
    <glyph glyph-name="Acircumflex" unicode="&#xc2;" horiz-adv-x="745" 
d="M539 700l140 -662l58 -19l-3 -19h-230l4 19l66 19l-39 194h-302l-121 -194l79 -19l-4 -19h-177l3 19l68 19l418 662h40zM461 595l-210 -335h277zM552 900h13l107 -139l-18 -16l-111 79l-141 -79l-12 16z" />
    <glyph glyph-name="Atilde" unicode="&#xc3;" horiz-adv-x="745" 
d="M539 700l140 -662l58 -19l-3 -19h-230l4 19l66 19l-39 194h-302l-121 -194l79 -19l-4 -19h-177l3 19l68 19l418 662h40zM461 595l-210 -335h277zM384 767l-12 16q100 84 137 84q21 0 50 -23t52 -23q40 0 93 45l11 -15q-104 -87 -141 -87q-20 0 -49.5 23t-52.5 23
q-36 0 -88 -43z" />
    <glyph glyph-name="Adieresis" unicode="&#xc4;" horiz-adv-x="745" 
d="M539 700l140 -662l58 -19l-3 -19h-230l4 19l66 19l-39 194h-302l-121 -194l79 -19l-4 -19h-177l3 19l68 19l418 662h40zM461 595l-210 -335h277zM374 815q5 26 25.5 43t45.5 17t38.5 -17t8.5 -43q-5 -25 -25.5 -42t-45.5 -17q-26 0 -39 17t-8 42zM592 815q4 25 24 42.5
t45 17.5t39 -17t9 -43q-6 -26 -26.5 -42.5t-45.5 -16.5t-37.5 16.5t-7.5 42.5z" />
    <glyph glyph-name="Aring" unicode="&#xc5;" horiz-adv-x="745" 
d="M539 700l140 -662l58 -19l-3 -19h-230l4 19l66 19l-39 194h-302l-121 -194l79 -19l-4 -19h-177l3 19l68 19l418 662h40zM461 595l-210 -335h277zM461 816q7 37 34 59t63 22q37 0 55.5 -22t11.5 -59q-8 -37 -35.5 -59t-64.5 -22q-36 0 -54 22t-10 59zM499 816
q-6 -26 2.5 -42t27.5 -16q20 0 35.5 16t21.5 42q5 27 -3.5 43t-28.5 16q-19 0 -34.5 -16t-20.5 -43z" />
    <glyph glyph-name="AE" unicode="&#xc6;" horiz-adv-x="823" 
d="M434 32l9 200h-211l-120 -194l79 -19l-4 -19h-177l3 19l68 19l415 662h404l-20 -126h-26l-21 97h-279l-10 -297h169l33 75h24l-36 -177h-24l-3 74h-165l-12 -319h180l62 99h24l-31 -126h-400l2 16zM458 595l-209 -335h195z" />
    <glyph glyph-name="Ccedilla" unicode="&#xc7;" horiz-adv-x="695" 
d="M302 -101l71 96q-148 3 -216 98t-35 256q34 164 145 260.5t262 96.5q119 0 187 -56l42 23l9 -12l-21 -137h-25q-3 46 -21.5 78t-47.5 47t-55 20.5t-55 5.5q-116 0 -197.5 -83t-114.5 -240q-30 -148 17.5 -233.5t176.5 -85.5t223 80l14 -16q-117 -99 -263 -103l-31 -42
q81 0 72 -45q-9 -43 -120 -131l-8 11q56 45 62 80q4 17 -12 24.5t-59 7.5z" />
    <glyph glyph-name="Egrave" unicode="&#xc8;" horiz-adv-x="612" 
d="M199 27h300l61 99h25l-31 -126h-525l2 16l67 16l131 635l-60 17l4 16h516l-21 -126h-25l-21 97h-290l-61 -297h231l34 75h23l-35 -177h-24l-4 74h-231zM429 900l111 -139l-18 -16l-161 98z" />
    <glyph glyph-name="Eacute" unicode="&#xc9;" horiz-adv-x="612" 
d="M199 27h300l61 99h25l-31 -126h-525l2 16l67 16l131 635l-60 17l4 16h516l-21 -126h-25l-21 97h-290l-61 -297h231l34 75h23l-35 -177h-24l-4 74h-231zM384 761l167 139l44 -57l-199 -98z" />
    <glyph glyph-name="Ecircumflex" unicode="&#xca;" horiz-adv-x="612" 
d="M199 27h300l61 99h25l-31 -126h-525l2 16l67 16l131 635l-60 17l4 16h516l-21 -126h-25l-21 97h-290l-61 -297h231l34 75h23l-35 -177h-24l-4 74h-231zM484 900h13l106 -139l-17 -16l-111 79l-142 -79l-12 16z" />
    <glyph glyph-name="Edieresis" unicode="&#xcb;" horiz-adv-x="612" 
d="M199 27h300l61 99h25l-31 -126h-525l2 16l67 16l131 635l-60 17l4 16h516l-21 -126h-25l-21 97h-290l-61 -297h231l34 75h23l-35 -177h-24l-4 74h-231zM307 815q4 25 24 42.5t45 17.5q26 0 39.5 -17.5t8.5 -42.5t-25.5 -42t-46.5 -17q-25 0 -37.5 16.5t-7.5 42.5z
M524 815q5 26 24.5 43t45.5 17q25 0 38.5 -17t8.5 -43q-5 -25 -25.5 -42t-45.5 -17q-26 0 -38.5 16.5t-7.5 42.5z" />
    <glyph glyph-name="Igrave" unicode="&#xcc;" horiz-adv-x="286" 
d="M329 661l-129 -623l59 -19l-4 -19h-226l4 19l67 22l128 621l-59 19l4 19h226l-4 -19zM267 900l111 -139l-18 -16l-161 98z" />
    <glyph glyph-name="Iacute" unicode="&#xcd;" horiz-adv-x="286" 
d="M330 661l-129 -623l58 -19l-3 -19h-227l4 19l68 22l128 621l-60 19l4 19h227l-4 -19zM222 761l167 139l44 -57l-200 -98z" />
    <glyph glyph-name="Icircumflex" unicode="&#xce;" horiz-adv-x="286" 
d="M329 661l-129 -623l59 -19l-4 -19h-226l4 19l67 22l128 621l-59 19l4 19h226l-4 -19zM321 900h13l106 -139l-18 -16l-110 79l-142 -79l-12 16z" />
    <glyph glyph-name="Idieresis" unicode="&#xcf;" horiz-adv-x="287" 
d="M330 661l-129 -623l58 -19l-3 -19h-227l4 19l68 22l128 621l-60 19l4 19h226l-3 -19zM163 815q4 25 24.5 42.5t45.5 17.5t38.5 -17t8.5 -43t-25.5 -42.5t-45.5 -16.5t-38 17t-8 42zM343 815q5 26 24.5 43t45.5 17q24 0 37.5 -17.5t9.5 -42.5q-5 -25 -26 -42t-45 -17
q-26 0 -38.5 16.5t-7.5 42.5z" />
    <glyph glyph-name="Eth" unicode="&#xd0;" horiz-adv-x="716" 
d="M99 340l3 15l65 13l62 299l-60 17l4 16h303q150 0 222 -94t39 -256q-33 -163 -143.5 -256.5t-260.5 -93.5h-304l2 16l67 16l64 308h-63zM470 671h-138l-63 -303h164l-5 -28h-164l-65 -313h138q102 0 181 83t111 239q31 156 -13 239t-146 83z" />
    <glyph glyph-name="Ntilde" unicode="&#xd1;" horiz-adv-x="697" 
d="M31 14l68 22l129 626l-59 19l4 19h168l265 -554l109 521l-60 19l3 14h154l-2 -14l-68 -20l-137 -666h-38l-314 646l-126 -613l59 -20l-2 -13h-155zM358 767l-13 16q101 84 138 84q21 0 50 -23t52 -23q41 0 93 45l12 -15q-104 -87 -143 -87q-19 0 -48 23t-53 23
q-36 0 -88 -43z" />
    <glyph glyph-name="Ograve" unicode="&#xd2;" horiz-adv-x="759" 
d="M122 350q34 163 144.5 259.5t257.5 96.5q148 0 219 -96.5t37 -259.5q-33 -163 -144 -259.5t-259 -96.5q-147 0 -217.5 96.5t-37.5 259.5zM230 349q-32 -158 10.5 -243.5t142.5 -85.5t178.5 85.5t110.5 243.5t-10.5 244.5t-141.5 86.5q-100 0 -179 -86.5t-111 -244.5z
M503 900l110 -139l-18 -16l-160 98z" />
    <glyph glyph-name="Oacute" unicode="&#xd3;" horiz-adv-x="759" 
d="M122 350q34 163 144.5 259.5t257.5 96.5q148 0 219 -96.5t37 -259.5q-33 -163 -144 -259.5t-259 -96.5q-147 0 -217.5 96.5t-37.5 259.5zM230 349q-32 -158 10.5 -243.5t142.5 -85.5t178.5 85.5t110.5 243.5t-10.5 244.5t-141.5 86.5q-100 0 -179 -86.5t-111 -244.5z
M457 761l167 139l45 -57l-200 -98z" />
    <glyph glyph-name="Ocircumflex" unicode="&#xd4;" horiz-adv-x="759" 
d="M122 350q34 163 144.5 259.5t257.5 96.5q148 0 219 -96.5t37 -259.5q-33 -163 -144 -259.5t-259 -96.5q-147 0 -217.5 96.5t-37.5 259.5zM230 349q-32 -158 10.5 -243.5t142.5 -85.5t178.5 85.5t110.5 243.5t-10.5 244.5t-141.5 86.5q-100 0 -179 -86.5t-111 -244.5z
M557 900h13l106 -139l-17 -16l-111 79l-142 -79l-12 16z" />
    <glyph glyph-name="Otilde" unicode="&#xd5;" horiz-adv-x="759" 
d="M122 350q34 163 144.5 259.5t257.5 96.5q148 0 219 -96.5t37 -259.5q-33 -163 -144 -259.5t-259 -96.5q-147 0 -217.5 96.5t-37.5 259.5zM230 349q-32 -158 10.5 -243.5t142.5 -85.5t178.5 85.5t110.5 243.5t-10.5 244.5t-141.5 86.5q-100 0 -179 -86.5t-111 -244.5z
M389 767l-13 16q100 84 138 84q20 0 49.5 -23t52.5 -23q40 0 92 45l11 -15q-102 -87 -141 -87q-19 0 -48.5 23t-52.5 23q-37 0 -88 -43z" />
    <glyph glyph-name="Odieresis" unicode="&#xd6;" horiz-adv-x="759" 
d="M122 350q34 163 144.5 259.5t257.5 96.5q148 0 219 -96.5t37 -259.5q-33 -163 -144 -259.5t-259 -96.5q-147 0 -217.5 96.5t-37.5 259.5zM230 349q-32 -158 10.5 -243.5t142.5 -85.5t178.5 85.5t110.5 243.5t-10.5 244.5t-141.5 86.5q-100 0 -179 -86.5t-111 -244.5z
M380 815q5 26 25 43t45 17t38.5 -17.5t8.5 -42.5t-25.5 -42t-45.5 -17q-26 0 -39 17t-7 42zM597 815q5 26 25 43t45 17t38.5 -17t8.5 -43t-25.5 -42.5t-45.5 -16.5t-38 16.5t-8 42.5z" />
    <glyph glyph-name="multiply" unicode="&#xd7;" horiz-adv-x="441" 
d="M141 450l31 24l115 -149l177 149l19 -24l-177 -150l115 -150l-28 -25l-117 150l-176 -150l-20 25l176 150z" />
    <glyph glyph-name="Oslash" unicode="&#xd8;" horiz-adv-x="759" 
d="M90 0h-40l105 96q-66 96 -33 254q34 163 144.5 259.5t257.5 96.5q134 0 206 -81l82 75h40l-105 -97q66 -96 33 -253q-33 -163 -144 -259.5t-259 -96.5q-133 0 -205 81zM672 349q22 114 7 192l-448 -412q36 -109 152 -109q100 0 178.5 85.5t110.5 243.5zM230 349
q-23 -110 -7 -190l448 411q-37 110 -151 110q-100 0 -179 -86.5t-111 -244.5z" />
    <glyph glyph-name="Ugrave" unicode="&#xd9;" horiz-adv-x="720" 
d="M765 666l-84 -408q-25 -121 -113.5 -192t-208.5 -71t-179.5 71t-34.5 192l83 404l-59 19l4 19h229l-4 -19l-68 -20l-83 -403q-22 -104 22.5 -161.5t135.5 -57.5t160 58t90 161l84 409l-59 19l3 14h153l-3 -14zM494 900l111 -139l-19 -16l-160 98z" />
    <glyph glyph-name="Uacute" unicode="&#xda;" horiz-adv-x="720" 
d="M765 666l-84 -408q-25 -121 -113.5 -192t-208.5 -71t-179.5 71t-34.5 192l83 404l-59 19l4 19h229l-4 -19l-68 -20l-83 -403q-22 -104 22.5 -161.5t135.5 -57.5t160 58t90 161l84 409l-59 19l3 14h153l-3 -14zM449 761l167 139l45 -57l-200 -98z" />
    <glyph glyph-name="Ucircumflex" unicode="&#xdb;" horiz-adv-x="720" 
d="M765 666l-84 -408q-25 -121 -113.5 -192t-208.5 -71t-179.5 71t-34.5 192l83 404l-59 19l4 19h229l-4 -19l-68 -20l-83 -403q-22 -104 22.5 -161.5t135.5 -57.5t160 58t90 161l84 409l-59 19l3 14h153l-3 -14zM549 900h13l107 -139l-19 -16l-110 79l-142 -79l-12 16z" />
    <glyph glyph-name="Udieresis" unicode="&#xdc;" horiz-adv-x="720" 
d="M765 666l-84 -408q-25 -121 -113.5 -192t-208.5 -71t-179.5 71t-34.5 192l83 404l-59 19l4 19h229l-4 -19l-68 -20l-83 -403q-22 -104 22.5 -161.5t135.5 -57.5t160 58t90 161l84 409l-59 19l3 14h153l-3 -14zM372 815q5 26 25 43t45 17t38.5 -17.5t8.5 -42.5t-25.5 -42
t-45.5 -17t-38 16.5t-8 42.5zM589 815q5 26 25 43t45 17t38.5 -17.5t9.5 -42.5q-6 -25 -26.5 -42t-45.5 -17t-38 16.5t-8 42.5z" />
    <glyph glyph-name="Yacute" unicode="&#xdd;" horiz-adv-x="697" 
d="M317 663l133 -333l274 333l-75 18l4 19h177l-4 -19l-69 -18l-300 -364l-54 -261l57 -19l-3 -19h-227l4 19l67 22l54 257l-148 365l-57 18l3 19h234l-3 -19zM436 761l167 139l45 -57l-200 -98z" />
    <glyph glyph-name="Thorn" unicode="&#xde;" horiz-adv-x="608" 
d="M330 661l-21 -101h109q114 0 173 -54t40 -146t-100 -145.5t-195 -53.5h-72l-11 14l3 14h72q73 0 126 44t70 127t-17.5 127t-107.5 44h-95l-102 -491l91 -21l-4 -19h-260l3 19l68 22l128 621l-59 19l4 19h227l-3 -19z" />
    <glyph glyph-name="germandbls" unicode="&#xdf;" horiz-adv-x="637" 
d="M424 21q47 0 78.5 23t40.5 66q8 38 -11 56.5t-72 38.5q-16 7 -24.5 10.5t-22.5 10.5t-21.5 12.5t-17 14t-13.5 18.5t-8 22t-3.5 27.5t4.5 33.5q9 43 33.5 79t50 57.5t49.5 54t31 68.5q10 46 -10.5 73.5t-72.5 27.5q-53 0 -85 -32t-46 -100l-118 -574q-23 -112 -81.5 -175
t-138.5 -63q-45 0 -63 18t-12 45q4 24 21.5 38t38.5 14t32 -14.5t7 -37.5l-7 -34q61 0 104 209l118 573q34 158 229 158q90 0 123 -33t21 -86q-8 -41 -40 -78.5t-64.5 -75t-40.5 -78.5q-8 -37 8.5 -55.5t63.5 -36.5q35 -15 51 -23.5t39 -27.5t29 -46t-1 -65
q-28 -139 -200 -139q-74 0 -115 26t-31 72q4 24 19.5 36.5t33.5 12.5q21 0 31 -13.5t5 -35.5l-10 -49q26 -23 68 -23z" />
    <glyph glyph-name="agrave" unicode="&#xe0;" horiz-adv-x="570" 
d="M571 65l7 -10q-29 -25 -66.5 -42.5t-67.5 -17.5q-61 0 -45 70l6 18l-2 3q-40 -43 -90.5 -66.5t-100.5 -23.5q-83 0 -114.5 64t-9.5 169q26 125 104 190t199 65q69 0 126 -23l54 26l10 -14l-81 -393q-9 -42 18 -42q23 0 53 27zM410 121l64 310q-39 27 -92 27
q-70 0 -119 -56t-71 -162q-20 -94 0 -150t74 -56q34 0 73 22.5t71 64.5zM369 690l109 -140l-17 -15l-161 98z" />
    <glyph glyph-name="aacute" unicode="&#xe1;" horiz-adv-x="570" 
d="M571 65l7 -10q-29 -25 -66.5 -42.5t-67.5 -17.5q-61 0 -45 70l6 18l-2 3q-40 -43 -90.5 -66.5t-100.5 -23.5q-83 0 -114.5 64t-9.5 169q26 125 104 190t199 65q69 0 126 -23l54 26l10 -14l-81 -393q-9 -42 18 -42q23 0 53 27zM410 121l64 310q-39 27 -92 27
q-70 0 -119 -56t-71 -162q-20 -94 0 -150t74 -56q34 0 73 22.5t71 64.5zM319 550l167 140l46 -57l-200 -98z" />
    <glyph glyph-name="acircumflex" unicode="&#xe2;" horiz-adv-x="570" 
d="M571 65l7 -10q-29 -25 -66.5 -42.5t-67.5 -17.5q-61 0 -45 70l6 18l-2 3q-40 -43 -90.5 -66.5t-100.5 -23.5q-83 0 -114.5 64t-9.5 169q26 125 104 190t199 65q69 0 126 -23l54 26l10 -14l-81 -393q-9 -42 18 -42q23 0 53 27zM410 121l64 310q-39 27 -92 27
q-70 0 -119 -56t-71 -162q-20 -94 0 -150t74 -56q34 0 73 22.5t71 64.5zM422 690h13l106 -140l-17 -15l-111 78l-142 -78l-12 15z" />
    <glyph glyph-name="atilde" unicode="&#xe3;" horiz-adv-x="570" 
d="M571 65l7 -10q-29 -25 -66.5 -42.5t-67.5 -17.5q-61 0 -45 70l6 18l-2 3q-40 -43 -90.5 -66.5t-100.5 -23.5q-83 0 -114.5 64t-9.5 169q26 125 104 190t199 65q69 0 126 -23l54 26l10 -14l-81 -393q-9 -42 18 -42q23 0 53 27zM410 121l64 310q-39 27 -92 27
q-70 0 -119 -56t-71 -162q-20 -94 0 -150t74 -56q34 0 73 22.5t71 64.5zM252 557l-12 16q98 84 137 84q21 0 50 -23t52 -23q39 0 93 44l11 -15q-101 -86 -142 -86q-19 0 -48.5 23t-52.5 23q-36 0 -88 -43z" />
    <glyph glyph-name="adieresis" unicode="&#xe4;" horiz-adv-x="570" 
d="M571 65l7 -10q-29 -25 -66.5 -42.5t-67.5 -17.5q-61 0 -45 70l6 18l-2 3q-40 -43 -90.5 -66.5t-100.5 -23.5q-83 0 -114.5 64t-9.5 169q26 125 104 190t199 65q69 0 126 -23l54 26l10 -14l-81 -393q-9 -42 18 -42q23 0 53 27zM410 121l64 310q-39 27 -92 27
q-70 0 -119 -56t-71 -162q-20 -94 0 -150t74 -56q34 0 73 22.5t71 64.5zM244 605q4 25 25 42t46 17t38.5 -16.5t8.5 -42.5q-5 -25 -25.5 -42t-45.5 -17q-26 0 -39 17t-8 42zM461 605q5 26 25.5 42.5t45.5 16.5t38 -16.5t8 -42.5t-25 -42.5t-45 -16.5q-26 0 -39 17t-8 42z
" />
    <glyph glyph-name="aring" unicode="&#xe5;" horiz-adv-x="570" 
d="M571 65l7 -10q-29 -25 -66.5 -42.5t-67.5 -17.5q-61 0 -45 70l6 18l-2 3q-40 -43 -90.5 -66.5t-100.5 -23.5q-83 0 -114.5 64t-9.5 169q26 125 104 190t199 65q69 0 126 -23l54 26l10 -14l-81 -393q-9 -42 18 -42q23 0 53 27zM410 121l64 310q-39 27 -92 27
q-70 0 -119 -56t-71 -162q-20 -94 0 -150t74 -56q34 0 73 22.5t71 64.5zM330 606q7 37 34.5 59t63.5 22q37 0 55 -22t11 -59q-8 -38 -35.5 -59.5t-64.5 -21.5t-54.5 21.5t-9.5 59.5zM367 606q-5 -27 3.5 -43t28.5 -16t35 16t20 43t-3.5 43t-27.5 16t-34.5 -16t-21.5 -43z
" />
    <glyph glyph-name="ae" unicode="&#xe6;" horiz-adv-x="750" 
d="M347 483q90 0 128 -41q68 42 157 42q79 0 118 -32t27 -93q-7 -33 -30 -54.5t-89 -39t-179 -23.5l-33 -156q32 -54 119 -54q89 0 149 52l14 -17q-85 -72 -203 -72q-113 0 -163 63q-82 -63 -191 -63q-125 0 -104 108q14 67 83 99q51 24 222 57h1h1l1 1h1h1h1h1l1 1h1h1h1h2
l1 1h1h1h1h1l1 1h1h1l19 94q9 45 -11 73t-65 28q-42 0 -84 -25l-13 -66q-5 -24 -22.5 -39t-40.5 -15q-21 0 -32.5 14t-7.5 40q12 52 72.5 84t138.5 32zM356 85l32 153q-46 -9 -66 -13t-50 -12t-42.5 -15.5t-28 -19.5t-23 -27.5t-11.5 -37.5q-16 -80 58 -80q69 0 131 52z
M500 346l-16 -79q98 7 146.5 27.5t58.5 68.5q7 40 -10.5 67.5t-60.5 27.5q-66 0 -115 -64q3 -23 -3 -48z" />
    <glyph glyph-name="ccedilla" unicode="&#xe7;" horiz-adv-x="521" 
d="M193 -101l72 96q-106 4 -152 69.5t-23 174.5q23 114 98.5 179.5t188.5 65.5q78 0 127.5 -32t38.5 -87q-6 -27 -23.5 -41.5t-38.5 -14.5q-23 0 -35 15t-7 40l14 69q-29 25 -78 25q-65 0 -113 -55t-68 -151q-22 -106 11 -163.5t116 -57.5q84 0 146 53l14 -17
q-80 -67 -191 -72l-32 -43q81 0 72 -45q-9 -43 -120 -131l-8 11q56 45 62 80q4 17 -12 24.5t-59 7.5z" />
    <glyph glyph-name="egrave" unicode="&#xe8;" horiz-adv-x="506" 
d="M190 230q-40 -198 133 -198q86 0 148 52l14 -17q-85 -72 -203 -72q-115 0 -165 67t-27 178q23 114 102.5 179t196.5 65q79 0 118 -32t27 -93q-5 -27 -21 -47t-52 -38.5t-104 -29.5t-167 -14zM375 458q-57 0 -107.5 -52t-73.5 -151q118 4 179.5 28t72.5 80q8 40 -10 67.5
t-61 27.5zM358 690l110 -140l-18 -15l-160 98z" />
    <glyph glyph-name="eacute" unicode="&#xe9;" horiz-adv-x="506" 
d="M190 230q-40 -198 133 -198q86 0 148 52l14 -17q-85 -72 -203 -72q-115 0 -165 67t-27 178q23 114 102.5 179t196.5 65q79 0 118 -32t27 -93q-5 -27 -21 -47t-52 -38.5t-104 -29.5t-167 -14zM375 458q-57 0 -107.5 -52t-73.5 -151q118 4 179.5 28t72.5 80q8 40 -10 67.5
t-61 27.5zM312 550l167 140l46 -57l-200 -98z" />
    <glyph glyph-name="ecircumflex" unicode="&#xea;" horiz-adv-x="506" 
d="M190 230q-40 -198 133 -198q86 0 148 52l14 -17q-85 -72 -203 -72q-115 0 -165 67t-27 178q23 114 102.5 179t196.5 65q79 0 118 -32t27 -93q-5 -27 -21 -47t-52 -38.5t-104 -29.5t-167 -14zM375 458q-57 0 -107.5 -52t-73.5 -151q118 4 179.5 28t72.5 80q8 40 -10 67.5
t-61 27.5zM412 690h14l105 -140l-17 -15l-110 78l-142 -78l-13 15z" />
    <glyph glyph-name="edieresis" unicode="&#xeb;" horiz-adv-x="506" 
d="M190 230q-40 -198 133 -198q86 0 148 52l14 -17q-85 -72 -203 -72q-115 0 -165 67t-27 178q23 114 102.5 179t196.5 65q79 0 118 -32t27 -93q-5 -27 -21 -47t-52 -38.5t-104 -29.5t-167 -14zM375 458q-57 0 -107.5 -52t-73.5 -151q118 4 179.5 28t72.5 80q8 40 -10 67.5
t-61 27.5zM234 605q5 25 25.5 42t46.5 17q25 0 38 -17t8 -42q-5 -26 -25.5 -42.5t-45.5 -16.5t-38.5 17t-8.5 42zM452 605q4 25 24.5 42t46.5 17q25 0 38 -16.5t8 -42.5q-5 -25 -25 -42t-45 -17q-26 0 -39 17t-8 42z" />
    <glyph glyph-name="igrave" unicode="&#xec;" horiz-adv-x="271" 
d="M216 690l110 -140l-17 -15l-161 98zM97 415l-8 10q29 25 67.5 42.5t67.5 17.5q60 0 45 -70l-68 -335q-10 -42 18 -42q20 0 52 27l8 -10q-30 -25 -67.5 -42.5t-66.5 -17.5q-61 0 -46 70l69 335q9 42 -19 42q-20 0 -52 -27z" />
    <glyph glyph-name="iacute" unicode="&#xed;" horiz-adv-x="271" 
d="M170 550l167 140l45 -57l-199 -98zM97 415l-8 10q29 25 67.5 42.5t67.5 17.5q60 0 45 -70l-68 -335q-10 -42 18 -42q20 0 52 27l8 -10q-30 -25 -67.5 -42.5t-66.5 -17.5q-61 0 -46 70l69 335q9 42 -19 42q-20 0 -52 -27z" />
    <glyph glyph-name="icircumflex" unicode="&#xee;" horiz-adv-x="270" 
d="M97 415l-8 10q29 25 67 42.5t68 17.5q60 0 45 -70l-68 -335q-10 -42 17 -42q21 0 53 27l8 -10q-30 -25 -67.5 -42.5t-67.5 -17.5q-60 0 -45 70l69 335q9 42 -19 42q-20 0 -52 -27zM270 690h13l106 -140l-18 -15l-110 78l-142 -78l-12 15z" />
    <glyph glyph-name="idieresis" unicode="&#xef;" horiz-adv-x="270" 
d="M116 605q5 25 25.5 42t45.5 17t38 -16.5t8 -42.5t-25 -42.5t-45 -16.5t-38.5 17t-8.5 42zM274 605q4 25 25 42t47 17q24 0 37 -17t8 -42t-25 -42t-45 -17q-26 0 -39 17t-8 42zM97 415l-8 10q29 25 67 42.5t68 17.5q60 0 45 -70l-68 -335q-10 -42 17 -42q21 0 53 27l8 -10
q-30 -25 -67.5 -42.5t-67.5 -17.5q-60 0 -45 70l69 335q9 42 -19 42q-20 0 -52 -27z" />
    <glyph glyph-name="eth" unicode="&#xf0;" horiz-adv-x="559" 
d="M373 569l81 68q-77 66 -205 86l22 18q143 -19 219 -73l88 74l20 -25l-83 -69q114 -104 66 -336q-33 -162 -111 -239.5t-190 -77.5q-108 0 -158.5 65.5t-27.5 177.5q23 113 100.5 179.5t182.5 66.5q119 0 150 -90h4q27 133 -54 221l-85 -71zM462 239q22 105 -2.5 162
t-85.5 57t-109 -57t-70 -162q-21 -105 3 -161.5t85 -56.5t109 56.5t70 161.5z" />
    <glyph glyph-name="ntilde" unicode="&#xf1;" horiz-adv-x="588" 
d="M97 415l-8 10q29 25 67.5 42.5t67.5 17.5q60 0 45 -70l-8 -25l2 -3q43 47 99.5 72t103.5 25q67 0 92 -46t9 -122l-48 -236q-10 -42 17 -42q23 0 53 27l8 -10q-30 -25 -67.5 -42.5t-67.5 -17.5q-60 0 -45 70l49 240q14 64 -1 102t-57 38q-33 0 -75 -25t-76 -69l-73 -351
h-85l-11 13l80 387q9 42 -19 42q-20 0 -52 -27zM259 557l-12 16q98 84 137 84q20 0 49 -23t53 -23q40 0 92 44l12 -15q-101 -86 -142 -86q-19 0 -48.5 23t-52.5 23q-36 0 -88 -43z" />
    <glyph glyph-name="ograve" unicode="&#xf2;" horiz-adv-x="558" 
d="M90 239q23 112 102 178.5t186 66.5q106 0 158 -67t29 -178q-23 -112 -102 -178t-186 -66t-158.5 66t-28.5 178zM191 239q-21 -105 4 -161.5t87 -56.5t111.5 56.5t71.5 161.5t-3.5 162t-88.5 57q-62 0 -111 -57t-71 -162zM359 690l110 -140l-18 -15l-160 98z" />
    <glyph glyph-name="oacute" unicode="&#xf3;" horiz-adv-x="558" 
d="M90 239q23 112 102 178.5t186 66.5q106 0 158 -67t29 -178q-23 -112 -102 -178t-186 -66t-158.5 66t-28.5 178zM191 239q-21 -105 4 -161.5t87 -56.5t111.5 56.5t71.5 161.5t-3.5 162t-88.5 57q-62 0 -111 -57t-71 -162zM313 550l167 140l45 -57l-200 -98z" />
    <glyph glyph-name="ocircumflex" unicode="&#xf4;" horiz-adv-x="558" 
d="M90 239q23 112 102 178.5t186 66.5q106 0 158 -67t29 -178q-23 -112 -102 -178t-186 -66t-158.5 66t-28.5 178zM191 239q-21 -105 4 -161.5t87 -56.5t111.5 56.5t71.5 161.5t-3.5 162t-88.5 57q-62 0 -111 -57t-71 -162zM413 690h14l105 -140l-17 -15l-110 78l-142 -78
l-13 15z" />
    <glyph glyph-name="otilde" unicode="&#xf5;" horiz-adv-x="558" 
d="M90 239q23 112 102 178.5t186 66.5q106 0 158 -67t29 -178q-23 -112 -102 -178t-186 -66t-158.5 66t-28.5 178zM191 239q-21 -105 4 -161.5t87 -56.5t111.5 56.5t71.5 161.5t-3.5 162t-88.5 57q-62 0 -111 -57t-71 -162zM245 557l-12 16q98 84 137 84q21 0 49.5 -23
t51.5 -23q40 0 92 44l13 -15q-102 -86 -142 -86q-19 0 -48.5 23t-53.5 23q-35 0 -87 -43z" />
    <glyph glyph-name="odieresis" unicode="&#xf6;" horiz-adv-x="558" 
d="M90 239q23 112 102 178.5t186 66.5q106 0 158 -67t29 -178q-23 -112 -102 -178t-186 -66t-158.5 66t-28.5 178zM191 239q-21 -105 4 -161.5t87 -56.5t111.5 56.5t71.5 161.5t-3.5 162t-88.5 57q-62 0 -111 -57t-71 -162zM236 605q4 25 24.5 42t46.5 17q25 0 38 -16.5
t8 -42.5q-6 -26 -26 -42.5t-45 -16.5t-38 17t-8 42zM453 605q5 26 25.5 42.5t45.5 16.5t38 -16.5t8 -42.5q-5 -25 -25 -42t-45 -17q-26 0 -39 17t-8 42z" />
    <glyph glyph-name="divide" unicode="&#xf7;" horiz-adv-x="442" 
d="M95 274l6 35h365l-6 -35h-365zM201 152q4 22 22 37.5t40 15.5t34 -15.5t7 -37.5q-5 -23 -23 -38t-40 -15t-33.5 15t-6.5 38zM258 431q4 22 22 37.5t40 15.5t34.5 -15t7.5 -38q-4 -22 -22.5 -37.5t-40.5 -15.5t-33.5 15.5t-7.5 37.5z" />
    <glyph glyph-name="oslash" unicode="&#xf8;" horiz-adv-x="558" 
d="M82 0h-41l73 66q-46 65 -24 173q23 112 102 178.5t186 66.5q92 0 144 -52l53 48h40l-76 -68q48 -67 26 -173q-23 -112 -102 -178t-186 -66q-92 0 -145 50zM465 239q14 68 8 113l-285 -256q21 -75 94 -75q62 0 111.5 56.5t71.5 161.5zM191 239q-13 -66 -9 -112l285 256
q-21 75 -94 75q-62 0 -111 -57t-71 -162z" />
    <glyph glyph-name="ugrave" unicode="&#xf9;" 
d="M97 415l-8 10q29 25 67.5 42.5t67.5 17.5q60 0 45 -70l-54 -261q-11 -55 4 -87.5t54 -32.5q34 0 76 25t77 71l72 350h86l10 -14l-80 -386q-9 -42 18 -42q23 0 53 27l7 -10q-29 -25 -66.5 -42.5t-67.5 -17.5q-60 0 -45 70l8 25l-2 4q-43 -47 -98.5 -73t-103.5 -26
q-65 0 -90.5 41.5t-11.5 107.5l53 256q9 42 -19 42q-20 0 -52 -27zM373 690l110 -140l-18 -15l-161 98z" />
    <glyph glyph-name="uacute" unicode="&#xfa;" 
d="M97 415l-8 10q29 25 67.5 42.5t67.5 17.5q60 0 45 -70l-54 -261q-11 -55 4 -87.5t54 -32.5q34 0 76 25t77 71l72 350h86l10 -14l-80 -386q-9 -42 18 -42q23 0 53 27l7 -10q-29 -25 -66.5 -42.5t-67.5 -17.5q-60 0 -45 70l8 25l-2 4q-43 -47 -98.5 -73t-103.5 -26
q-65 0 -90.5 41.5t-11.5 107.5l53 256q9 42 -19 42q-20 0 -52 -27zM327 550l167 140l44 -57l-199 -98z" />
    <glyph glyph-name="ucircumflex" unicode="&#xfb;" 
d="M97 415l-8 10q29 25 67.5 42.5t67.5 17.5q60 0 45 -70l-54 -261q-11 -55 4 -87.5t54 -32.5q34 0 76 25t77 71l72 350h86l10 -14l-80 -386q-9 -42 18 -42q23 0 53 27l7 -10q-29 -25 -66.5 -42.5t-67.5 -17.5q-60 0 -45 70l8 25l-2 4q-43 -47 -98.5 -73t-103.5 -26
q-65 0 -90.5 41.5t-11.5 107.5l53 256q9 42 -19 42q-20 0 -52 -27zM427 690h13l106 -140l-17 -15l-111 78l-142 -78l-12 15z" />
    <glyph glyph-name="udieresis" unicode="&#xfc;" 
d="M97 415l-8 10q29 25 67.5 42.5t67.5 17.5q60 0 45 -70l-54 -261q-11 -55 4 -87.5t54 -32.5q34 0 76 25t77 71l72 350h86l10 -14l-80 -386q-9 -42 18 -42q23 0 53 27l7 -10q-29 -25 -66.5 -42.5t-67.5 -17.5q-60 0 -45 70l8 25l-2 4q-43 -47 -98.5 -73t-103.5 -26
q-65 0 -90.5 41.5t-11.5 107.5l53 256q9 42 -19 42q-20 0 -52 -27zM249 605q5 25 25.5 42t45.5 17t38 -16.5t8 -42.5t-25.5 -42.5t-45.5 -16.5t-38 17t-8 42zM466 605q5 26 25.5 42.5t45.5 16.5t38 -16.5t8 -42.5q-5 -25 -25 -42t-45 -17q-26 0 -39 17t-8 42z" />
    <glyph glyph-name="yacute" unicode="&#xfd;" horiz-adv-x="555" 
d="M75 -156l-6 -32q3 -3 9 -3q20 0 78 49t121 125l-94 424q-8 35 -34 35q-23 0 -55 -27l-8 10q72 60 132 60q27 0 41 -15t22 -51l71 -358q21 26 53 67t89 127.5t65 126.5h-29q-22 0 -33.5 14.5t-7.5 36.5q5 22 23 36.5t40 14.5q25 0 38.5 -19.5t6.5 -53.5
q-12 -57 -82.5 -165t-158 -212.5t-180 -183t-141.5 -78.5q-25 0 -45 17t-13 51q5 25 21.5 38.5t37.5 13.5q22 0 33 -13.5t6 -34.5zM316 550l168 140l45 -57l-200 -98z" />
    <glyph glyph-name="thorn" unicode="&#xfe;" horiz-adv-x="569" 
d="M-18 -225l4 19l61 21l180 872l-53 14l5 22l144 18l11 -14l-51 -247l-14 -56l2 -3q71 63 169 63q91 0 126 -64.5t12 -171.5q-25 -121 -99.5 -187t-183.5 -66q-67 0 -106 27l-44 -208l86 -20l-4 -19h-245zM265 392l-71 -343q38 -29 92 -29q68 0 118 56t72 161
q19 97 -4.5 152.5t-84.5 55.5q-68 0 -122 -53z" />
    <glyph glyph-name="ydieresis" unicode="&#xff;" horiz-adv-x="555" 
d="M75 -156l-6 -32q3 -3 9 -3q20 0 78 49t121 125l-94 424q-8 35 -34 35q-23 0 -55 -27l-8 10q72 60 132 60q27 0 41 -15t22 -51l71 -358q21 26 53 67t89 127.5t65 126.5h-29q-22 0 -33.5 14.5t-7.5 36.5q5 22 23 36.5t40 14.5q25 0 38.5 -19.5t6.5 -53.5
q-12 -57 -82.5 -165t-158 -212.5t-180 -183t-141.5 -78.5q-25 0 -45 17t-13 51q5 25 21.5 38.5t37.5 13.5q22 0 33 -13.5t6 -34.5zM240 605q5 26 25 42.5t46 16.5q24 0 37 -17t8 -42t-25 -42t-45 -17q-26 0 -39 17t-7 42zM456 605q5 25 25.5 42t46.5 17q25 0 38 -16.5
t8 -42.5q-5 -25 -25.5 -42t-45.5 -17q-26 0 -39 17t-8 42z" />
    <glyph glyph-name="Amacron" unicode="&#x100;" horiz-adv-x="745" 
d="M539 700l140 -662l58 -19l-3 -19h-230l4 19l66 19l-39 194h-302l-121 -194l79 -19l-4 -19h-177l3 19l68 19l418 662h40zM461 595l-210 -335h277zM417 798l6 36h244l-7 -36h-243z" />
    <glyph glyph-name="amacron" unicode="&#x101;" horiz-adv-x="570" 
d="M571 65l7 -10q-29 -25 -66.5 -42.5t-67.5 -17.5q-61 0 -45 70l6 18l-2 3q-40 -43 -90.5 -66.5t-100.5 -23.5q-83 0 -114.5 64t-9.5 169q26 125 104 190t199 65q69 0 126 -23l54 26l10 -14l-81 -393q-9 -42 18 -42q23 0 53 27zM410 121l64 310q-39 27 -92 27
q-70 0 -119 -56t-71 -162q-20 -94 0 -150t74 -56q34 0 73 22.5t71 64.5zM284 578l8 36h243l-7 -36h-244z" />
    <glyph glyph-name="Abreve" unicode="&#x102;" horiz-adv-x="745" 
d="M539 700l140 -662l58 -19l-3 -19h-230l4 19l66 19l-39 194h-302l-121 -194l79 -19l-4 -19h-177l3 19l68 19l418 662h40zM461 595l-210 -335h277zM609 848q5 21 21 35t36 14t30 -13.5t6 -35.5q-8 -43 -61 -67.5t-112 -24.5t-101 25t-34 68q4 22 20.5 35t36.5 13t30 -14
t6 -35q-2 -25 -1 -38.5t12 -20t18 -8t18 -1.5q62 0 75 68z" />
    <glyph glyph-name="abreve" unicode="&#x103;" horiz-adv-x="570" 
d="M571 65l7 -10q-29 -25 -66.5 -42.5t-67.5 -17.5q-61 0 -45 70l6 18l-2 3q-40 -43 -90.5 -66.5t-100.5 -23.5q-83 0 -114.5 64t-9.5 169q26 125 104 190t199 65q69 0 126 -23l54 26l10 -14l-81 -393q-9 -42 18 -42q23 0 53 27zM410 121l64 310q-39 27 -92 27
q-70 0 -119 -56t-71 -162q-20 -94 0 -150t74 -56q34 0 73 22.5t71 64.5zM480 638q4 21 20 34.5t37 13.5q20 0 30 -13.5t5 -35.5q-8 -42 -61 -67t-112 -25q-58 0 -100.5 25t-34.5 68q5 22 20.5 35t35.5 13t31 -13.5t7 -34.5q-2 -25 -1 -39t12 -20.5t17.5 -8t17.5 -1.5
q63 0 76 69z" />
    <glyph glyph-name="Aogonek" unicode="&#x104;" horiz-adv-x="745" 
d="M692 -162l6 -9q-59 -47 -103 -47q-58 0 -46 62q16 77 112 156h-157l4 19l66 19l-39 194h-302l-121 -194l79 -19l-4 -19h-177l3 19l68 19l418 662h40l140 -662l58 -19l-3 -19h-51q-66 -70 -83 -142q-8 -43 30 -43q34 0 62 23zM461 595l-210 -335h277z" />
    <glyph glyph-name="aogonek" unicode="&#x105;" horiz-adv-x="570" 
d="M529 -147l6 -8q-57 -47 -102 -47q-58 0 -46 62q15 70 94 141q-19 -6 -37 -6q-61 0 -45 70l6 18l-2 3q-40 -43 -90.5 -66.5t-100.5 -23.5q-83 0 -114.5 64t-9.5 169q26 125 104 190t199 65q69 0 126 -23l54 26l10 -14l-81 -393q-9 -42 18 -42q23 0 53 27l7 -10
q-27 -24 -59 -39q-31 -34 -53 -74t-28 -68q-8 -43 29 -43q33 0 62 22zM410 121l64 310q-39 27 -92 27q-70 0 -119 -56t-71 -162q-20 -94 0 -150t74 -56q34 0 73 22.5t71 64.5z" />
    <glyph glyph-name="Cacute" unicode="&#x106;" horiz-adv-x="695" 
d="M647 113l14 -16q-121 -103 -277 -103q-153 0 -224.5 95.5t-37.5 259.5t145 260.5t262 96.5q119 0 187 -56l42 23l9 -12l-21 -137h-25q-3 46 -21.5 78t-47.5 47t-55 20.5t-55 5.5q-116 0 -197.5 -83t-114.5 -240q-30 -148 17.5 -233.5t176.5 -85.5t223 80zM465 761
l167 139l45 -57l-200 -98z" />
    <glyph glyph-name="cacute" unicode="&#x107;" horiz-adv-x="521" 
d="M439 364l14 69q-29 25 -78 25q-65 0 -113 -55t-68 -151q-22 -106 11 -163.5t116 -57.5q84 0 146 53l14 -17q-85 -72 -202 -72q-113 0 -163 66t-26 178q23 114 98.5 179.5t188.5 65.5q78 0 127.5 -32t38.5 -87q-6 -27 -23.5 -41.5t-38.5 -14.5q-23 0 -35 15t-7 40z
M311 550l168 140l45 -57l-200 -98z" />
    <glyph glyph-name="Ccircumflex" unicode="&#x108;" horiz-adv-x="695" 
d="M647 113l14 -16q-121 -103 -277 -103q-153 0 -224.5 95.5t-37.5 259.5t145 260.5t262 96.5q119 0 187 -56l42 23l9 -12l-21 -137h-25q-3 46 -21.5 78t-47.5 47t-55 20.5t-55 5.5q-116 0 -197.5 -83t-114.5 -240q-30 -148 17.5 -233.5t176.5 -85.5t223 80zM562 900h13
l106 -139l-17 -16l-111 79l-142 -79l-12 16z" />
    <glyph glyph-name="ccircumflex" unicode="&#x109;" horiz-adv-x="521" 
d="M439 364l14 69q-29 25 -78 25q-65 0 -113 -55t-68 -151q-22 -106 11 -163.5t116 -57.5q84 0 146 53l14 -17q-85 -72 -202 -72q-113 0 -163 66t-26 178q23 114 98.5 179.5t188.5 65.5q78 0 127.5 -32t38.5 -87q-6 -27 -23.5 -41.5t-38.5 -14.5q-23 0 -35 15t-7 40z
M412 690h13l106 -140l-17 -15l-110 78l-143 -78l-13 15z" />
    <glyph glyph-name="Cdotaccent" unicode="&#x10a;" horiz-adv-x="695" 
d="M647 113l14 -16q-121 -103 -277 -103q-153 0 -224.5 95.5t-37.5 259.5t145 260.5t262 96.5q119 0 187 -56l42 23l9 -12l-21 -137h-25q-3 46 -21.5 78t-47.5 47t-55 20.5t-55 5.5q-116 0 -197.5 -83t-114.5 -240q-30 -148 17.5 -233.5t176.5 -85.5t223 80zM490 834
q5 26 26.5 44t47.5 18q27 0 41 -18t9 -44q-5 -27 -26.5 -45t-48.5 -18q-26 0 -40 18t-9 45z" />
    <glyph glyph-name="cdotaccent" unicode="&#x10b;" horiz-adv-x="521" 
d="M439 364l14 69q-29 25 -78 25q-65 0 -113 -55t-68 -151q-22 -106 11 -163.5t116 -57.5q84 0 146 53l14 -17q-85 -72 -202 -72q-113 0 -163 66t-26 178q23 114 98.5 179.5t188.5 65.5q78 0 127.5 -32t38.5 -87q-6 -27 -23.5 -41.5t-38.5 -14.5q-23 0 -35 15t-7 40z
M342 624q5 26 27 44t48 18q27 0 41 -18t8 -44q-5 -27 -26.5 -45t-47.5 -18t-40.5 18t-9.5 45z" />
    <glyph glyph-name="Ccaron" unicode="&#x10c;" horiz-adv-x="695" 
d="M647 113l14 -16q-121 -103 -277 -103q-153 0 -224.5 95.5t-37.5 259.5t145 260.5t262 96.5q119 0 187 -56l42 23l9 -12l-21 -137h-25q-3 46 -21.5 78t-47.5 47t-55 20.5t-55 5.5q-116 0 -197.5 -83t-114.5 -240q-30 -148 17.5 -233.5t176.5 -85.5t223 80zM542 745h-13
l-107 140l19 15l110 -78l142 78l12 -15z" />
    <glyph glyph-name="ccaron" unicode="&#x10d;" horiz-adv-x="521" 
d="M439 364l14 69q-29 25 -78 25q-65 0 -113 -55t-68 -151q-22 -106 11 -163.5t116 -57.5q84 0 146 53l14 -17q-85 -72 -202 -72q-113 0 -163 66t-26 178q23 114 98.5 179.5t188.5 65.5q78 0 127.5 -32t38.5 -87q-6 -27 -23.5 -41.5t-38.5 -14.5q-23 0 -35 15t-7 40z
M394 535h-13l-108 140l19 15l111 -78l142 78l12 -15z" />
    <glyph glyph-name="Dcaron" unicode="&#x10e;" horiz-adv-x="716" 
d="M173 700h303q150 0 222 -94t39 -256q-33 -163 -143.5 -256.5t-260.5 -93.5h-304l2 16l67 16l131 635l-60 17zM470 671h-138l-133 -644h138q102 0 181 83t111 239q31 156 -13 239t-146 83zM507 745h-13l-106 140l18 15l110 -78l142 78l12 -15z" />
    <glyph glyph-name="dcaron" unicode="&#x10f;" horiz-adv-x="669" 
d="M571 65l7 -10q-29 -25 -66.5 -42.5t-67.5 -17.5q-61 0 -45 70l7 21l-3 3q-40 -44 -90.5 -69t-100.5 -25q-83 0 -114.5 64t-9.5 170q25 122 100 188.5t185 66.5q64 0 106 -28l48 235l-55 14l4 18l147 19l11 -14l-134 -648q-9 -42 18 -42q23 0 53 27zM410 121l63 308
q-40 29 -91 29q-69 0 -118.5 -56.5t-71.5 -161.5q-20 -94 -0.5 -150t72.5 -56q35 0 74.5 22.5t71.5 64.5zM688 546l-10 12q21 17 38.5 40.5t19.5 36.5v9q-20 0 -31.5 13t-7.5 34q5 21 21 34.5t38 13.5q19 0 30 -14t5 -42q-12 -61 -103 -137z" />
    <glyph glyph-name="Dcroat" unicode="&#x110;" horiz-adv-x="716" 
d="M99 340l2 15l66 13l62 299l-60 17l4 16h303q150 0 222 -94t39 -256q-33 -163 -143.5 -256.5t-260.5 -93.5h-304l2 16l67 16l64 308h-63zM470 671h-138l-63 -303h164l-5 -28h-164l-65 -313h138q102 0 181 83t111 239q31 156 -13 239t-146 83z" />
    <glyph glyph-name="dcroat" unicode="&#x111;" horiz-adv-x="570" 
d="M571 65l7 -10q-29 -25 -66.5 -42.5t-67.5 -17.5q-61 0 -45 70l7 21l-3 3q-40 -44 -90.5 -69t-100.5 -25q-83 0 -114.5 64t-9.5 170q25 122 100 188.5t185 66.5q64 0 106 -28l27 130h-175l5 29h175l16 76l-55 14l4 18l147 19l11 -14l-24 -113l53 -13l-3 -16h-56l-104 -506
q-9 -42 18 -42q23 0 53 27zM410 121l63 308q-40 29 -91 29q-69 0 -118.5 -56.5t-71.5 -161.5q-20 -94 -0.5 -150t72.5 -56q35 0 74.5 22.5t71.5 64.5z" />
    <glyph glyph-name="Emacron" unicode="&#x112;" horiz-adv-x="612" 
d="M199 27h300l61 99h25l-31 -126h-525l2 16l67 16l131 635l-60 17l4 16h516l-21 -126h-25l-21 97h-290l-61 -297h231l34 75h23l-35 -177h-24l-4 74h-231zM348 798l7 36h243l-6 -36h-244z" />
    <glyph glyph-name="emacron" unicode="&#x113;" horiz-adv-x="506" 
d="M190 230q-40 -198 133 -198q86 0 148 52l14 -17q-85 -72 -203 -72q-115 0 -165 67t-27 178q23 114 102.5 179t196.5 65q79 0 118 -32t27 -93q-5 -27 -21 -47t-52 -38.5t-104 -29.5t-167 -14zM375 458q-57 0 -107.5 -52t-73.5 -151q118 4 179.5 28t72.5 80q8 40 -10 67.5
t-61 27.5zM274 578l8 36h243l-7 -36h-244z" />
    <glyph glyph-name="Ebreve" unicode="&#x114;" horiz-adv-x="612" 
d="M199 27h300l61 99h25l-31 -126h-525l2 16l67 16l131 635l-60 17l4 16h516l-21 -126h-25l-21 97h-290l-61 -297h231l34 75h23l-35 -177h-24l-4 74h-231zM541 848q5 21 20.5 35t36.5 14q20 0 30 -13.5t6 -35.5q-9 -43 -62 -67.5t-112 -24.5t-101 25t-33 68q4 22 20 35
t35 13q20 0 31 -14t7 -35q-2 -25 -1 -38.5t12 -20t18 -8t18 -1.5q62 0 75 68z" />
    <glyph glyph-name="ebreve" unicode="&#x115;" horiz-adv-x="506" 
d="M190 230q-40 -198 133 -198q86 0 148 52l14 -17q-85 -72 -203 -72q-115 0 -165 67t-27 178q23 114 102.5 179t196.5 65q79 0 118 -32t27 -93q-5 -27 -21 -47t-52 -38.5t-104 -29.5t-167 -14zM375 458q-57 0 -107.5 -52t-73.5 -151q118 4 179.5 28t72.5 80q8 40 -10 67.5
t-61 27.5zM469 638q4 21 20.5 34.5t36.5 13.5t30 -13t6 -36q-8 -42 -61 -67t-112 -25t-101 25t-34 68q4 22 19.5 35t35.5 13q21 0 32 -13.5t7 -34.5q-2 -17 -3 -28.5t4 -19t9 -12t12 -6.5t12.5 -2.5t11.5 -0.5q62 0 75 69z" />
    <glyph glyph-name="Edotaccent" unicode="&#x116;" horiz-adv-x="612" 
d="M199 27h300l61 99h25l-31 -126h-525l2 16l67 16l131 635l-60 17l4 16h516l-21 -126h-25l-21 97h-290l-61 -297h231l34 75h23l-35 -177h-24l-4 74h-231zM415 834q5 26 26.5 44t47.5 18q27 0 40.5 -18t8.5 -44q-5 -27 -26 -45t-48 -18q-26 0 -40 18t-9 45z" />
    <glyph glyph-name="edotaccent" unicode="&#x117;" horiz-adv-x="506" 
d="M190 230q-40 -198 133 -198q86 0 148 52l14 -17q-85 -72 -203 -72q-115 0 -165 67t-27 178q23 114 102.5 179t196.5 65q79 0 118 -32t27 -93q-5 -27 -21 -47t-52 -38.5t-104 -29.5t-167 -14zM375 458q-57 0 -107.5 -52t-73.5 -151q118 4 179.5 28t72.5 80q8 40 -10 67.5
t-61 27.5zM343 624q6 26 27.5 44t47.5 18q27 0 40.5 -18t7.5 -44q-5 -27 -25.5 -45t-47.5 -18q-26 0 -40.5 18t-9.5 45z" />
    <glyph glyph-name="Eogonek" unicode="&#x118;" horiz-adv-x="612" 
d="M520 -162l6 -9q-59 -47 -102 -47q-59 0 -47 62q16 78 113 156h-461l2 16l67 16l131 635l-60 17l4 16h516l-21 -126h-25l-21 97h-290l-61 -297h231l34 75h23l-35 -177h-24l-4 74h-231l-66 -319h300l61 99h25l-31 -126h-44q-32 -35 -53.5 -74.5t-27.5 -67.5q-8 -43 29 -43
q34 0 62 23z" />
    <glyph glyph-name="eogonek" unicode="&#x119;" horiz-adv-x="506" 
d="M435 -132l7 -8q-57 -47 -103 -47q-58 0 -46 62q13 65 86 134q-47 -14 -97 -14q-115 0 -165 67t-27 178q23 114 102.5 179t196.5 65q79 0 118 -32t27 -93q-5 -27 -21 -47t-52 -38.5t-104 -29.5t-167 -14q-40 -198 133 -198q86 0 148 52l14 -17q-31 -26 -65 -42
q-64 -73 -76 -136q-8 -43 29 -43q35 0 62 22zM375 458q-57 0 -107.5 -52t-73.5 -151q118 4 179.5 28t72.5 80q8 40 -10 67.5t-61 27.5z" />
    <glyph glyph-name="Ecaron" unicode="&#x11a;" horiz-adv-x="612" 
d="M199 27h300l61 99h25l-31 -126h-525l2 16l67 16l131 635l-60 17l4 16h516l-21 -126h-25l-21 97h-290l-61 -297h231l34 75h23l-35 -177h-24l-4 74h-231zM466 745h-14l-106 140l19 15l109 -78l143 78l12 -15z" />
    <glyph glyph-name="ecaron" unicode="&#x11b;" horiz-adv-x="506" 
d="M190 230q-40 -198 133 -198q86 0 148 52l14 -17q-85 -72 -203 -72q-115 0 -165 67t-27 178q23 114 102.5 179t196.5 65q79 0 118 -32t27 -93q-5 -27 -21 -47t-52 -38.5t-104 -29.5t-167 -14zM375 458q-57 0 -107.5 -52t-73.5 -151q118 4 179.5 28t72.5 80q8 40 -10 67.5
t-61 27.5zM395 535h-14l-107 140l19 15l110 -78l143 78l10 -15z" />
    <glyph glyph-name="Gcircumflex" unicode="&#x11c;" horiz-adv-x="737" 
d="M707 297l-54 -261l-15 -13l-45 25q-94 -54 -208 -54q-155 0 -226 95.5t-37 259.5t145 260.5t263 96.5q119 0 187 -56l43 23l9 -12l-21 -137h-26q-2 46 -21 78.5t-48 47t-55 20t-55 5.5q-117 0 -198.5 -83.5t-114.5 -241.5q-30 -147 14.5 -234t163.5 -87q86 0 151 44
l47 225l-60 19l4 19h227l-4 -19zM564 900h14l106 -139l-18 -16l-110 79l-142 -79l-12 16z" />
    <glyph glyph-name="gcircumflex" unicode="&#x11d;" horiz-adv-x="551" 
d="M530 441h-39q50 -45 34 -119q-15 -72 -79 -114.5t-154 -42.5q-70 0 -114 26q-31 -32 -37 -64q-6 -26 10 -39.5t54 -13.5h151q83 0 115 -34t20 -98q-34 -170 -305 -170q-97 0 -144.5 23.5t-37.5 71.5q12 67 117 123q-60 20 -47 92q12 56 87 120q-55 43 -38 120
q16 73 80.5 116.5t153.5 43.5q12 0 34 -2h210l-4 -19zM182 -18q-12 0 -30 2q-50 -46 -59 -95q-10 -50 20 -70.5t96 -20.5q86 0 141.5 29t66.5 81q7 32 -9 53t-60 21h-166zM220 324q-13 -66 8 -101t68 -35q48 0 84 35.5t49 100.5q14 64 -7.5 99t-68.5 35t-83.5 -35t-49.5 -99
zM393 690h14l105 -140l-17 -15l-110 78l-143 -78l-12 15z" />
    <glyph glyph-name="Gbreve" unicode="&#x11e;" horiz-adv-x="737" 
d="M707 297l-54 -261l-15 -13l-45 25q-94 -54 -208 -54q-155 0 -226 95.5t-37 259.5t145 260.5t263 96.5q119 0 187 -56l43 23l9 -12l-21 -137h-26q-2 46 -21 78.5t-48 47t-55 20t-55 5.5q-117 0 -198.5 -83.5t-114.5 -241.5q-30 -147 14.5 -234t163.5 -87q86 0 151 44
l47 225l-60 19l4 19h227l-4 -19zM619 848q5 21 21 35t36 14t30 -13.5t6 -35.5q-9 -43 -62 -67.5t-112 -24.5q-58 0 -100.5 25t-34.5 68q5 22 21 35t35 13q20 0 31 -14t7 -35q-2 -25 -1 -38.5t12 -20t18 -8t18 -1.5q61 0 75 68z" />
    <glyph glyph-name="gbreve" unicode="&#x11f;" horiz-adv-x="551" 
d="M530 441h-39q50 -45 34 -119q-15 -72 -79 -114.5t-154 -42.5q-70 0 -114 26q-31 -32 -37 -64q-6 -26 10 -39.5t54 -13.5h151q83 0 115 -34t20 -98q-34 -170 -305 -170q-97 0 -144.5 23.5t-37.5 71.5q12 67 117 123q-60 20 -47 92q12 56 87 120q-55 43 -38 120
q16 73 80.5 116.5t153.5 43.5q12 0 34 -2h210l-4 -19zM182 -18q-12 0 -30 2q-50 -46 -59 -95q-10 -50 20 -70.5t96 -20.5q86 0 141.5 29t66.5 81q7 32 -9 53t-60 21h-166zM220 324q-13 -66 8 -101t68 -35q48 0 84 35.5t49 100.5q14 64 -7.5 99t-68.5 35t-83.5 -35t-49.5 -99
zM451 638q4 21 20 34.5t36 13.5t31 -13.5t6 -35.5q-8 -42 -61.5 -67t-111.5 -25q-59 0 -101 25t-34 68q4 22 19.5 35t35.5 13t31 -13.5t7 -34.5q-2 -25 -1 -39t12 -20.5t18 -8t18 -1.5q61 0 75 69z" />
    <glyph glyph-name="Gdotaccent" unicode="&#x120;" horiz-adv-x="737" 
d="M707 297l-54 -261l-15 -13l-45 25q-94 -54 -208 -54q-155 0 -226 95.5t-37 259.5t145 260.5t263 96.5q119 0 187 -56l43 23l9 -12l-21 -137h-26q-2 46 -21 78.5t-48 47t-55 20t-55 5.5q-117 0 -198.5 -83.5t-114.5 -241.5q-30 -147 14.5 -234t163.5 -87q86 0 151 44
l47 225l-60 19l4 19h227l-4 -19zM493 834q5 26 26.5 44t47.5 18q27 0 40.5 -18t8.5 -44q-5 -27 -26 -45t-48 -18q-26 0 -40 18t-9 45z" />
    <glyph glyph-name="gdotaccent" unicode="&#x121;" horiz-adv-x="551" 
d="M530 441h-39q50 -45 34 -119q-15 -72 -79 -114.5t-154 -42.5q-70 0 -114 26q-31 -32 -37 -64q-6 -26 10 -39.5t54 -13.5h151q83 0 115 -34t20 -98q-34 -170 -305 -170q-97 0 -144.5 23.5t-37.5 71.5q12 67 117 123q-60 20 -47 92q12 56 87 120q-55 43 -38 120
q16 73 80.5 116.5t153.5 43.5q12 0 34 -2h210l-4 -19zM182 -18q-12 0 -30 2q-50 -46 -59 -95q-10 -50 20 -70.5t96 -20.5q86 0 141.5 29t66.5 81q7 32 -9 53t-60 21h-166zM220 324q-13 -66 8 -101t68 -35q48 0 84 35.5t49 100.5q14 64 -7.5 99t-68.5 35t-83.5 -35t-49.5 -99
zM325 624q5 26 26.5 44t47.5 18q27 0 41 -18t8 -44q-5 -27 -26 -45t-48 -18q-26 0 -40 18t-9 45z" />
    <glyph glyph-name="Gcommaaccent" unicode="&#x122;" horiz-adv-x="737" 
d="M707 297l-54 -261l-15 -13l-45 25q-94 -54 -208 -54q-155 0 -226 95.5t-37 259.5t145 260.5t263 96.5q119 0 187 -56l43 23l9 -12l-21 -137h-26q-2 46 -21 78.5t-48 47t-55 20t-55 5.5q-117 0 -198.5 -83.5t-114.5 -241.5q-30 -147 14.5 -234t163.5 -87q86 0 151 44
l47 225l-60 19l4 19h227l-4 -19zM307 -250l-10 12q21 17 38.5 40.5t19.5 36.5q1 6 0 9q-20 0 -31 13.5t-7 33.5q4 21 20.5 34.5t37.5 13.5q20 0 31 -14t4 -42q-13 -61 -103 -137z" />
    <glyph glyph-name="gcommaaccent" unicode="&#x123;" horiz-adv-x="551" 
d="M530 441h-39q50 -45 34 -119q-15 -72 -79 -114.5t-154 -42.5q-70 0 -114 26q-31 -32 -37 -64q-6 -26 10 -39.5t54 -13.5h151q83 0 115 -34t20 -98q-34 -170 -305 -170q-97 0 -144.5 23.5t-37.5 71.5q12 67 117 123q-60 20 -47 92q12 56 87 120q-55 43 -38 120
q16 73 80.5 116.5t153.5 43.5q12 0 34 -2h210l-4 -19zM182 -18q-12 0 -30 2q-50 -46 -59 -95q-10 -50 20 -70.5t96 -20.5q86 0 141.5 29t66.5 81q7 32 -9 53t-60 21h-166zM220 324q-13 -66 8 -101t68 -35q48 0 84 35.5t49 100.5q14 64 -7.5 99t-68.5 35t-83.5 -35t-49.5 -99
zM434 725l10 -13q-20 -17 -37.5 -40.5t-20.5 -36.5q-1 -5 1 -9q20 0 31 -13t7 -34q-5 -20 -21.5 -34t-36.5 -14t-31 13.5t-5 42.5q13 62 103 138z" />
    <glyph glyph-name="Hcircumflex" unicode="&#x124;" horiz-adv-x="747" 
d="M32 19l68 22l128 621l-59 19l4 19h229l-4 -19l-68 -20l-60 -292h358l60 293l-59 19l4 19h229l-4 -19l-68 -20l-128 -623l60 -19l-4 -19h-229l4 19l67 22l62 300h-358l-62 -303l59 -19l-3 -19h-229zM551 900h13l107 -139l-19 -16l-110 79l-142 -79l-12 16z" />
    <glyph glyph-name="hcircumflex" unicode="&#x125;" horiz-adv-x="588" 
d="M589 65l8 -10q-30 -25 -67.5 -42.5t-66.5 -17.5q-61 0 -46 70l49 240q15 62 1 101t-56 39q-32 0 -76 -25.5t-78 -68.5l-73 -351h-85l-11 13l140 678l-56 14l4 18l147 19l11 -14l-51 -248l-22 -90l2 -3q44 46 100.5 71.5t103.5 25.5q67 0 91.5 -46t8.5 -122l-48 -236
q-10 -42 18 -42q22 0 52 27zM481 916h13l106 -140l-19 -15l-109 78l-142 -78l-12 15z" />
    <glyph glyph-name="Hbar" unicode="&#x126;" horiz-adv-x="731" 
d="M134 503l2 15l65 13l27 131l-60 19l4 19h229l-3 -19l-68 -20l-27 -130h343l26 131l-59 19l4 19h229l-4 -19l-67 -20l-27 -130l60 -13l-3 -15h-63l-96 -465l59 -19l-3 -19h-229l4 19l67 22l62 300h-342l-63 -303l60 -19l-3 -19h-230l4 19l68 22l95 462h-61zM269 369h343
l28 134h-343z" />
    <glyph glyph-name="hbar" unicode="&#x127;" horiz-adv-x="588" 
d="M589 65l8 -10q-30 -25 -67.5 -42.5t-66.5 -17.5q-61 0 -46 70l49 240q15 62 1 101t-56 39q-32 0 -76 -25.5t-78 -68.5l-73 -351h-85l-11 13l116 566h-58l4 16l61 12l17 84l-56 14l4 18l147 19l11 -14l-25 -121h187l-6 -28h-187l-20 -99l-22 -90l2 -3q44 46 100.5 71.5
t103.5 25.5q67 0 91.5 -46t8.5 -122l-48 -236q-10 -42 18 -42q22 0 52 27z" />
    <glyph glyph-name="Itilde" unicode="&#x128;" horiz-adv-x="287" 
d="M330 661l-129 -623l58 -19l-3 -19h-227l4 19l68 22l128 621l-60 19l4 19h226l-3 -19zM153 767l-13 16q101 84 138 84q21 0 50 -23t52 -23q40 0 92 45l12 -15q-104 -87 -141 -87q-20 0 -49.5 23t-52.5 23q-36 0 -88 -43z" />
    <glyph glyph-name="itilde" unicode="&#x129;" horiz-adv-x="270" 
d="M102 557l-12 16q98 84 137 84q21 0 49.5 -23t51.5 -23q40 0 92 44l13 -15q-102 -86 -142 -86q-19 0 -48.5 23t-53.5 23q-35 0 -87 -43zM97 415l-8 10q29 25 67 42.5t68 17.5q60 0 45 -70l-68 -335q-10 -42 17 -42q21 0 53 27l8 -10q-30 -25 -67.5 -42.5t-67.5 -17.5
q-60 0 -45 70l69 335q9 42 -19 42q-20 0 -52 -27z" />
    <glyph glyph-name="Imacron" unicode="&#x12a;" horiz-adv-x="287" 
d="M330 661l-129 -623l58 -19l-3 -19h-227l4 19l68 22l128 621l-60 19l4 19h227l-4 -19zM186 798l7 36h243l-6 -36h-244z" />
    <glyph glyph-name="imacron" unicode="&#x12b;" horiz-adv-x="270" 
d="M132 578l7 36h244l-8 -36h-243zM97 415l-8 10q29 25 67 42.5t68 17.5q60 0 45 -70l-68 -335q-10 -42 17 -42q21 0 53 27l8 -10q-30 -25 -67.5 -42.5t-67.5 -17.5q-60 0 -45 70l69 335q9 42 -19 42q-20 0 -52 -27z" />
    <glyph glyph-name="Ibreve" unicode="&#x12c;" horiz-adv-x="285" 
d="M329 661l-129 -623l58 -19l-3 -19h-227l4 19l68 22l128 621l-60 19l4 19h227l-4 -19zM378 848q5 21 21 35t36 14t30 -13.5t6 -35.5q-6 -29 -34.5 -50.5t-65 -31.5t-73.5 -10q-59 0 -101.5 25t-33.5 68q4 22 20.5 35t35.5 13q20 0 30.5 -14t6.5 -35q-2 -25 -1 -38.5
t12 -20t18 -8t18 -1.5q62 0 75 68z" />
    <glyph glyph-name="ibreve" unicode="&#x12d;" horiz-adv-x="270" 
d="M313 638q4 21 20.5 34.5t36.5 13.5t30 -13t6 -36q-8 -42 -61.5 -67t-111.5 -25q-59 0 -101 25t-34 68q4 22 19.5 35t35.5 13t31.5 -13.5t7.5 -34.5q-2 -17 -3 -28.5t4 -19t9 -12t12 -6.5t12.5 -2.5t11.5 -0.5q62 0 75 69zM96 415l-8 10q30 25 68 42.5t67 17.5
q61 0 46 -70l-68 -335q-10 -42 17 -42q21 0 53 27l8 -10q-30 -25 -68 -42.5t-67 -17.5q-60 0 -45 70l69 335q9 42 -20 42q-18 0 -52 -27z" />
    <glyph glyph-name="Iogonek" unicode="&#x12e;" horiz-adv-x="286" 
d="M214 -162l6 -9q-59 -47 -102 -47q-59 0 -47 62q16 78 113 156h-155l4 19l68 22l128 621l-60 19l4 19h227l-4 -19l-66 -20l-129 -623l58 -19l-3 -19h-52q-32 -35 -53.5 -74.5t-27.5 -67.5q-8 -43 28 -43q35 0 63 23z" />
    <glyph glyph-name="iogonek" unicode="&#x12f;" horiz-adv-x="271" 
d="M222 -150l5 -8q-57 -47 -102 -47q-58 0 -45 62q13 70 95 142q-22 -4 -30 -4q-61 0 -46 70l69 335q9 42 -19 42q-20 0 -52 -27l-8 10q29 25 67.5 42.5t67.5 17.5q60 0 45 -70l-68 -335q-10 -42 18 -42q20 0 52 27l8 -10q-30 -26 -68 -43q-32 -34 -53.5 -74t-26.5 -67
q-9 -43 28 -43q33 0 63 22zM190 624q6 28 29 47t51 19t43 -19t8 -47q-5 -29 -27 -48t-51 -19t-44 19t-9 48z" />
    <glyph glyph-name="Idotaccent" unicode="&#x130;" horiz-adv-x="286" 
d="M330 661l-129 -623l58 -19l-3 -19h-227l4 19l68 22l128 621l-60 19l4 19h227l-4 -19zM253 834q5 26 26 44t48 18t40.5 -18t8.5 -44q-5 -27 -26 -45t-48 -18t-40.5 18t-8.5 45z" />
    <glyph glyph-name="dotlessi" unicode="&#x131;" horiz-adv-x="271" 
d="M97 415l-8 10q29 25 67.5 42.5t67.5 17.5q60 0 45 -70l-68 -335q-10 -42 18 -42q20 0 52 27l8 -10q-30 -25 -67.5 -42.5t-66.5 -17.5q-61 0 -46 70l69 335q9 42 -19 42q-20 0 -52 -27z" />
    <glyph glyph-name="IJ" unicode="&#x132;" horiz-adv-x="568" 
d="M330 661l-129 -623l58 -19l-3 -19h-227l4 19l68 22l128 621l-60 19l4 19h227l-4 -19zM376 8l135 654l-60 19l4 19h226l-4 -19l-66 -20l-135 -653q-31 -151 -202 -239l-14 17q86 83 116 222z" />
    <glyph glyph-name="ij" unicode="&#x133;" horiz-adv-x="538" 
d="M97 415l-8 10q29 25 67.5 42.5t67.5 17.5q60 0 45 -70l-68 -335q-10 -42 18 -42q20 0 52 27l8 -10q-30 -25 -67.5 -42.5t-66.5 -17.5q-61 0 -46 70l69 335q9 42 -19 42q-20 0 -52 -27zM190 624q6 28 29 47t51 19t43 -19t8 -47q-5 -29 -27 -48t-51 -19t-44 19t-9 48z
M257 -167l-7 -34q62 0 105 209l81 392q9 42 -18 42q-21 0 -53 -27l-8 10q29 25 67 42.5t68 17.5q60 0 45 -70l-83 -407q-23 -112 -82 -175t-139 -63q-45 0 -63 18t-12 45q4 24 21.5 38t38.5 14t32 -14.5t7 -37.5zM458 624q6 28 28.5 47t50.5 19q29 0 44 -19t8 -47
q-5 -29 -27.5 -48t-51.5 -19q-28 0 -43 19t-9 48z" />
    <glyph glyph-name="Jcircumflex" unicode="&#x134;" horiz-adv-x="286" 
d="M94 8l134 654l-59 19l4 19h226l-4 -19l-66 -20l-135 -653q-31 -152 -201 -239l-14 17q85 82 115 222zM321 900h13l106 -139l-18 -16l-110 79l-142 -79l-12 16z" />
    <glyph glyph-name="jcircumflex" unicode="&#x135;" horiz-adv-x="270" 
d="M-10 -167l-7 -34q61 0 104 209l81 392q9 42 -18 42q-20 0 -54 -27l-7 10q29 25 67 42.5t68 17.5q60 0 45 -70l-83 -407q-23 -112 -81.5 -175t-138.5 -63q-45 0 -63 18t-12 45q4 24 21.5 38t38.5 14t32 -14.5t7 -37.5zM270 690h13l106 -140l-18 -15l-110 78l-142 -78
l-12 15z" />
    <glyph glyph-name="Kcommaaccent" unicode="&#x136;" horiz-adv-x="675" 
d="M327 661l-71 -342l389 343l-77 19l3 19h187l-3 -19l-70 -19l-255 -227l174 -399l58 -17l-4 -19h-152l-160 366l-98 -87l-50 -241l60 -19l-3 -19h-230l4 19l68 22l128 621l-59 19l3 19h229l-3 -19zM257 -250l-10 12q21 17 38.5 40.5t19.5 36.5q1 6 0 9q-20 0 -31 13.5
t-7 33.5q4 21 21 34.5t37 13.5t31 -14t5 -42q-12 -60 -104 -137z" />
    <glyph glyph-name="kcommaaccent" unicode="&#x137;" horiz-adv-x="524" 
d="M334 728l-150 -728h-85l-11 13l140 678l-56 14l4 18l147 19zM458 421l5 28q-60 -11 -149 -137l124 -239q16 -35 42 -35q21 0 52 27l8 -10q-69 -59 -123 -59q-26 0 -45 14.5t-36 50.5l-89 181q1 1 19 30t32 50.5t40 54t49.5 54t54.5 37.5t59 16q32 0 48.5 -18t11.5 -45
q-5 -23 -23 -37.5t-39 -14.5q-22 0 -34 14.5t-7 37.5zM187 -250l-9 12q20 17 37 40.5t20 36.5q1 6 0 9q-20 0 -31 13.5t-7 33.5q5 21 21 34.5t37 13.5q20 0 31 -14t4 -42q-13 -64 -103 -137z" />
    <glyph glyph-name="Lacute" unicode="&#x139;" horiz-adv-x="583" 
d="M199 27h270l61 99h25l-31 -126h-495l2 16l67 16l130 630l-59 19l4 19h229l-4 -19l-68 -20zM222 761l167 139l44 -57l-200 -98z" />
    <glyph glyph-name="lacute" unicode="&#x13a;" horiz-adv-x="270" 
d="M272 65l7 -10q-30 -25 -67.5 -42.5t-67.5 -17.5q-60 0 -45 70l128 624l-53 15l4 19l145 19l11 -14l-133 -648q-10 -42 17 -42q22 0 54 27zM217 774l166 140l45 -57l-200 -98z" />
    <glyph glyph-name="Lcommaaccent" unicode="&#x13b;" horiz-adv-x="583" 
d="M199 27h270l61 99h25l-31 -126h-495l2 16l67 16l130 630l-59 19l4 19h229l-4 -19l-68 -20zM213 -250l-10 12q20 17 37.5 40.5t20.5 36.5q2 6 -1 9q-20 0 -31 13.5t-7 33.5q5 21 21 34.5t38 13.5q19 0 30 -14t4 -42q-13 -62 -102 -137z" />
    <glyph glyph-name="lcommaaccent" unicode="&#x13c;" horiz-adv-x="270" 
d="M272 65l7 -10q-30 -25 -67.5 -42.5t-67.5 -17.5q-60 0 -45 70l128 624l-53 15l4 19l145 19l11 -14l-133 -648q-10 -42 17 -42q22 0 54 27zM55 -250l-10 12q20 17 37.5 40.5t20.5 36.5q2 6 -1 9q-20 0 -30.5 13.5t-6.5 33.5q4 21 20.5 34.5t37.5 13.5q20 0 31 -14t4 -42
q-13 -64 -103 -137z" />
    <glyph glyph-name="Lcaron" unicode="&#x13d;" horiz-adv-x="583" 
d="M199 27h270l61 99h25l-31 -126h-495l2 16l67 16l130 630l-59 19l4 19h229l-4 -19l-68 -20zM302 739h-13l-106 140l18 15l110 -78l142 78l12 -15z" />
    <glyph glyph-name="lcaron" unicode="&#x13e;" horiz-adv-x="367" 
d="M272 65l7 -10q-30 -25 -67.5 -42.5t-67.5 -17.5q-60 0 -45 70l128 624l-53 15l4 19l145 19l11 -14l-133 -648q-10 -42 17 -42q22 0 54 27zM385 545l-10 12q20 17 37.5 40.5t19.5 36.5q2 6 0 9q-20 0 -31 13.5t-7 33.5q5 21 21 34.5t37 13.5q20 0 31 -14t5 -42
q-11 -60 -103 -137z" />
    <glyph glyph-name="Ldot" unicode="&#x13f;" horiz-adv-x="583" 
d="M199 27h270l61 99h25l-31 -126h-495l2 16l67 16l130 630l-59 19l4 19h229l-4 -19l-68 -20zM447 350q5 24 25 41t43 17q25 0 38.5 -17t8.5 -41q-5 -25 -25 -42t-45 -17q-23 0 -36.5 17t-8.5 42z" />
    <glyph glyph-name="ldot" unicode="&#x140;" horiz-adv-x="421" 
d="M272 65l7 -10q-30 -25 -67.5 -42.5t-67.5 -17.5q-60 0 -45 70l128 624l-53 15l4 19l145 19l11 -14l-133 -648q-10 -42 17 -42q22 0 54 27zM345 300q5 24 25 41t44 17t37.5 -17t8.5 -41q-5 -25 -25 -42t-45 -17q-23 0 -36.5 17t-8.5 42z" />
    <glyph glyph-name="Lslash" unicode="&#x141;" horiz-adv-x="583" 
d="M77 192l-16 20l91 77l76 373l-59 19l4 19h229l-4 -19l-68 -20l-62 -299l151 127l16 -19l-175 -148l-61 -295h270l60 99h26l-31 -126h-495l2 16l67 16l45 217z" />
    <glyph glyph-name="lslash" unicode="&#x142;" horiz-adv-x="270" 
d="M271 65l8 -10q-30 -25 -67.5 -42.5t-67.5 -17.5q-60 0 -45 70l42 202l-61 -51l-16 20l85 71l78 382l-53 15l4 19l145 19l11 -14l-71 -342l61 52l16 -20l-85 -72l-54 -266q-10 -42 17 -42q23 0 53 27z" />
    <glyph glyph-name="Nacute" unicode="&#x143;" horiz-adv-x="697" 
d="M31 14l68 22l129 626l-59 19l4 19h168l265 -554l109 521l-60 19l3 14h154l-2 -14l-68 -20l-137 -666h-38l-314 646l-126 -613l59 -20l-2 -13h-155zM426 761l167 139l46 -57l-200 -98z" />
    <glyph glyph-name="nacute" unicode="&#x144;" horiz-adv-x="588" 
d="M97 415l-8 10q29 25 67.5 42.5t67.5 17.5q60 0 45 -70l-8 -25l2 -3q43 47 99.5 72t103.5 25q67 0 92 -46t9 -122l-48 -236q-10 -42 17 -42q23 0 53 27l8 -10q-30 -25 -67.5 -42.5t-67.5 -17.5q-60 0 -45 70l49 240q14 64 -1 102t-57 38q-33 0 -75 -25t-76 -69l-73 -351
h-85l-11 13l80 387q9 42 -19 42q-20 0 -52 -27zM325 550l167 140l45 -57l-200 -98z" />
    <glyph glyph-name="Ncommaaccent" unicode="&#x145;" horiz-adv-x="697" 
d="M31 14l68 22l129 626l-59 19l4 19h168l265 -554l109 521l-60 19l3 14h154l-2 -14l-68 -20l-137 -666h-38l-314 646l-126 -613l59 -20l-2 -13h-155zM268 -250l-9 12q20 17 37.5 40.5t20.5 36.5v9q-20 0 -31 13.5t-7 33.5q4 21 20.5 34.5t37.5 13.5q20 0 30.5 -14t4.5 -42
q-13 -63 -104 -137z" />
    <glyph glyph-name="ncommaaccent" unicode="&#x146;" horiz-adv-x="588" 
d="M97 415l-8 10q29 25 67.5 42.5t67.5 17.5q60 0 45 -70l-8 -25l2 -3q43 47 99.5 72t103.5 25q67 0 92 -46t9 -122l-48 -236q-10 -42 17 -42q23 0 53 27l8 -10q-30 -25 -67.5 -42.5t-67.5 -17.5q-60 0 -45 70l49 240q14 64 -1 102t-57 38q-33 0 -75 -25t-76 -69l-73 -351
h-85l-11 13l80 387q9 42 -19 42q-20 0 -52 -27zM214 -250l-10 12q20 17 37.5 40.5t20.5 36.5q2 6 -1 9q-20 0 -30.5 13.5t-6.5 33.5q4 21 20.5 34.5t37.5 13.5q20 0 31 -14t4 -42q-13 -64 -103 -137z" />
    <glyph glyph-name="Ncaron" unicode="&#x147;" horiz-adv-x="697" 
d="M31 14l68 22l129 626l-59 19l4 19h168l265 -554l109 521l-60 19l3 14h154l-2 -14l-68 -20l-137 -666h-38l-314 646l-126 -613l59 -20l-2 -13h-155zM508 745h-13l-107 140l18 15l111 -78l142 78l12 -15z" />
    <glyph glyph-name="ncaron" unicode="&#x148;" horiz-adv-x="588" 
d="M97 415l-8 10q29 25 67.5 42.5t67.5 17.5q60 0 45 -70l-8 -25l2 -3q43 47 99.5 72t103.5 25q67 0 92 -46t9 -122l-48 -236q-10 -42 17 -42q23 0 53 27l8 -10q-30 -25 -67.5 -42.5t-67.5 -17.5q-60 0 -45 70l49 240q14 64 -1 102t-57 38q-33 0 -75 -25t-76 -69l-73 -351
h-85l-11 13l80 387q9 42 -19 42q-20 0 -52 -27zM411 535h-13l-107 140l19 15l109 -78l143 78l11 -15z" />
    <glyph glyph-name="Eng" unicode="&#x14a;" horiz-adv-x="697" 
d="M31 14l68 22l129 626l-59 19l4 19h168l252 -619l122 586l-60 19l3 14h154l-2 -14l-68 -20l-136 -658q-31 -151 -203 -239l-13 17q84 81 114 222l3 17l-254 621l-126 -613l59 -20l-2 -13h-155z" />
    <glyph glyph-name="eng" unicode="&#x14b;" horiz-adv-x="588" 
d="M308 -167l-8 -34q62 0 105 209l61 297q14 64 -1 102t-57 38q-33 0 -75 -25t-76 -69l-73 -351h-85l-11 13l80 387q9 42 -19 42q-20 0 -52 -27l-8 10q29 25 67.5 42.5t67.5 17.5q60 0 45 -70l-8 -25l2 -3q43 47 99.5 72t103.5 25q67 0 92 -46t9 -122l-63 -308
q-23 -112 -81.5 -175t-138.5 -63q-46 0 -64 18t-12 45q4 24 22 38t39 14q20 0 31.5 -14.5t7.5 -37.5z" />
    <glyph glyph-name="Omacron" unicode="&#x14c;" horiz-adv-x="759" 
d="M122 350q34 163 144.5 259.5t257.5 96.5q148 0 219 -96.5t37 -259.5q-33 -163 -144 -259.5t-259 -96.5q-147 0 -217.5 96.5t-37.5 259.5zM230 349q-32 -158 10.5 -243.5t142.5 -85.5t178.5 85.5t110.5 243.5t-10.5 244.5t-141.5 86.5q-100 0 -179 -86.5t-111 -244.5z
M422 798l7 36h243l-7 -36h-243z" />
    <glyph glyph-name="omacron" unicode="&#x14d;" horiz-adv-x="558" 
d="M90 239q23 112 102 178.5t186 66.5q106 0 158 -67t29 -178q-23 -112 -102 -178t-186 -66t-158.5 66t-28.5 178zM191 239q-21 -105 4 -161.5t87 -56.5t111.5 56.5t71.5 161.5t-3.5 162t-88.5 57q-62 0 -111 -57t-71 -162zM276 578l7 36h244l-8 -36h-243z" />
    <glyph glyph-name="Obreve" unicode="&#x14e;" horiz-adv-x="759" 
d="M122 350q34 163 144.5 259.5t257.5 96.5q148 0 219 -96.5t37 -259.5q-33 -163 -144 -259.5t-259 -96.5q-147 0 -217.5 96.5t-37.5 259.5zM230 349q-32 -158 10.5 -243.5t142.5 -85.5t178.5 85.5t110.5 243.5t-10.5 244.5t-141.5 86.5q-100 0 -179 -86.5t-111 -244.5z
M614 848q5 21 21 35t37 14q19 0 29 -13.5t6 -35.5q-8 -43 -61 -67.5t-112 -24.5t-101 25t-34 68q4 22 20.5 35t35.5 13q20 0 31 -14t7 -35q-6 -20 -2.5 -32.5t7 -20t13 -11t15 -4t13.5 -0.5q62 0 75 68z" />
    <glyph glyph-name="obreve" unicode="&#x14f;" horiz-adv-x="558" 
d="M90 239q23 112 102 178.5t186 66.5q106 0 158 -67t29 -178q-23 -112 -102 -178t-186 -66t-158.5 66t-28.5 178zM191 239q-21 -105 4 -161.5t87 -56.5t111.5 56.5t71.5 161.5t-3.5 162t-88.5 57q-62 0 -111 -57t-71 -162zM471 638q4 21 20 34.5t36 13.5t30.5 -13t5.5 -36
q-8 -42 -61 -67t-112 -25q-58 0 -100.5 25t-34.5 68q5 22 20.5 35t35.5 13t31 -13.5t7 -34.5q-2 -25 -1 -39t12 -20.5t17.5 -8t17.5 -1.5q62 0 76 69z" />
    <glyph glyph-name="Ohungarumlaut" unicode="&#x150;" horiz-adv-x="759" 
d="M122 350q34 163 144.5 259.5t257.5 96.5q148 0 219 -96.5t37 -259.5q-33 -163 -144 -259.5t-259 -96.5q-147 0 -217.5 96.5t-37.5 259.5zM230 349q-32 -158 10.5 -243.5t142.5 -85.5t178.5 85.5t110.5 243.5t-10.5 244.5t-141.5 86.5q-100 0 -179 -86.5t-111 -244.5z
M366 761l158 139l45 -57l-191 -98zM538 761l157 139l46 -57l-190 -98z" />
    <glyph glyph-name="ohungarumlaut" unicode="&#x151;" horiz-adv-x="558" 
d="M90 239q23 112 102 178.5t186 66.5q106 0 158 -67t29 -178q-23 -112 -102 -178t-186 -66t-158.5 66t-28.5 178zM191 239q-21 -105 4 -161.5t87 -56.5t111.5 56.5t71.5 161.5t-3.5 162t-88.5 57q-62 0 -111 -57t-71 -162zM222 550l158 140l45 -57l-191 -98zM394 550
l158 140l44 -57l-189 -98z" />
    <glyph glyph-name="OE" unicode="&#x152;" horiz-adv-x="971" 
d="M576 27h282l61 99h26l-31 -126h-466q-34 -6 -71 -6q-147 0 -217.5 96.5t-37.5 259.5q34 163 144.5 259.5t257.5 96.5q37 0 67 -6h457l-21 -126h-25l-21 97h-272l-61 -297h212l35 75h23l-36 -177h-23l-5 74h-212zM383 20q56 0 98 34l123 591q-32 35 -84 35
q-100 0 -179 -86.5t-111 -244.5t10.5 -243.5t142.5 -85.5z" />
    <glyph glyph-name="oe" unicode="&#x153;" horiz-adv-x="866" 
d="M549 230q-20 -97 13.5 -147.5t118.5 -50.5q89 0 149 52l14 -17q-85 -72 -203 -72q-126 0 -166 87q-81 -87 -198 -87q-107 0 -158.5 66t-28.5 178t102 178.5t186 66.5q118 0 161 -88q80 88 209 88q79 0 118 -32t27 -93q-5 -27 -21.5 -47t-52.5 -38.5t-103.5 -29.5
t-166.5 -14zM282 21q50 0 91.5 36.5t68.5 105.5q-2 37 7 77q6 34 24 74q1 70 -25 107t-75 37q-62 0 -111 -57t-71 -162q-21 -105 4 -161.5t87 -56.5zM734 458q-57 0 -107 -52t-73 -151q117 4 178 28t73 80q7 40 -10.5 67.5t-60.5 27.5z" />
    <glyph glyph-name="Racute" unicode="&#x154;" horiz-adv-x="650" 
d="M665 510q-16 -74 -73.5 -122.5t-139.5 -59.5q32 -16 55 -86l72 -206l57 -17l-3 -19h-149l-111 322h-113l-58 -284l59 -19l-3 -19h-229l3 19l68 22l129 626l-60 17l4 16h293q107 0 162 -51t37 -139zM446 671h-114l-66 -321h114q65 0 113.5 41.5t65.5 119.5
q16 77 -16 118.5t-97 41.5zM400 761l167 139l46 -57l-200 -98z" />
    <glyph glyph-name="racute" unicode="&#x155;" horiz-adv-x="462" 
d="M97 415l-8 10q29 25 67.5 42.5t67.5 17.5q60 0 45 -70l-12 -44l2 -3q3 5 8 12.5t21.5 27.5t33.5 35.5t42.5 28t49.5 12.5q42 0 66.5 -29t15.5 -72q-13 -59 -63 -59q-23 0 -35 15.5t-7 39.5l14 66q-9 7 -21 7q-29 0 -63 -34.5t-53 -69.5l-20 -34l-64 -314h-85l-11 13
l80 387q9 42 -19 42q-20 0 -52 -27zM277 550l166 140l45 -57l-199 -98z" />
    <glyph glyph-name="Rcommaaccent" unicode="&#x156;" horiz-adv-x="650" 
d="M665 510q-16 -74 -73.5 -122.5t-139.5 -59.5q32 -16 55 -86l72 -206l57 -17l-3 -19h-149l-111 322h-113l-58 -284l59 -19l-3 -19h-229l3 19l68 22l129 626l-60 17l4 16h293q107 0 162 -51t37 -139zM446 671h-114l-66 -321h114q65 0 113.5 41.5t65.5 119.5
q16 77 -16 118.5t-97 41.5zM244 -250l-9 12q20 16 37 39.5t20 37.5q2 7 0 9q-20 0 -31 13.5t-7 33.5q4 21 21 34.5t38 13.5q19 0 30 -14t4 -42q-12 -63 -103 -137z" />
    <glyph glyph-name="rcommaaccent" unicode="&#x157;" horiz-adv-x="462" 
d="M97 415l-8 10q29 25 67.5 42.5t67.5 17.5q60 0 45 -70l-12 -44l2 -3q3 5 8 12.5t21.5 27.5t33.5 35.5t42.5 28t49.5 12.5q42 0 66.5 -29t15.5 -72q-13 -59 -63 -59q-23 0 -35 15.5t-7 39.5l14 66q-9 7 -21 7q-29 0 -63 -34.5t-53 -69.5l-20 -34l-64 -314h-85l-11 13
l80 387q9 42 -19 42q-20 0 -52 -27zM65 -250l-9 12q21 17 38.5 40.5t19.5 36.5q2 6 0 9q-20 0 -31 13.5t-7 33.5q4 21 20.5 34.5t37.5 13.5q20 0 30.5 -14t4.5 -42q-13 -63 -104 -137z" />
    <glyph glyph-name="Rcaron" unicode="&#x158;" horiz-adv-x="650" 
d="M665 510q-16 -74 -73.5 -122.5t-139.5 -59.5q32 -16 55 -86l72 -206l57 -17l-3 -19h-149l-111 322h-113l-58 -284l59 -19l-3 -19h-229l3 19l68 22l129 626l-60 17l4 16h293q107 0 162 -51t37 -139zM446 671h-114l-66 -321h114q65 0 113.5 41.5t65.5 119.5
q16 77 -16 118.5t-97 41.5zM474 745h-13l-107 140l18 15l111 -78l141 78l13 -15z" />
    <glyph glyph-name="rcaron" unicode="&#x159;" horiz-adv-x="462" 
d="M97 415l-8 10q29 25 67.5 42.5t67.5 17.5q60 0 45 -70l-12 -44l2 -3q3 5 8 12.5t21.5 27.5t33.5 35.5t42.5 28t49.5 12.5q42 0 66.5 -29t15.5 -72q-13 -59 -63 -59q-23 0 -35 15.5t-7 39.5l14 66q-9 7 -21 7q-29 0 -63 -34.5t-53 -69.5l-20 -34l-64 -314h-85l-11 13
l80 387q9 42 -19 42q-20 0 -52 -27zM352 535h-13l-107 140l19 15l110 -78l142 78l12 -15z" />
    <glyph glyph-name="Sacute" unicode="&#x15a;" horiz-adv-x="575" 
d="M63 22l22 142h26q1 -79 48.5 -112t113.5 -33q77 0 130.5 38.5t68.5 110.5q4 16 4.5 29.5t-3.5 25t-8.5 20t-15 17t-20.5 14.5t-27 13t-31.5 12t-37.5 13q-23 7 -33.5 10.5t-31.5 11.5t-31 13.5t-25.5 15.5t-23 19.5t-16.5 23.5t-11.5 29.5t-2.5 35t5 42.5
q18 86 83.5 139.5t177.5 53.5q90 0 156 -44l37 25l9 -11l-21 -141h-27q0 42 -13 72t-35.5 45t-45.5 21.5t-49 6.5q-70 0 -118.5 -37.5t-61.5 -101.5q-3 -15 -3.5 -28t3.5 -23.5t8 -18.5t14.5 -16t19 -13t24.5 -12t27.5 -11t32.5 -11q23 -8 36 -13t34 -13.5t32.5 -15
t27.5 -17.5t24.5 -21.5t17.5 -25t12 -30.5t3.5 -36.5t-4.5 -43.5q-18 -90 -90 -144t-196 -54q-101 0 -167 44l-39 -27zM360 761l166 139l46 -57l-200 -98z" />
    <glyph glyph-name="sacute" unicode="&#x15b;" horiz-adv-x="445" 
d="M377 386l9 51q-25 21 -68 21q-46 0 -78 -22t-39 -59q-8 -36 13.5 -54.5t73.5 -34.5q86 -30 114 -56q41 -38 29 -101q-13 -63 -67 -99.5t-148 -36.5q-78 0 -119 26t-32 72q5 24 20.5 36.5t33.5 12.5q21 0 31 -13.5t6 -35.5l-11 -49q27 -23 75 -23q51 0 88 22.5t46 64.5
q8 38 -16 57.5t-84 38.5q-39 14 -59 23t-42.5 25.5t-29 40.5t0.5 57q12 61 61 97t137 36q73 0 113.5 -25t30.5 -72q-4 -24 -19.5 -36.5t-34.5 -12.5q-20 0 -30 14t-5 35zM255 550l167 140l46 -57l-200 -98z" />
    <glyph glyph-name="Scircumflex" unicode="&#x15c;" horiz-adv-x="575" 
d="M63 22l22 142h26q1 -79 48.5 -112t113.5 -33q77 0 130.5 38.5t68.5 110.5q4 16 4.5 29.5t-3.5 25t-8.5 20t-15 17t-20.5 14.5t-27 13t-31.5 12t-37.5 13q-23 7 -33.5 10.5t-31.5 11.5t-31 13.5t-25.5 15.5t-23 19.5t-16.5 23.5t-11.5 29.5t-2.5 35t5 42.5
q18 86 83.5 139.5t177.5 53.5q90 0 156 -44l37 25l9 -11l-21 -141h-27q0 42 -13 72t-35.5 45t-45.5 21.5t-49 6.5q-70 0 -118.5 -37.5t-61.5 -101.5q-3 -15 -3.5 -28t3.5 -23.5t8 -18.5t14.5 -16t19 -13t24.5 -12t27.5 -11t32.5 -11q23 -8 36 -13t34 -13.5t32.5 -15
t27.5 -17.5t24.5 -21.5t17.5 -25t12 -30.5t3.5 -36.5t-4.5 -43.5q-18 -90 -90 -144t-196 -54q-101 0 -167 44l-39 -27zM457 900h14l106 -139l-18 -16l-110 79l-143 -79l-12 16z" />
    <glyph glyph-name="scircumflex" unicode="&#x15d;" horiz-adv-x="445" 
d="M377 386l9 51q-25 21 -68 21q-46 0 -78 -22t-39 -59q-8 -36 13.5 -54.5t73.5 -34.5q86 -30 114 -56q41 -38 29 -101q-13 -63 -67 -99.5t-148 -36.5q-78 0 -119 26t-32 72q5 24 20.5 36.5t33.5 12.5q21 0 31 -13.5t6 -35.5l-11 -49q27 -23 75 -23q51 0 88 22.5t46 64.5
q8 38 -16 57.5t-84 38.5q-39 14 -59 23t-42.5 25.5t-29 40.5t0.5 57q12 61 61 97t137 36q73 0 113.5 -25t30.5 -72q-4 -24 -19.5 -36.5t-34.5 -12.5q-20 0 -30 14t-5 35zM356 690h13l105 -140l-17 -15l-110 78l-143 -78l-12 15z" />
    <glyph glyph-name="Scedilla" unicode="&#x15e;" horiz-adv-x="575" 
d="M193 -101l72 95q-93 3 -154 44l-39 -27l-9 11l22 142h26q1 -79 48.5 -112t113.5 -33q77 0 130.5 38.5t68.5 110.5q4 16 4.5 29.5t-3.5 25t-8.5 20t-15 17t-20.5 14.5t-27 13t-31.5 12t-37.5 13q-23 7 -33.5 10.5t-31.5 11.5t-31 13.5t-25.5 15.5t-23 19.5t-16.5 23.5
t-11.5 29.5t-2.5 35t5 42.5q18 86 83.5 139.5t177.5 53.5q90 0 156 -44l37 25l9 -11l-21 -141h-27q0 42 -13 72t-35.5 45t-45.5 21.5t-49 6.5q-70 0 -118.5 -37.5t-61.5 -101.5q-3 -15 -3.5 -28t3.5 -23.5t8 -18.5t14.5 -16t19 -13t24.5 -12t27.5 -11t32.5 -11q23 -8 36 -13
t34 -13.5t32.5 -15t27.5 -17.5t24.5 -21.5t17.5 -25t12 -30.5t3.5 -36.5t-4.5 -43.5q-18 -88 -87 -141.5t-188 -56.5l-31 -42q81 0 72 -45q-9 -43 -120 -131l-8 11q57 46 63 80q5 17 -12 24.5t-60 7.5z" />
    <glyph glyph-name="scedilla" unicode="&#x15f;" horiz-adv-x="445" 
d="M136 -101l72 96q-75 2 -113.5 27.5t-29.5 70.5q5 24 20.5 36.5t33.5 12.5q21 0 31 -13.5t6 -35.5l-11 -49q27 -23 75 -23q51 0 88 22.5t46 64.5q8 38 -16 57.5t-84 38.5q-39 14 -59 23t-42.5 25.5t-29 40.5t0.5 57q12 61 61 97t137 36q73 0 113.5 -25t30.5 -72
q-4 -24 -19.5 -36.5t-34.5 -12.5q-20 0 -30 14t-5 35l9 51q-25 21 -68 21q-46 0 -78 -22t-39 -59q-8 -36 13.5 -54.5t73.5 -34.5q86 -30 114 -56q41 -38 29 -101q-13 -60 -62.5 -96t-135.5 -39l-32 -44q81 0 72 -45q-9 -43 -120 -131l-8 11q56 45 62 80q4 17 -12 24.5
t-59 7.5z" />
    <glyph glyph-name="Scaron" unicode="&#x160;" horiz-adv-x="575" 
d="M63 22l22 142h26q1 -79 48.5 -112t113.5 -33q77 0 130.5 38.5t68.5 110.5q4 16 4.5 29.5t-3.5 25t-8.5 20t-15 17t-20.5 14.5t-27 13t-31.5 12t-37.5 13q-23 7 -33.5 10.5t-31.5 11.5t-31 13.5t-25.5 15.5t-23 19.5t-16.5 23.5t-11.5 29.5t-2.5 35t5 42.5
q18 86 83.5 139.5t177.5 53.5q90 0 156 -44l37 25l9 -11l-21 -141h-27q0 42 -13 72t-35.5 45t-45.5 21.5t-49 6.5q-70 0 -118.5 -37.5t-61.5 -101.5q-3 -15 -3.5 -28t3.5 -23.5t8 -18.5t14.5 -16t19 -13t24.5 -12t27.5 -11t32.5 -11q23 -8 36 -13t34 -13.5t32.5 -15
t27.5 -17.5t24.5 -21.5t17.5 -25t12 -30.5t3.5 -36.5t-4.5 -43.5q-18 -90 -90 -144t-196 -54q-101 0 -167 44l-39 -27zM439 745h-13l-106 140l17 15l111 -78l142 78l12 -15z" />
    <glyph glyph-name="scaron" unicode="&#x161;" horiz-adv-x="445" 
d="M377 386l9 51q-25 21 -68 21q-46 0 -78 -22t-39 -59q-8 -36 13.5 -54.5t73.5 -34.5q86 -30 114 -56q41 -38 29 -101q-13 -63 -67 -99.5t-148 -36.5q-78 0 -119 26t-32 72q5 24 20.5 36.5t33.5 12.5q21 0 31 -13.5t6 -35.5l-11 -49q27 -23 75 -23q51 0 88 22.5t46 64.5
q8 38 -16 57.5t-84 38.5q-39 14 -59 23t-42.5 25.5t-29 40.5t0.5 57q12 61 61 97t137 36q73 0 113.5 -25t30.5 -72q-4 -24 -19.5 -36.5t-34.5 -12.5q-20 0 -30 14t-5 35zM338 535h-14l-107 140l19 15l110 -78l142 78l12 -15z" />
    <glyph glyph-name="Tcommaaccent" unicode="&#x162;" horiz-adv-x="658" 
d="M695 671h-177l-131 -633l60 -19l-3 -19h-230l4 19l68 22l129 630h-176l-62 -99h-25l32 128h578l-20 -126h-26zM249 -250l-10 12q20 17 37.5 40.5t20.5 36.5q1 5 -1 9q-20 0 -31 13.5t-7 33.5q5 21 21 34.5t37 13.5q20 0 31 -14t5 -42q-12 -58 -103 -137z" />
    <glyph glyph-name="tcommaaccent" unicode="&#x163;" horiz-adv-x="376" 
d="M119 451l3 15q99 28 170 127l12 -14l-21 -99h149l-6 -29h-149l-67 -322q-19 -98 60 -98q42 0 76 29l12 -15q-58 -50 -137 -50q-65 0 -93.5 36.5t-15.5 97.5l67 322h-60zM126 -250l-9 12q20 17 37 40.5t20 36.5q2 6 -1 9q-20 0 -30.5 13.5t-6.5 33.5q5 21 21 34.5t37 13.5
q20 0 31 -14t4 -42q-13 -64 -103 -137z" />
    <glyph glyph-name="Tcaron" unicode="&#x164;" horiz-adv-x="658" 
d="M695 671h-177l-131 -633l60 -19l-3 -19h-230l4 19l68 22l129 630h-176l-62 -99h-25l32 128h578l-20 -126h-26zM488 745h-13l-106 140l17 15l111 -78l142 78l12 -15z" />
    <glyph glyph-name="tcaron" unicode="&#x165;" horiz-adv-x="377" 
d="M119 451l3 15q99 28 170 127l12 -14l-21 -99h149l-6 -29h-149l-67 -322q-19 -98 60 -98q42 0 76 29l12 -15q-58 -50 -137 -50q-65 0 -93.5 36.5t-15.5 97.5l67 322h-60zM394 559l-10 12q20 18 37.5 41t19.5 36q1 6 0 9q-21 0 -31.5 13t-6.5 34t20.5 34.5t37.5 13.5
q20 0 31 -14t5 -42q-12 -61 -103 -137z" />
    <glyph glyph-name="Tbar" unicode="&#x166;" horiz-adv-x="658" 
d="M236 340l5 28h112l62 303h-176l-62 -99h-25l32 128h578l-20 -126h-26l-21 97h-177l-63 -303h112l-5 -28h-112l-63 -302l60 -19l-3 -19h-230l4 19l68 22l62 299h-112z" />
    <glyph glyph-name="tbar" unicode="&#x167;" horiz-adv-x="376" 
d="M84 285l4 15l62 13l29 138h-60l3 15q99 28 170 127l12 -14l-21 -99h149l-6 -29h-149l-28 -138h148l-6 -28h-148l-33 -156q-19 -98 60 -98q42 0 76 29l12 -15q-58 -50 -137 -50q-65 0 -93.5 36.5t-15.5 97.5l32 156h-60z" />
    <glyph glyph-name="Utilde" unicode="&#x168;" horiz-adv-x="720" 
d="M765 666l-84 -408q-25 -121 -113.5 -192t-208.5 -71t-179.5 71t-34.5 192l83 404l-59 19l4 19h229l-4 -19l-68 -20l-83 -403q-22 -104 22.5 -161.5t135.5 -57.5t160 58t90 161l84 409l-59 19l3 14h153l-3 -14zM384 767l-13 16q101 84 138 84q21 0 50 -23t52 -23
q40 0 92 45l12 -15q-102 -87 -142 -87q-19 0 -48 23t-53 23q-37 0 -88 -43z" />
    <glyph glyph-name="utilde" unicode="&#x169;" 
d="M97 415l-8 10q29 25 67.5 42.5t67.5 17.5q60 0 45 -70l-54 -261q-11 -55 4 -87.5t54 -32.5q34 0 76 25t77 71l72 350h86l10 -14l-80 -386q-9 -42 18 -42q23 0 53 27l7 -10q-29 -25 -66.5 -42.5t-67.5 -17.5q-60 0 -45 70l8 25l-2 4q-43 -47 -98.5 -73t-103.5 -26
q-65 0 -90.5 41.5t-11.5 107.5l53 256q9 42 -19 42q-20 0 -52 -27zM257 557l-13 16q98 84 138 84q20 0 49 -23t52 -23q40 0 92 44l12 -15q-101 -86 -141 -86q-20 0 -49.5 23t-52.5 23q-36 0 -87 -43z" />
    <glyph glyph-name="Umacron" unicode="&#x16a;" horiz-adv-x="720" 
d="M765 666l-84 -408q-25 -121 -113.5 -192t-208.5 -71t-179.5 71t-34.5 192l83 404l-59 19l4 19h229l-4 -19l-68 -20l-83 -403q-22 -104 22.5 -161.5t135.5 -57.5t160 58t90 161l84 409l-59 19l3 14h153l-3 -14zM414 798l7 36h243l-7 -36h-243z" />
    <glyph glyph-name="umacron" unicode="&#x16b;" 
d="M97 415l-8 10q29 25 67.5 42.5t67.5 17.5q60 0 45 -70l-54 -261q-11 -55 4 -87.5t54 -32.5q34 0 76 25t77 71l72 350h86l10 -14l-80 -386q-9 -42 18 -42q23 0 53 27l7 -10q-29 -25 -66.5 -42.5t-67.5 -17.5q-60 0 -45 70l8 25l-2 4q-43 -47 -98.5 -73t-103.5 -26
q-65 0 -90.5 41.5t-11.5 107.5l53 256q9 42 -19 42q-20 0 -52 -27zM289 578l7 36h244l-8 -36h-243z" />
    <glyph glyph-name="Ubreve" unicode="&#x16c;" horiz-adv-x="720" 
d="M765 666l-84 -408q-25 -121 -113.5 -192t-208.5 -71t-179.5 71t-34.5 192l83 404l-59 19l4 19h229l-4 -19l-68 -20l-83 -403q-22 -104 22.5 -161.5t135.5 -57.5t160 58t90 161l84 409l-59 19l3 14h153l-3 -14zM606 848q5 21 21 35t36 14t30.5 -13.5t6.5 -35.5
q-9 -43 -62 -67.5t-112 -24.5t-101.5 25t-34.5 68q4 22 20.5 35t36.5 13t30.5 -14t6.5 -35q-2 -25 -1 -38.5t12 -20t18 -8t18 -1.5q61 0 75 68z" />
    <glyph glyph-name="ubreve" unicode="&#x16d;" 
d="M97 415l-8 10q29 25 67.5 42.5t67.5 17.5q60 0 45 -70l-54 -261q-11 -55 4 -87.5t54 -32.5q34 0 76 25t77 71l72 350h86l10 -14l-80 -386q-9 -42 18 -42q23 0 53 27l7 -10q-29 -25 -66.5 -42.5t-67.5 -17.5q-60 0 -45 70l8 25l-2 4q-43 -47 -98.5 -73t-103.5 -26
q-65 0 -90.5 41.5t-11.5 107.5l53 256q9 42 -19 42q-20 0 -52 -27zM484 638q5 21 20.5 34.5t35.5 13.5t30.5 -13t5.5 -36q-8 -42 -61 -67t-112 -25q-58 0 -100.5 25t-34.5 68q5 22 20.5 35t35.5 13t31 -13.5t7 -34.5q-2 -25 -1 -39t12 -20.5t17.5 -8t17.5 -1.5q63 0 76 69z
" />
    <glyph glyph-name="Uring" unicode="&#x16e;" horiz-adv-x="720" 
d="M765 666l-84 -408q-25 -121 -113.5 -192t-208.5 -71t-179.5 71t-34.5 192l83 404l-59 19l4 19h229l-4 -19l-68 -20l-83 -403q-22 -104 22.5 -161.5t135.5 -57.5t160 58t90 161l84 409l-59 19l3 14h153l-3 -14zM460 816q7 37 34 59t63 22t54.5 -22t11.5 -59
q-8 -37 -35.5 -59t-63.5 -22t-54 22t-10 59zM498 816q-6 -26 2.5 -42t28.5 -16q19 0 34 16t21 42q6 27 -2.5 43t-28.5 16t-35 -16t-20 -43z" />
    <glyph glyph-name="uring" unicode="&#x16f;" 
d="M97 415l-8 10q29 25 67.5 42.5t67.5 17.5q60 0 45 -70l-54 -261q-11 -55 4 -87.5t54 -32.5q34 0 76 25t77 71l72 350h86l10 -14l-80 -386q-9 -42 18 -42q23 0 53 27l7 -10q-29 -25 -66.5 -42.5t-67.5 -17.5q-60 0 -45 70l8 25l-2 4q-43 -47 -98.5 -73t-103.5 -26
q-65 0 -90.5 41.5t-11.5 107.5l53 256q9 42 -19 42q-20 0 -52 -27zM333 606q7 37 35 59t64 22q37 0 55 -22t11 -59q-7 -38 -35 -59.5t-65 -21.5q-36 0 -54 21.5t-11 59.5zM372 606q-6 -27 3 -43t28 -16q20 0 35 16t20 43q6 27 -2.5 43t-28.5 16q-19 0 -34.5 -16t-20.5 -43z
" />
    <glyph glyph-name="Uhungarumlaut" unicode="&#x170;" horiz-adv-x="720" 
d="M765 666l-84 -408q-25 -121 -113.5 -192t-208.5 -71t-179.5 71t-34.5 192l83 404l-59 19l4 19h229l-4 -19l-68 -20l-83 -403q-22 -104 22.5 -161.5t135.5 -57.5t160 58t90 161l84 409l-59 19l3 14h153l-3 -14zM358 761l157 139l46 -57l-192 -98zM530 761l157 139l45 -57
l-190 -98z" />
    <glyph glyph-name="uhungarumlaut" unicode="&#x171;" 
d="M97 415l-8 10q29 25 67.5 42.5t67.5 17.5q60 0 45 -70l-54 -261q-11 -55 4 -87.5t54 -32.5q34 0 76 25t77 71l72 350h86l10 -14l-80 -386q-9 -42 18 -42q23 0 53 27l7 -10q-29 -25 -66.5 -42.5t-67.5 -17.5q-60 0 -45 70l8 25l-2 4q-43 -47 -98.5 -73t-103.5 -26
q-65 0 -90.5 41.5t-11.5 107.5l53 256q9 42 -19 42q-20 0 -52 -27zM245 550l158 140l45 -57l-190 -98zM417 550l158 140l45 -57l-191 -98z" />
    <glyph glyph-name="Uogonek" unicode="&#x172;" horiz-adv-x="720" 
d="M427 -162l6 -9q-59 -47 -102 -47q-59 0 -47 62q15 75 108 153q-22 -2 -33 -2q-120 0 -179.5 71t-34.5 192l83 404l-59 19l4 19h229l-4 -19l-68 -20l-83 -403q-22 -104 22.5 -161.5t135.5 -57.5t160 58t90 161l84 409l-59 19l3 14h153l-3 -14l-68 -20l-84 -408
q-22 -107 -93.5 -175t-171.5 -83q-31 -35 -52.5 -74.5t-27.5 -67.5q-8 -43 28 -43q35 0 63 23z" />
    <glyph glyph-name="uogonek" unicode="&#x173;" 
d="M543 -146l6 -8q-55 -47 -102 -47q-59 0 -46 62q15 70 93 140q-26 -6 -36 -6q-60 0 -45 70l8 25l-2 4q-43 -47 -98.5 -73t-103.5 -26q-65 0 -90.5 41.5t-11.5 107.5l53 256q9 42 -19 42q-20 0 -52 -27l-8 10q29 25 67.5 42.5t67.5 17.5q60 0 45 -70l-54 -261
q-11 -55 4 -87.5t54 -32.5q34 0 76 25t77 71l72 350h86l10 -14l-80 -386q-9 -42 18 -42q23 0 53 27l7 -10q-28 -24 -61 -40q-31 -34 -52 -73.5t-26 -66.5q-9 -43 28 -43q33 0 62 22z" />
    <glyph glyph-name="Wcircumflex" unicode="&#x174;" horiz-adv-x="1157" 
d="M776 0l-98 491l-295 -491h-39l-136 662l-58 19l3 19h232l-4 -19l-67 -19l106 -557l250 421l-29 136l-58 19l3 19h232l-4 -19l-68 -19l106 -557l337 557l-80 19l4 19h178l-4 -19l-67 -19l-405 -662h-39zM763 900h12l107 -139l-18 -16l-111 79l-141 -79l-12 16z" />
    <glyph glyph-name="wcircumflex" unicode="&#x175;" horiz-adv-x="860" 
d="M585 0l-58 275q-38 -60 -94 -128.5t-93 -107.5l-37 -39h-33l-87 407q-8 35 -36 35q-21 0 -53 -27l-8 10q72 60 131 60q27 0 42 -14.5t22 -51.5l66 -348q115 134 172 237l-21 99q-8 35 -36 35q-21 0 -54 -27l-7 10q69 60 131 60q28 0 42.5 -14.5t21.5 -51.5l65 -348
q7 9 19.5 23.5t45.5 56.5t59 79.5t50 80.5t30 71h-30q-21 0 -33 14.5t-8 36.5q5 21 22 36t41 15q27 0 39.5 -20.5t4.5 -59.5q-14 -68 -84.5 -169t-134.5 -168l-63 -67h-34zM571 690h14l105 -140l-18 -15l-110 78l-142 -78l-12 15z" />
    <glyph glyph-name="Ycircumflex" unicode="&#x176;" horiz-adv-x="697" 
d="M317 663l133 -333l274 333l-75 18l4 19h177l-4 -19l-69 -18l-300 -364l-54 -261l57 -19l-3 -19h-227l4 19l67 22l54 257l-148 365l-57 18l3 19h234l-3 -19zM528 900h13l106 -139l-18 -16l-110 79l-142 -79l-12 16z" />
    <glyph glyph-name="ycircumflex" unicode="&#x177;" horiz-adv-x="555" 
d="M75 -156l-6 -32q3 -3 9 -3q20 0 78 49t121 125l-94 424q-8 35 -34 35q-23 0 -55 -27l-8 10q72 60 132 60q27 0 41 -15t22 -51l71 -358q21 26 53 67t89 127.5t65 126.5h-29q-22 0 -33.5 14.5t-7.5 36.5q5 22 23 36.5t40 14.5q25 0 38.5 -19.5t6.5 -53.5
q-12 -57 -82.5 -165t-158 -212.5t-180 -183t-141.5 -78.5q-25 0 -45 17t-13 51q5 25 21.5 38.5t37.5 13.5q22 0 33 -13.5t6 -34.5zM418 690h13l105 -140l-18 -15l-109 78l-143 -78l-12 15z" />
    <glyph glyph-name="Ydieresis" unicode="&#x178;" horiz-adv-x="697" 
d="M317 663l133 -333l274 333l-75 18l4 19h177l-4 -19l-69 -18l-300 -364l-54 -261l57 -19l-3 -19h-227l4 19l67 22l54 257l-148 365l-57 18l3 19h234l-3 -19zM348 815q5 26 25 43t45 17t38.5 -17t8.5 -43t-25.5 -42.5t-45.5 -16.5t-38 17t-8 42zM566 815q5 26 25 43t45 17
q24 0 37.5 -17.5t9.5 -42.5q-6 -25 -26.5 -42t-44.5 -17q-25 0 -38 16.5t-8 42.5z" />
    <glyph glyph-name="Zacute" unicode="&#x179;" horiz-adv-x="612" 
d="M47 0l3 20l538 651h-330l-62 -99h-25l32 128h503l-5 -22l-538 -651h347l63 104h25l-32 -131h-519zM384 761l167 139l45 -57l-200 -98z" />
    <glyph glyph-name="zacute" unicode="&#x17a;" horiz-adv-x="472" 
d="M120 354l-13 17q82 69 118.5 92.5t62.5 23.5q27 0 63 -13t67 -13q67 0 97 24l11 -16l-365 -373l1 -4q29 12 56 12q24 0 61.5 -17t62.5 -17q57 0 130 62l13 -16q-145 -124 -207 -124q-20 0 -61 17.5t-74 17.5q-64 0 -104 -34l-11 16l372 379l-2 4q-24 -10 -55 -10
q-25 0 -59.5 13t-59.5 13q-23 0 -44.5 -11t-59.5 -43zM271 550l167 140l45 -57l-200 -98z" />
    <glyph glyph-name="Zdotaccent" unicode="&#x17b;" horiz-adv-x="612" 
d="M47 0l3 20l538 651h-330l-62 -99h-25l32 128h503l-5 -22l-538 -651h347l63 104h25l-32 -131h-519zM415 834q5 26 26.5 44t48.5 18q26 0 40 -18t9 -44q-6 -27 -27 -45t-47 -18q-27 0 -41 18t-9 45z" />
    <glyph glyph-name="zdotaccent" unicode="&#x17c;" horiz-adv-x="472" 
d="M120 354l-13 17q82 69 118.5 92.5t62.5 23.5q27 0 63 -13t67 -13q67 0 97 24l11 -16l-365 -373l1 -4q29 12 56 12q24 0 61.5 -17t62.5 -17q57 0 130 62l13 -16q-145 -124 -207 -124q-20 0 -61 17.5t-74 17.5q-64 0 -104 -34l-11 16l372 379l-2 4q-24 -10 -55 -10
q-25 0 -59.5 13t-59.5 13q-23 0 -44.5 -11t-59.5 -43zM301 624q6 26 27.5 44t47.5 18q27 0 41 -18t9 -44q-5 -27 -26.5 -45t-48.5 -18q-26 0 -40.5 18t-9.5 45z" />
    <glyph glyph-name="Zcaron" unicode="&#x17d;" horiz-adv-x="612" 
d="M47 0l3 20l538 651h-330l-62 -99h-25l32 128h503l-5 -22l-538 -651h347l63 104h25l-32 -131h-519zM466 745h-13l-107 140l18 15l110 -78l142 78l12 -15z" />
    <glyph glyph-name="zcaron" unicode="&#x17e;" horiz-adv-x="472" 
d="M120 354l-13 17q82 69 118.5 92.5t62.5 23.5q27 0 63 -13t67 -13q67 0 97 24l11 -16l-365 -373l1 -4q29 12 56 12q24 0 61.5 -17t62.5 -17q57 0 130 62l13 -16q-145 -124 -207 -124q-20 0 -61 17.5t-74 17.5q-64 0 -104 -34l-11 16l372 379l-2 4q-24 -10 -55 -10
q-25 0 -59.5 13t-59.5 13q-23 0 -44.5 -11t-59.5 -43zM352 535h-13l-107 140l19 15l110 -78l142 78l11 -15z" />
    <glyph glyph-name="longs" unicode="&#x17f;" horiz-adv-x="422" 
d="M-10 -167l-7 -34q61 0 104 209l118 573q15 73 68 115.5t134 42.5q60 0 94.5 -26t25.5 -71q-11 -50 -55 -50q-22 0 -33.5 14.5t-6.5 38.5l12 57q-15 12 -38 12q-35 0 -62 -35t-40 -97l-118 -574q-23 -112 -81.5 -175t-138.5 -63q-45 0 -63 18t-12 45q4 24 21.5 38t38.5 14
t32 -14.5t7 -37.5z" />
    <glyph glyph-name="uni018F" unicode="&#x18f;" horiz-adv-x="724" 
d="M221 585l-13 17q119 104 274 104q154 0 225.5 -96t37.5 -259q-33 -163 -145 -260t-260 -97q-131 0 -196 74.5t-41 188.5q8 36 18 55l23 19h488q35 148 -10 242t-180 94q-126 0 -221 -82zM342 21q92 0 170 73.5t113 209.5l-417 -21q-25 -122 9 -192t125 -70z" />
    <glyph glyph-name="florin" unicode="&#x192;" horiz-adv-x="390" 
d="M-2 -201q61 0 104 209l92 443h-74l4 19l76 16l20 95q15 73 68.5 115.5t134.5 42.5q60 0 94.5 -25.5t25.5 -69.5q-12 -51 -56 -51q-21 0 -33 15t-7 38l12 56q-15 12 -38 12q-35 0 -62 -35t-40 -97l-21 -102h161l-6 -29h-161l-91 -443q-23 -112 -81.5 -175t-138.5 -63
q-45 0 -63 18t-12 45q4 24 21.5 38t38.5 14t32 -14.5t7 -37.5z" />
    <glyph glyph-name="uni01DD" unicode="&#x1dd;" horiz-adv-x="530" 
d="M113 236h323q21 105 -12 158t-116 53t-145 -52l-14 17q84 72 199 72q114 0 163 -67t27 -176q-24 -113 -103.5 -179.5t-182.5 -66.5q-92 0 -138.5 53.5t-29.5 135.5q6 26 12 38zM252 21q55 0 105.5 51.5t72.5 139.5l-252 -12q-17 -85 3 -132t71 -47z" />
    <glyph glyph-name="Aringacute" unicode="&#x1fa;" horiz-adv-x="745" 
d="M452 775q7 36 34.5 58t63.5 22q37 0 55 -21.5t11 -58.5q-14 -65 -76 -80l139 -657l58 -19l-3 -19h-230l4 19l66 19l-39 194h-302l-121 -194l79 -19l-4 -19h-177l3 19l68 19l415 657q-26 6 -38.5 27t-5.5 53zM461 595l-210 -335h277zM451 853l167 139l46 -57l-200 -97z
M490 775q-5 -27 3.5 -43t27.5 -16q20 0 35 16t21 43q5 26 -3.5 42t-28.5 16q-19 0 -34 -16t-21 -42z" />
    <glyph glyph-name="aringacute" unicode="&#x1fb;" horiz-adv-x="570" 
d="M571 65l7 -10q-29 -25 -66.5 -42.5t-67.5 -17.5q-61 0 -45 70l6 18l-2 3q-40 -43 -90.5 -66.5t-100.5 -23.5q-83 0 -114.5 64t-9.5 169q26 125 104 190t199 65q69 0 126 -23l54 26l10 -14l-81 -393q-9 -42 18 -42q23 0 53 27zM410 121l64 310q-39 27 -92 27
q-70 0 -119 -56t-71 -162q-20 -94 0 -150t74 -56q34 0 73 22.5t71 64.5zM321 586q7 36 34 58t63 22q37 0 55.5 -22t11.5 -58q-8 -38 -35.5 -60t-64.5 -22q-36 0 -54 22t-10 60zM359 586q-6 -27 2.5 -43t27.5 -16q20 0 35.5 16t20.5 43t-3 42.5t-28 15.5t-35.5 -15.5
t-19.5 -42.5zM322 670l167 140l46 -57l-200 -98z" />
    <glyph glyph-name="AEacute" unicode="&#x1fc;" horiz-adv-x="823" 
d="M434 32l9 200h-211l-120 -194l79 -19l-4 -19h-177l3 19l68 19l415 662h404l-20 -126h-26l-21 97h-279l-10 -297h169l33 75h24l-36 -177h-24l-3 74h-165l-12 -319h180l62 99h24l-31 -126h-400l2 16zM458 595l-209 -335h195zM523 761l167 139l45 -57l-200 -98z" />
    <glyph glyph-name="aeacute" unicode="&#x1fd;" horiz-adv-x="750" 
d="M347 483q90 0 128 -41q68 42 157 42q79 0 118 -32t27 -93q-7 -33 -30 -54.5t-89 -39t-179 -23.5l-33 -156q32 -54 119 -54q89 0 149 52l14 -17q-85 -72 -203 -72q-113 0 -163 63q-82 -63 -191 -63q-125 0 -104 108q14 67 83 99q51 24 222 57h1h1l1 1h1h1h1h1l1 1h1h1h1h2
l1 1h1h1h1h1l1 1h1h1l19 94q9 45 -11 73t-65 28q-42 0 -84 -25l-13 -66q-5 -24 -22.5 -39t-40.5 -15q-21 0 -32.5 14t-7.5 40q12 52 72.5 84t138.5 32zM356 85l32 153q-46 -9 -66 -13t-50 -12t-42.5 -15.5t-28 -19.5t-23 -27.5t-11.5 -37.5q-16 -80 58 -80q69 0 131 52z
M500 346l-16 -79q98 7 146.5 27.5t58.5 68.5q7 40 -10.5 67.5t-60.5 27.5q-66 0 -115 -64q3 -23 -3 -48zM408 550l167 140l46 -57l-200 -98z" />
    <glyph glyph-name="Oslashacute" unicode="&#x1fe;" horiz-adv-x="759" 
d="M90 0h-40l105 96q-66 96 -33 254q34 163 144.5 259.5t257.5 96.5q134 0 206 -81l82 75h40l-105 -97q66 -96 33 -253q-33 -163 -144 -259.5t-259 -96.5q-133 0 -205 81zM672 349q22 114 7 192l-448 -412q36 -109 152 -109q100 0 178.5 85.5t110.5 243.5zM230 349
q-23 -110 -7 -190l448 411q-37 110 -151 110q-100 0 -179 -86.5t-111 -244.5zM457 761l167 139l45 -57l-200 -98z" />
    <glyph glyph-name="oslashacute" unicode="&#x1ff;" horiz-adv-x="558" 
d="M82 0h-41l73 66q-46 65 -24 173q23 112 102 178.5t186 66.5q92 0 144 -52l53 48h40l-76 -68q48 -67 26 -173q-23 -112 -102 -178t-186 -66q-92 0 -145 50zM465 239q14 68 8 113l-285 -256q21 -75 94 -75q62 0 111.5 56.5t71.5 161.5zM191 239q-13 -66 -9 -112l285 256
q-21 75 -94 75q-62 0 -111 -57t-71 -162zM313 550l167 140l45 -57l-200 -98z" />
    <glyph glyph-name="Scommaaccent" unicode="&#x218;" horiz-adv-x="575" 
d="M63 22l22 142h26q1 -79 48.5 -112t113.5 -33q77 0 130.5 38.5t68.5 110.5q4 16 4.5 29.5t-3.5 25t-8.5 20t-15 17t-20.5 14.5t-27 13t-31.5 12t-37.5 13q-23 7 -33.5 10.5t-31.5 11.5t-31 13.5t-25.5 15.5t-23 19.5t-16.5 23.5t-11.5 29.5t-2.5 35t5 42.5
q18 86 83.5 139.5t177.5 53.5q90 0 156 -44l37 25l9 -11l-21 -141h-27q0 42 -13 72t-35.5 45t-45.5 21.5t-49 6.5q-70 0 -118.5 -37.5t-61.5 -101.5q-3 -15 -3.5 -28t3.5 -23.5t8 -18.5t14.5 -16t19 -13t24.5 -12t27.5 -11t32.5 -11q23 -8 36 -13t34 -13.5t32.5 -15
t27.5 -17.5t24.5 -21.5t17.5 -25t12 -30.5t3.5 -36.5t-4.5 -43.5q-18 -90 -90 -144t-196 -54q-101 0 -167 44l-39 -27zM197 -250l-10 12q20 17 37.5 40.5t20.5 36.5q1 6 0 9q-20 0 -31 13.5t-7 33.5q5 21 21 34.5t37 13.5q20 0 31 -14t4 -42q-13 -64 -103 -137z" />
    <glyph glyph-name="scommaaccent" unicode="&#x219;" horiz-adv-x="445" 
d="M377 386l9 51q-25 21 -68 21q-46 0 -78 -22t-39 -59q-8 -36 13.5 -54.5t73.5 -34.5q86 -30 114 -56q41 -38 29 -101q-13 -63 -67 -99.5t-148 -36.5q-78 0 -119 26t-32 72q5 24 20.5 36.5t33.5 12.5q21 0 31 -13.5t6 -35.5l-11 -49q27 -23 75 -23q51 0 88 22.5t46 64.5
q8 38 -16 57.5t-84 38.5q-39 14 -59 23t-42.5 25.5t-29 40.5t0.5 57q12 61 61 97t137 36q73 0 113.5 -25t30.5 -72q-4 -24 -19.5 -36.5t-34.5 -12.5q-20 0 -30 14t-5 35zM142 -250l-10 12q20 17 37.5 40.5t20.5 36.5v9q-20 0 -31 13.5t-7 33.5q5 21 21 34.5t37 13.5
q20 0 31 -14t4 -42q-13 -64 -103 -137z" />
    <glyph glyph-name="uni021A" unicode="&#x21a;" horiz-adv-x="658" 
d="M695 671h-177l-131 -633l60 -19l-3 -19h-230l4 19l68 22l129 630h-176l-62 -99h-25l32 128h578l-20 -126h-26zM249 -250l-10 12q20 17 37.5 40.5t20.5 36.5q1 5 -1 9q-20 0 -31 13.5t-7 33.5q5 21 21 34.5t37 13.5q20 0 31 -14t5 -42q-12 -58 -103 -137z" />
    <glyph glyph-name="uni021B" unicode="&#x21b;" horiz-adv-x="376" 
d="M119 451l3 15q99 28 170 127l12 -14l-21 -99h149l-6 -29h-149l-67 -322q-19 -98 60 -98q42 0 76 29l12 -15q-58 -50 -137 -50q-65 0 -93.5 36.5t-15.5 97.5l67 322h-60zM126 -250l-9 12q20 17 37 40.5t20 36.5q2 6 -1 9q-20 0 -30.5 13.5t-6.5 33.5q5 21 21 34.5t37 13.5
q20 0 31 -14t4 -42q-13 -64 -103 -137z" />
    <glyph glyph-name="dotlessj" unicode="&#x237;" horiz-adv-x="270" 
d="M-10 -167l-7 -34q61 0 104 209l81 392q9 42 -18 42q-20 0 -54 -27l-7 10q29 25 67 42.5t68 17.5q60 0 45 -70l-83 -407q-23 -112 -81.5 -175t-138.5 -63q-45 0 -63 18t-12 45q4 24 21.5 38t38.5 14t32 -14.5t7 -37.5z" />
    <glyph glyph-name="circumflex" unicode="&#x2c6;" horiz-adv-x="360" 
d="M315 690h13l106 -140l-18 -15l-110 78l-142 -78l-13 15z" />
    <glyph glyph-name="caron" unicode="&#x2c7;" horiz-adv-x="360" 
d="M297 535h-13l-107 140l19 15l110 -78l141 78l12 -15z" />
    <glyph glyph-name="breve" unicode="&#x2d8;" horiz-adv-x="429" 
d="M407 638q4 21 20 34.5t36 13.5t30.5 -13t5.5 -36q-8 -42 -61.5 -67t-111.5 -25q-59 0 -101 25t-34 68q4 22 20 35t36 13t31 -13.5t7 -34.5q-2 -25 -1 -39t12 -20.5t17.5 -8t17.5 -1.5q62 0 76 69z" />
    <glyph glyph-name="dotaccent" unicode="&#x2d9;" horiz-adv-x="255" 
d="M193 624q6 26 27.5 44t47.5 18q27 0 40.5 -18t8.5 -44q-5 -27 -26 -45t-48 -18q-26 0 -40.5 18t-9.5 45z" />
    <glyph glyph-name="ring" unicode="&#x2da;" horiz-adv-x="238" 
d="M161 606q7 37 34.5 59t64.5 22q36 0 54 -22t11 -59q-7 -38 -34.5 -59.5t-64.5 -21.5t-54.5 21.5t-10.5 59.5zM200 606q-6 -27 3 -43t28 -16q20 0 35 16t20 43q6 27 -2.5 43t-28.5 16q-19 0 -34.5 -16t-20.5 -43z" />
    <glyph glyph-name="ogonek" unicode="&#x2db;" horiz-adv-x="180" 
d="M118 -162l6 -9q-59 -47 -103 -47q-57 0 -45 62q17 78 111 156h21q-32 -35 -54 -74.5t-28 -67.5q-8 -43 29 -43q33 0 63 23z" />
    <glyph glyph-name="tilde" unicode="&#x2dc;" horiz-adv-x="402" 
d="M167 557l-12 16q98 84 137 84q21 0 50 -23t52 -23q40 0 92 44l12 -15q-101 -86 -142 -86q-19 0 -48.5 23t-52.5 23q-36 0 -88 -43z" />
    <glyph glyph-name="hungarumlaut" unicode="&#x2dd;" horiz-adv-x="436" 
d="M151 550l159 140l45 -57l-191 -98zM324 550l157 140l45 -57l-190 -98z" />
    <glyph glyph-name="uni0400" unicode="&#x400;" horiz-adv-x="612" 
d="M199 27h300l61 99h25l-31 -126h-525l2 16l67 16l131 635l-60 17l4 16h516l-21 -126h-25l-21 97h-290l-61 -297h231l34 75h23l-35 -177h-24l-4 74h-231zM429 900l111 -139l-18 -16l-161 98z" />
    <glyph glyph-name="afii10023" unicode="&#x401;" horiz-adv-x="612" 
d="M199 27h300l61 99h25l-31 -126h-525l2 16l67 16l131 635l-60 17l4 16h516l-21 -126h-25l-21 97h-290l-61 -297h231l34 75h23l-35 -177h-24l-4 74h-231zM307 815q4 25 24 42.5t45 17.5q26 0 39.5 -17.5t8.5 -42.5t-25.5 -42t-46.5 -17q-25 0 -37.5 16.5t-7.5 42.5z
M524 815q5 26 24.5 43t45.5 17q25 0 38.5 -17t8.5 -43q-5 -25 -25.5 -42t-45.5 -17q-26 0 -38.5 16.5t-7.5 42.5z" />
    <glyph glyph-name="afii10051" unicode="&#x402;" horiz-adv-x="783" 
d="M552 -110l-7 -34q62 0 105 207l35 173q30 143 -78 143q-37 0 -82.5 -15.5t-79.5 -43.5l-58 -282l58 -19l-3 -19h-228l4 19l68 22l129 630h-177l-62 -99h-25l32 128h580l-20 -126h-26l-21 97h-178l-55 -264l-13 -54l2 -3q45 32 107 50t112 18q77 0 106 -46t13 -125
l-38 -184q-23 -111 -81.5 -173.5t-140.5 -62.5q-46 0 -64 18t-13 45q5 24 22.5 38t37.5 14q21 0 32 -14.5t7 -37.5z" />
    <glyph glyph-name="afii10052" unicode="&#x403;" horiz-adv-x="565" 
d="M365 761l167 139l45 -57l-200 -98zM332 671l-130 -631l88 -21l-3 -19h-258l3 19l68 22l129 626l-60 17l4 16h492l-22 -126h-24l-22 97h-265z" />
    <glyph glyph-name="afii10053" unicode="&#x404;" horiz-adv-x="695" 
d="M648 114l13 -17q-119 -103 -277 -103q-153 0 -224.5 95.5t-37.5 259.5t145 260.5t263 96.5q119 0 187 -56l41 21l9 -12l-21 -135h-25q-2 46 -20.5 78t-47.5 46.5t-55.5 20.5t-55.5 6q-116 0 -193.5 -78.5t-113.5 -226.5h346l-6 -28h-346q-29 -145 19.5 -227t174.5 -82
q130 0 225 81z" />
    <glyph glyph-name="afii10054" unicode="&#x405;" horiz-adv-x="573" 
d="M63 22l22 142h26q1 -79 48.5 -112t113.5 -33q77 0 130.5 38.5t68.5 110.5q4 16 4.5 29.5t-3.5 25t-8.5 20t-15 17t-20.5 14.5t-27 13t-31.5 12t-37.5 13q-23 7 -33.5 10.5t-31.5 11.5t-31 13.5t-25.5 15.5t-23 19.5t-16.5 23.5t-11.5 29.5t-2.5 35t5 42.5
q18 86 83.5 139.5t177.5 53.5q90 0 156 -44l37 25l9 -11l-21 -141h-27q0 42 -13 72t-35.5 45t-45.5 21.5t-49 6.5q-70 0 -118.5 -37.5t-61.5 -101.5q-3 -15 -3.5 -28t3.5 -23.5t8 -18.5t14.5 -16t19 -13t24.5 -12t27.5 -11t32.5 -11q23 -8 36 -13t34 -13.5t32.5 -15
t27.5 -17.5t24.5 -21.5t17.5 -25t12 -30.5t3.5 -36.5t-4.5 -43.5q-18 -90 -90 -144t-196 -54q-101 0 -167 44l-39 -27z" />
    <glyph glyph-name="afii10055" unicode="&#x406;" horiz-adv-x="286" 
d="M330 661l-129 -623l58 -19l-3 -19h-227l4 19l68 22l128 621l-60 19l4 19h227l-4 -19z" />
    <glyph glyph-name="afii10056" unicode="&#x407;" horiz-adv-x="287" 
d="M330 661l-129 -623l58 -19l-3 -19h-227l4 19l68 22l128 621l-60 19l4 19h226l-3 -19zM163 815q4 25 24.5 42.5t45.5 17.5t38.5 -17t8.5 -43t-25.5 -42.5t-45.5 -16.5t-38 17t-8 42zM343 815q5 26 24.5 43t45.5 17q24 0 37.5 -17.5t9.5 -42.5q-5 -25 -26 -42t-45 -17
q-26 0 -38.5 16.5t-7.5 42.5z" />
    <glyph glyph-name="afii10057" unicode="&#x408;" horiz-adv-x="286" 
d="M95 8l134 654l-59 19l4 19h225l-3 -19l-67 -20l-134 -653q-31 -151 -201 -239l-14 17q85 84 115 222z" />
    <glyph glyph-name="afii10058" unicode="&#x409;" horiz-adv-x="1055" 
d="M220 150l164 517l-59 17l3 16h504l-4 -16l-66 -18l-58 -278h127q114 0 172.5 -52t40.5 -142q-19 -90 -99 -142t-193 -52h-293l2 16l67 16l132 639h-246l-164 -518q-48 -158 -136 -158q-33 0 -55 17.5t-14 53.5q5 26 22.5 41t40.5 15q24 0 35 -14t7 -39l-7 -30q3 -2 8 -2
q13 0 31.5 28t37.5 85zM630 27h110q73 0 126.5 43.5t70.5 123.5q16 80 -19.5 123t-108.5 43h-110z" />
    <glyph glyph-name="afii10059" unicode="&#x40a;" horiz-adv-x="1064" 
d="M32 19l68 22l128 621l-59 19l4 19h229l-4 -19l-68 -20l-58 -282h338l58 283l-60 19l4 19h229l-3 -19l-68 -20l-58 -282h127q113 0 172 -51t41 -138q-18 -88 -98 -139t-193 -51h-293l3 16l67 16l66 319h-338l-64 -313l59 -19l-3 -19h-229zM639 27h111q74 0 127 42t68 121
q17 78 -19 119.5t-110 41.5h-110z" />
    <glyph glyph-name="afii10060" unicode="&#x40b;" horiz-adv-x="831" 
d="M445 320l-58 -282l58 -19l-3 -19h-228l4 19l68 22l129 630h-177l-62 -99h-25l32 128h580l-20 -126h-26l-21 97h-178l-55 -264l-13 -54l2 -3q45 32 107 50t112 18q77 0 106 -45.5t13 -122.5l-44 -212l60 -19l-4 -19h-231l4 19l70 22l41 198q13 65 -6.5 102.5t-72.5 37.5
q-37 0 -82.5 -15.5t-79.5 -43.5z" />
    <glyph glyph-name="afii10061" unicode="&#x40c;" horiz-adv-x="684" 
d="M661 48l8 -11q-49 -43 -111 -43q-53 0 -75.5 30t-24.5 99l-4 111q-1 59 -33 86.5t-102 27.5h-57l-64 -310l60 -19l-3 -19h-230l4 19l68 22l128 621l-59 19l3 19h229l-3 -19l-68 -20l-60 -289l1 2q74 0 117 28.5t72 86.5l45 87q31 64 67 97t89 33q40 0 61 -19t14 -54
q-5 -26 -22 -41.5t-42 -15.5q-24 0 -35.5 15t-6.5 40l6 33q-3 3 -11 3q-47 0 -96 -100l-42 -85q-40 -81 -102 -111q93 -4 132.5 -33.5t42.5 -97.5l4 -110q2 -54 13 -76.5t37 -22.5q27 0 50 17zM422 761l166 139l46 -57l-200 -98z" />
    <glyph glyph-name="uni040D" unicode="&#x40d;" horiz-adv-x="740" 
d="M493 900l111 -139l-19 -16l-160 98zM32 19l68 22l128 621l-59 19l4 19h229l-4 -19l-68 -20l-113 -544l461 527l3 18l-59 19l4 19h229l-4 -19l-67 -20l-129 -623l60 -19l-4 -19h-229l4 19l67 22l113 543l-461 -527l-3 -19l59 -19l-3 -19h-229z" />
    <glyph glyph-name="afii10062" unicode="&#x40e;" horiz-adv-x="691" 
d="M575 785l10 53q4 22 20.5 35.5t37.5 13.5q20 0 30 -13.5t6 -35.5q-9 -43 -61.5 -67.5t-111.5 -24.5t-101.5 25t-34.5 68q4 22 20.5 35t35.5 13q21 0 31.5 -14t6.5 -35l-11 -53q24 -15 58 -15q31 0 64 15zM367 197l-152 466l-59 18l4 19h231l-3 -19l-67 -18l117 -373
l277 373l-80 18l4 19h179l-4 -19l-68 -18l-333 -448q-96 -129 -145 -175t-103 -46q-37 0 -62 17.5t-18 56.5q6 28 25 42.5t41 14.5q24 0 36 -15t7 -38l-9 -41q6 -3 11 -3q26 0 66 41t105 128z" />
    <glyph glyph-name="afii10145" unicode="&#x40f;" horiz-adv-x="730" 
d="M333 0h-304l2 16l67 16l130 630l-59 19l4 19h229l-4 -19l-68 -20l-131 -634h342l131 635l-60 19l4 19h230l-4 -19l-67 -20l-130 -629l60 -15l-3 -17h-304l-47 -145h-30z" />
    <glyph glyph-name="afii10017" unicode="&#x410;" horiz-adv-x="745" 
d="M539 700l140 -662l58 -19l-3 -19h-230l4 19l66 19l-39 194h-302l-121 -194l79 -19l-4 -19h-177l3 19l68 19l418 662h40zM461 595l-210 -335h277z" />
    <glyph glyph-name="afii10018" unicode="&#x411;" horiz-adv-x="637" 
d="M332 671l-57 -276h140q113 0 172 -53t40 -144q-19 -92 -99.5 -145t-193.5 -53h-305l2 16l67 16l131 635l-60 17l4 16h498l-20 -126h-26l-21 97h-272zM199 27h123q74 0 127.5 44t70.5 127q17 82 -18.5 125.5t-109.5 43.5h-123z" />
    <glyph glyph-name="afii10019" unicode="&#x412;" horiz-adv-x="645" 
d="M173 700h304q105 0 159.5 -47t37.5 -128q-13 -63 -61 -106t-120 -60q78 -15 115.5 -61t23.5 -115q-18 -84 -100 -133.5t-199 -49.5h-304l2 16l67 16l131 635l-60 17zM199 27h123q77 0 132.5 41t71.5 118t-22 118t-116 41h-123zM455 671h-123l-61 -299h123
q64 0 111.5 38.5t62.5 111.5q15 72 -16.5 110.5t-96.5 38.5z" />
    <glyph glyph-name="afii10020" unicode="&#x413;" horiz-adv-x="565" 
d="M332 671l-130 -631l88 -21l-3 -19h-258l3 19l68 22l129 626l-60 17l4 16h492l-22 -126h-24l-22 97h-265z" />
    <glyph glyph-name="afii10021" unicode="&#x414;" horiz-adv-x="721" 
d="M625 0h-531l-67 -145h-29l34 172h80q38 20 71 123l164 517l-60 17l3 16h534l-3 -16l-67 -18l-133 -639h76l-36 -172h-29zM383 671l-164 -518q-29 -94 -64 -126h364l133 644h-269z" />
    <glyph glyph-name="afii10022" unicode="&#x415;" horiz-adv-x="612" 
d="M199 27h300l61 99h25l-31 -126h-525l2 16l67 16l131 635l-60 17l4 16h516l-21 -126h-25l-21 97h-290l-61 -297h231l34 75h23l-35 -177h-24l-4 74h-231z" />
    <glyph glyph-name="afii10024" unicode="&#x416;" horiz-adv-x="1039" 
d="M315 664l-6 -33q-5 -25 -23 -40t-42 -15q-26 0 -36.5 16t-5.5 41q7 35 36 54t68 19q49 0 69.5 -31t28.5 -99l11 -86q7 -58 35 -87t94 -29l-1 -2h1l60 290l-60 19l4 19h229l-3 -19l-68 -20l-60 -287q67 0 106.5 29t71.5 87l46 86q36 68 70 99t82 31q39 0 60 -19t14 -54
q-5 -25 -22 -41t-41 -16q-25 0 -36.5 15t-6.5 40l7 33q-6 3 -12 3q-38 0 -91 -100l-44 -83q-45 -83 -100 -112q94 -3 132 -32.5t41 -102.5l5 -107q2 -55 11 -77t35 -22q25 0 48 17l7 -11q-46 -43 -106 -43q-50 0 -70.5 30t-23.5 99l-4 108q-2 64 -30.5 90.5t-97.5 26.5h-56
l-64 -310l60 -19l-3 -19h-230l4 19l67 22l64 307h-54q-69 0 -109 -26.5t-69 -90.5l-49 -108q-30 -69 -63 -99t-84 -30q-57 0 -87 43l12 11q14 -17 39 -17q26 0 44.5 22t42.5 77l49 107q33 74 83.5 103t145.5 32q-42 28 -52 112l-10 83q-13 100 -50 100q-7 0 -13 -3z" />
    <glyph glyph-name="afii10025" unicode="&#x417;" horiz-adv-x="607" 
d="M197 536h-26l35 133l13 12l32 -20q84 45 187 45q106 0 160.5 -48.5t36.5 -132.5q-13 -64 -61 -107t-119 -59q78 -15 115.5 -61t22.5 -115q-18 -87 -100.5 -138t-199.5 -51q-116 0 -178 45l-40 -20l-9 12l20 134h25q1 -42 18 -72t44.5 -43.5t52.5 -19t52 -5.5
q80 0 136.5 41.5t72.5 119.5q16 79 -24 119t-127 40q-45 0 -89 -4l7 35q43 -4 87 -4q157 0 188 148q15 76 -16.5 115.5t-99.5 39.5q-24 0 -50.5 -5.5t-58.5 -19t-60.5 -43t-46.5 -71.5z" />
    <glyph glyph-name="afii10026" unicode="&#x418;" horiz-adv-x="740" 
d="M32 19l68 22l128 621l-59 19l4 19h229l-4 -19l-68 -20l-113 -544l461 527l3 18l-59 19l4 19h229l-4 -19l-67 -20l-129 -623l60 -19l-4 -19h-229l4 19l67 22l113 543l-461 -527l-3 -19l59 -19l-3 -19h-229z" />
    <glyph glyph-name="afii10027" unicode="&#x419;" horiz-adv-x="740" 
d="M594 795l11 53q4 21 20.5 35t36.5 14t30.5 -13.5t6.5 -35.5q-6 -29 -35 -50.5t-65.5 -31.5t-73.5 -10q-59 0 -101 25t-34 68q5 22 21 35t35 13q20 0 30.5 -14t6.5 -35l-10 -53q22 -15 58 -15t63 15zM32 19l68 22l128 621l-59 19l4 19h229l-4 -19l-68 -20l-113 -544
l461 527l3 18l-59 19l4 19h229l-4 -19l-67 -20l-129 -623l60 -19l-4 -19h-229l4 19l67 22l113 543l-461 -527l-3 -19l59 -19l-3 -19h-229z" />
    <glyph glyph-name="afii10028" unicode="&#x41a;" horiz-adv-x="681" 
d="M661 48l8 -11q-49 -43 -111 -43q-53 0 -75.5 30t-24.5 99l-4 111q-1 59 -33 86.5t-102 27.5h-57l-64 -310l60 -19l-3 -19h-230l4 19l68 22l128 621l-59 19l3 19h229l-3 -19l-68 -20l-60 -289l1 2q74 0 117 28.5t72 86.5l45 87q31 64 67 97t89 33q40 0 61 -19t14 -54
q-5 -26 -22 -41.5t-42 -15.5q-24 0 -35.5 15t-6.5 40l6 33q-3 3 -11 3q-47 0 -96 -100l-42 -85q-40 -81 -102 -111q93 -4 132.5 -33.5t42.5 -97.5l4 -110q2 -54 13 -76.5t37 -22.5q27 0 50 17z" />
    <glyph glyph-name="afii10029" unicode="&#x41b;" horiz-adv-x="732" 
d="M220 150l164 517l-59 17l3 16h519l-3 -16l-67 -18l-130 -628l60 -19l-4 -19h-229l4 19l67 22l130 630h-255l-164 -518q-48 -158 -142 -158q-33 0 -55 17.5t-14 53.5q5 26 22.5 41t40.5 15q24 0 35 -14t7 -39l-7 -30q3 -2 8 -2q13 0 31.5 28t37.5 85z" />
    <glyph glyph-name="afii10030" unicode="&#x41c;" horiz-adv-x="910" 
d="M918 661l-82 -623l58 -19l-4 -19h-228l4 19l68 22l74 549l-368 -590h-39l-128 591l-157 -558l59 -20l-3 -13h-153l3 14l67 22l175 626l-60 19l4 19h146l123 -595l371 595h140l-3 -19z" />
    <glyph glyph-name="afii10031" unicode="&#x41d;" horiz-adv-x="747" 
d="M32 19l68 22l128 621l-59 19l4 19h229l-4 -19l-68 -20l-60 -292h358l60 293l-59 19l4 19h229l-4 -19l-68 -20l-128 -623l60 -19l-4 -19h-229l4 19l67 22l62 300h-358l-62 -303l59 -19l-3 -19h-229z" />
    <glyph glyph-name="afii10032" unicode="&#x41e;" horiz-adv-x="759" 
d="M122 350q34 163 144.5 259.5t257.5 96.5q148 0 219 -96.5t37 -259.5q-33 -163 -144 -259.5t-259 -96.5q-147 0 -217.5 96.5t-37.5 259.5zM230 349q-32 -158 10.5 -243.5t142.5 -85.5t178.5 85.5t110.5 243.5t-10.5 244.5t-141.5 86.5q-100 0 -179 -86.5t-111 -244.5z" />
    <glyph glyph-name="afii10033" unicode="&#x41f;" horiz-adv-x="730" 
d="M32 19l68 22l129 626l-60 17l4 16h672l-3 -16l-67 -18l-130 -628l60 -19l-4 -19h-229l4 19l68 22l129 630h-341l-130 -633l59 -19l-3 -19h-229z" />
    <glyph glyph-name="afii10034" unicode="&#x420;" horiz-adv-x="616" 
d="M427 671h-95l-130 -631l91 -21l-4 -19h-260l3 19l68 22l129 626l-60 17l4 16h274q114 0 173 -54.5t39 -147.5q-18 -92 -99.5 -146t-195.5 -54h-72l-11 13l3 14h72q73 0 126.5 44.5t70.5 128.5t-17.5 128.5t-108.5 44.5z" />
    <glyph glyph-name="afii10035" unicode="&#x421;" horiz-adv-x="695" 
d="M647 113l14 -16q-121 -103 -277 -103q-153 0 -224.5 95.5t-37.5 259.5t145 260.5t262 96.5q119 0 187 -56l42 23l9 -12l-21 -137h-25q-3 46 -21.5 78t-47.5 47t-55 20.5t-55 5.5q-116 0 -197.5 -83t-114.5 -240q-30 -148 17.5 -233.5t176.5 -85.5t223 80z" />
    <glyph glyph-name="afii10036" unicode="&#x422;" horiz-adv-x="658" 
d="M699 671h-178l-130 -633l59 -19l-3 -19h-229l4 19l67 22l130 630h-177l-61 -99h-26l33 128h578l-21 -126h-25z" />
    <glyph glyph-name="afii10037" unicode="&#x423;" horiz-adv-x="691" 
d="M367 197l-152 466l-59 18l4 19h231l-3 -19l-67 -18l117 -373l277 373l-80 18l4 19h179l-4 -19l-68 -18l-333 -448q-96 -129 -145 -175t-103 -46q-37 0 -62 17.5t-18 56.5q6 28 25 42.5t41 14.5q24 0 36 -15t7 -38l-9 -41q6 -3 11 -3q26 0 66 41t105 128z" />
    <glyph glyph-name="afii10038" unicode="&#x424;" horiz-adv-x="858" 
d="M615 661l-9 -44q149 0 224 -71.5t49 -195.5q-25 -124 -129.5 -195t-253.5 -71l-9 -46l58 -19l-3 -19h-228l3 19l68 22l9 43q-148 0 -222.5 71t-49.5 196q26 123 130 194.5t252 71.5l9 45l-59 19l3 19h229l-4 -19zM399 109l100 483q-101 0 -173 -62.5t-95 -179.5
q-25 -117 21.5 -179t146.5 -62zM601 592l-100 -483q102 0 174 62t96 179t-22.5 179.5t-147.5 62.5z" />
    <glyph glyph-name="afii10039" unicode="&#x425;" horiz-adv-x="726" 
d="M545 37l-147 288l-273 -288l75 -18l-4 -19h-178l3 19l71 18l295 310l-160 316l-58 18l4 19h233l-3 -19l-67 -18l134 -269l250 269l-75 18l4 19h178l-4 -19l-69 -18l-272 -290l172 -336l57 -18l-3 -19h-233l4 19z" />
    <glyph glyph-name="afii10040" unicode="&#x426;" horiz-adv-x="734" 
d="M640 0h-611l2 16l67 16l130 630l-59 19l4 19h229l-4 -19l-68 -20l-131 -634h338l131 635l-60 19l4 19h229l-3 -19l-68 -20l-131 -634h75l-36 -172h-29z" />
    <glyph glyph-name="afii10041" unicode="&#x427;" horiz-adv-x="696" 
d="M330 661l-37 -179q-33 -157 101 -157q41 0 93.5 12t90.5 34l60 291l-59 19l4 19h229l-4 -19l-68 -20l-128 -623l59 -19l-3 -19h-229l4 19l67 22l62 301q-46 -26 -112 -40t-120 -14q-96 0 -132.5 49t-18.5 136l39 189l-59 19l4 19h229l-4 -19z" />
    <glyph glyph-name="afii10042" unicode="&#x428;" horiz-adv-x="1067" 
d="M31 16l67 16l130 630l-59 19l4 19h229l-4 -19l-68 -20l-131 -634h289l131 635l-60 19l4 19h230l-4 -19l-67 -20l-131 -634h287l131 635l-59 19l4 19h229l-4 -19l-67 -20l-130 -629l60 -15l-3 -17h-1010z" />
    <glyph glyph-name="afii10043" unicode="&#x429;" horiz-adv-x="1076" 
d="M981 0h-952l2 16l67 16l130 630l-59 19l4 19h229l-4 -19l-68 -20l-131 -634h289l131 635l-60 19l4 19h230l-4 -19l-67 -20l-131 -634h287l131 635l-59 19l4 19h229l-4 -19l-67 -20l-131 -634h74l-35 -172h-30z" />
    <glyph glyph-name="afii10044" unicode="&#x42a;" horiz-adv-x="784" 
d="M492 666l-59 -278h128q113 0 172 -52t41 -142q-19 -90 -99.5 -142t-193.5 -52h-293l3 16l67 16l132 639h-148l-62 -99h-26l33 128h374l-3 -16zM359 27h110q74 0 127.5 43.5t70.5 123.5q16 80 -19.5 123t-108.5 43h-111z" />
    <glyph glyph-name="afii10045" unicode="&#x42b;" horiz-adv-x="875" 
d="M330 661l-57 -273h128q113 0 172 -52t41 -142q-19 -90 -99.5 -142t-192.5 -52h-293l2 16l67 16l130 630l-59 19l4 19h229l-4 -19zM199 27h111q73 0 126.5 43.5t70.5 123.5q16 80 -19.5 123t-108.5 43h-111zM920 661l-128 -623l57 -19l-3 -19h-228l4 19l68 22l128 621
l-60 19l4 19h227l-3 -19z" />
    <glyph glyph-name="afii10046" unicode="&#x42c;" horiz-adv-x="624" 
d="M330 661l-57 -273h128q113 0 172 -52t41 -142q-19 -90 -99.5 -142t-192.5 -52h-293l2 16l67 16l130 630l-59 19l4 19h229l-4 -19zM199 27h111q73 0 126.5 43.5t70.5 123.5q16 80 -19.5 123t-108.5 43h-111z" />
    <glyph glyph-name="afii10047" unicode="&#x42d;" horiz-adv-x="695" 
d="M611 342h-338l5 28h338q25 148 -20 226.5t-159 78.5q-29 0 -58 -5.5t-65 -20t-68 -47t-52 -78.5h-26l35 135l13 12l33 -21q91 56 210 56q152 0 223.5 -96.5t37.5 -260.5q-34 -163 -145.5 -259t-265.5 -96q-123 0 -190 55l-40 -21l-10 12l21 135h26q1 -37 14 -64.5
t32 -43.5t44.5 -26t47.5 -13t45 -3q118 0 198 81t114 236z" />
    <glyph glyph-name="afii10048" unicode="&#x42e;" horiz-adv-x="993" 
d="M32 19l68 22l128 621l-59 19l4 19h229l-4 -19l-68 -20l-60 -292h139q38 155 140 246t234 91q136 0 200.5 -97t30.5 -259q-33 -163 -137.5 -259.5t-239.5 -96.5t-199 93.5t-34 253.5h-140l-62 -303l59 -19l-3 -19h-229zM514 349q-33 -158 3 -243.5t125 -85.5
q88 0 159.5 85.5t104.5 243.5q32 158 -3.5 244.5t-123.5 86.5q-89 0 -161 -86.5t-104 -244.5z" />
    <glyph glyph-name="afii10049" unicode="&#x42f;" horiz-adv-x="653" 
d="M24 37l12 11q14 -17 40 -17q22 0 39 20t43 71l52 101q25 48 54 75t73 39q-82 14 -120 61.5t-24 118.5q18 85 93.5 134t182.5 49h299l-4 -16l-66 -18l-130 -628l59 -19l-3 -19h-233l4 19l71 22l60 287h-51q-62 0 -100 -26.5t-68 -85.5l-51 -102q-31 -64 -63.5 -92
t-79.5 -28q-59 0 -89 43zM596 671h-117q-66 0 -115 -40.5t-64 -116.5q-16 -77 16 -117t99 -40h117z" />
    <glyph glyph-name="afii10065" unicode="&#x430;" horiz-adv-x="570" 
d="M571 65l7 -10q-29 -25 -66.5 -42.5t-67.5 -17.5q-61 0 -45 70l6 18l-2 3q-40 -43 -90.5 -66.5t-100.5 -23.5q-83 0 -114.5 64t-9.5 169q26 125 104 190t199 65q69 0 126 -23l54 26l10 -14l-81 -393q-9 -42 18 -42q23 0 53 27zM410 121l64 310q-39 27 -92 27
q-70 0 -119 -56t-71 -162q-20 -94 0 -150t74 -56q34 0 73 22.5t71 64.5z" />
    <glyph glyph-name="afii10066" unicode="&#x431;" horiz-adv-x="558" 
d="M187 396h4q31 41 81 64.5t110 23.5q106 0 156 -66.5t27 -179.5q-23 -112 -101 -177.5t-188 -65.5q-233 0 -166 325q19 95 53 165t74.5 108.5t85 63.5t90 35t84 15.5t72 13t49.5 21.5l10 -14q-36 -54 -89 -77.5t-103 -29t-99 -18.5t-89 -62.5t-61 -144.5zM197 239
q-21 -105 3 -161.5t85 -56.5t109 56.5t70 161.5t-3 162t-85 57t-108.5 -57t-70.5 -162z" />
    <glyph glyph-name="afii10067" unicode="&#x432;" horiz-adv-x="499" 
d="M489 128q-13 -61 -74.5 -97t-147.5 -36q-112 0 -156.5 64.5t-20.5 178.5q24 116 94.5 181t180.5 65q80 0 122 -33t31 -90q-10 -43 -43.5 -71.5t-84.5 -39.5q56 -11 82.5 -42.5t16.5 -79.5zM267 21q47 0 81 28.5t45 80.5q10 51 -13 78.5t-76 27.5h-116q-45 -215 79 -215z
M355 458q-116 0 -163 -195h112q97 0 118 97q10 47 -8 72.5t-59 25.5z" />
    <glyph glyph-name="afii10068" unicode="&#x433;" horiz-adv-x="431" 
d="M461 371q-8 -37 -38.5 -66t-70 -47t-78.5 -36t-69 -43.5t-37 -58.5q-8 -38 16.5 -63.5t74.5 -25.5q75 0 137 53l13 -17q-86 -72 -195 -72q-80 0 -119.5 34.5t-28.5 87.5q8 37 38.5 64.5t69.5 45.5t78 35.5t69.5 44t37.5 60.5q7 36 -14 58.5t-70 22.5q-71 0 -132 -52
l-13 17q86 72 190 72q77 0 114.5 -31t26.5 -83z" />
    <glyph glyph-name="afii10069" unicode="&#x434;" horiz-adv-x="559" 
d="M504 402h4q16 65 3 115.5t-37.5 86.5t-65 61t-79 38.5t-80.5 19.5l22 18q46 -6 83.5 -15t76 -25t67 -38t51.5 -54.5t33.5 -74t10.5 -97.5t-14 -124q-33 -163 -110.5 -240.5t-189.5 -77.5q-108 0 -158 65.5t-27 177.5q23 113 100 179.5t180 66.5q108 0 130 -82zM462 239
q22 105 -2.5 162t-85.5 57t-109 -57t-70 -162q-21 -105 3 -161.5t85 -56.5t109 56.5t70 161.5z" />
    <glyph glyph-name="afii10070" unicode="&#x435;" horiz-adv-x="506" 
d="M190 230q-40 -198 133 -198q86 0 148 52l14 -17q-85 -72 -203 -72q-115 0 -165 67t-27 178q23 114 102.5 179t196.5 65q79 0 118 -32t27 -93q-5 -27 -21 -47t-52 -38.5t-104 -29.5t-167 -14zM375 458q-57 0 -107.5 -52t-73.5 -151q118 4 179.5 28t72.5 80q8 40 -10 67.5
t-61 27.5z" />
    <glyph glyph-name="afii10072" unicode="&#x436;" horiz-adv-x="871" 
d="M138 58l-6 -34q32 0 70 59.5t57 151.5q14 57 8 95.5t-15.5 60.5t-28.5 33.5t-30.5 14.5t-21.5 3q-26 0 -59 -27l-8 10q69 60 133 60q14 0 29 -4t36.5 -17t33 -38.5t18 -68.5t-8.5 -106q-7 -31 -13 -48l124 130l31 148h81l10 -14l-57 -281l132 140q33 76 85.5 117.5
t116.5 41.5q44 0 61.5 -18t11.5 -45q-5 -24 -22.5 -38.5t-37.5 -14.5q-21 0 -32 15t-7 37l7 35q-32 0 -70 -60t-57 -151q-8 -40 -8.5 -72.5t4.5 -53.5t14.5 -37t20 -24.5t22.5 -13.5t19.5 -6t13.5 -1q27 0 60 27l8 -10q-70 -59 -132 -59q-11 0 -23 2.5t-30 11t-30.5 23.5
t-24 41t-10.5 64t10 91q5 26 12 48l-122 -129l-30 -147h-83l-10 13l58 280l-135 -141q-33 -75 -85 -116t-115 -41q-44 0 -61.5 18t-11.5 45q4 24 21.5 38t37.5 14q21 0 32.5 -14.5t6.5 -37.5z" />
    <glyph glyph-name="afii10073" unicode="&#x437;" horiz-adv-x="475" 
d="M336 484q85 0 127 -33t31 -89q-10 -43 -43.5 -72.5t-84.5 -40.5q56 -10 83 -42t17 -80q-13 -61 -75 -96.5t-156 -35.5q-79 0 -129 27t-41 75q5 23 21.5 36t35.5 13q21 0 31.5 -14.5t6.5 -38.5l-10 -50q32 -22 82 -22q52 0 87.5 28.5t45.5 80.5t-13.5 79t-77.5 27
q-18 0 -64 -4l7 34q7 0 27.5 -1.5t28.5 -1.5q99 0 119 97q10 48 -8.5 73t-60.5 25q-47 0 -84 -22l-11 -50q-4 -24 -21 -38.5t-38 -14.5q-19 0 -29.5 13t-6.5 37q10 47 69 74t134 27z" />
    <glyph glyph-name="afii10074" unicode="&#x438;" 
d="M97 415l-8 10q29 25 67.5 42.5t67.5 17.5q60 0 45 -70l-54 -261q-11 -55 4 -87.5t54 -32.5q34 0 76 25t77 71l72 350h86l10 -14l-80 -386q-9 -42 18 -42q23 0 53 27l7 -10q-29 -25 -66.5 -42.5t-67.5 -17.5q-60 0 -45 70l8 25l-2 4q-43 -47 -98.5 -73t-103.5 -26
q-65 0 -90.5 41.5t-11.5 107.5l53 256q9 42 -19 42q-20 0 -52 -27z" />
    <glyph glyph-name="afii10075" unicode="&#x439;" 
d="M471 585l11 53q4 21 20.5 34.5t36.5 13.5t30.5 -13t5.5 -36q-8 -42 -61 -67t-112 -25q-58 0 -100.5 25t-34.5 68q5 22 20.5 35t34.5 13q21 0 31.5 -13.5t6.5 -34.5l-11 -53q25 -16 58 -16t64 16zM97 415l-8 10q29 25 67.5 42.5t67.5 17.5q60 0 45 -70l-54 -261
q-11 -55 4 -87.5t54 -32.5q34 0 76 25t77 71l72 350h86l10 -14l-80 -386q-9 -42 18 -42q23 0 53 27l7 -10q-29 -25 -66.5 -42.5t-67.5 -17.5q-60 0 -45 70l8 25l-2 4q-43 -47 -98.5 -73t-103.5 -26q-65 0 -90.5 41.5t-11.5 107.5l53 256q9 42 -19 42q-20 0 -52 -27z" />
    <glyph glyph-name="afii10076" unicode="&#x43a;" horiz-adv-x="523" 
d="M97 415l-8 10q29 25 67.5 42.5t67.5 17.5q60 0 45 -70l-85 -415h-85l-11 13l80 387q9 42 -18 42q-21 0 -53 -27zM455 423l5 26q-42 -9 -90.5 -66.5t-81.5 -111.5q35 -8 60.5 -32t37 -46.5t28 -62t25.5 -57.5q18 -35 42 -35q22 0 53 27l8 -10q-69 -59 -123 -59
q-53 0 -82 65q-7 17 -19.5 62.5t-28 74t-43.5 43.5q3 4 19 30.5t31 49.5t40 54.5t49 54t54.5 38.5t58.5 16q32 0 48 -18t11 -45q-5 -23 -23 -37.5t-38 -14.5q-22 0 -34 15.5t-7 38.5z" />
    <glyph glyph-name="afii10077" unicode="&#x43b;" horiz-adv-x="531" 
d="M132 55l-3 -18q24 0 53 68t68 194q14 50 30 79.5t48 55t85 36t134 10.5l-83 -400q-5 -21 1 -31.5t18 -10.5q24 0 54 27l7 -10q-29 -25 -67 -42.5t-68 -17.5q-27 0 -40.5 17t-5.5 53l78 380q-71 0 -107 -36t-57 -110q-17 -57 -28.5 -92t-30 -80.5t-36 -70.5t-41.5 -43
t-51 -18q-30 0 -44.5 16t-9.5 40q6 24 23 37.5t37 13.5q19 0 30 -13.5t6 -33.5z" />
    <glyph glyph-name="afii10078" unicode="&#x43c;" horiz-adv-x="754" 
d="M134 55l-4 -19q20 0 40.5 46.5t48.5 154.5l63 243h84l67 -376l235 376h83l-61 -400q-7 -42 19 -42q23 0 53 27l8 -10q-29 -25 -67 -42.5t-68 -17.5q-57 0 -46 70l49 323l-242 -388h-38l-72 389l-39 -152q-16 -61 -29.5 -101t-31.5 -74.5t-41 -50.5t-52 -16
q-32 0 -45.5 16t-9.5 40q5 24 22.5 37.5t37.5 13.5q19 0 29.5 -13t6.5 -34z" />
    <glyph glyph-name="afii10079" unicode="&#x43d;" horiz-adv-x="586" 
d="M184 0h-85l-11 13l80 387q9 42 -19 42q-20 0 -52 -27l-8 10q29 25 67.5 42.5t67.5 17.5q60 0 45 -70l-32 -156h217l46 221h85l10 -14l-79 -386q-9 -42 17 -42q22 0 54 27l7 -10q-30 -25 -67.5 -42.5t-67.5 -17.5q-60 0 -45 70l34 166h-216z" />
    <glyph glyph-name="afii10080" unicode="&#x43e;" horiz-adv-x="558" 
d="M90 239q23 112 102 178.5t186 66.5q106 0 158 -67t29 -178q-23 -112 -102 -178t-186 -66t-158.5 66t-28.5 178zM191 239q-21 -105 4 -161.5t87 -56.5t111.5 56.5t71.5 161.5t-3.5 162t-88.5 57q-62 0 -111 -57t-71 -162z" />
    <glyph glyph-name="afii10081" unicode="&#x43f;" horiz-adv-x="588" 
d="M97 415l-8 10q29 25 67.5 42.5t67.5 17.5q60 0 45 -70l-8 -25l2 -3q43 47 99.5 72t103.5 25q67 0 92 -46t9 -122l-48 -236q-10 -42 17 -42q23 0 53 27l8 -10q-30 -25 -67.5 -42.5t-67.5 -17.5q-60 0 -45 70l49 240q14 64 -1 102t-57 38q-33 0 -75 -25t-76 -69l-73 -351
h-85l-11 13l80 387q9 42 -19 42q-20 0 -52 -27z" />
    <glyph glyph-name="afii10082" unicode="&#x440;" horiz-adv-x="569" 
d="M-18 -225l4 19l61 21l121 585q9 42 -19 42q-20 0 -52 -27l-8 10q29 25 67.5 42.5t67.5 17.5q60 0 45 -70l-6 -19l2 -3q39 43 89.5 67t100.5 24q83 0 114 -64.5t9 -170.5q-25 -122 -99 -188t-183 -66q-68 0 -107 27l-44 -208l86 -20l-4 -19h-245zM258 358l-64 -309
q38 -29 91 -29q69 0 119.5 56.5t71.5 162.5q20 95 0 150.5t-74 55.5q-35 0 -73.5 -22t-70.5 -65z" />
    <glyph glyph-name="afii10083" unicode="&#x441;" horiz-adv-x="520" 
d="M439 364l14 69q-29 25 -78 25q-65 0 -113 -55t-68 -151q-22 -106 11 -163.5t116 -57.5q84 0 146 53l14 -17q-85 -72 -202 -72q-113 0 -163 66t-26 178q23 114 98.5 179.5t188.5 65.5q78 0 127.5 -32t38.5 -87q-6 -27 -23.5 -41.5t-38.5 -14.5q-23 0 -35 15t-7 40z" />
    <glyph glyph-name="afii10084" unicode="&#x442;" horiz-adv-x="843" 
d="M97 415l-8 10q29 25 67.5 42.5t67.5 17.5q60 0 45 -70l-8 -26l2 -3q40 47 91 72.5t92 25.5q84 0 95 -103q42 49 95 76t97 27q61 0 83 -46t6 -122l-49 -236q-9 -42 18 -42q23 0 52 27l9 -10q-30 -25 -68 -42.5t-67 -17.5q-60 0 -45 70l49 240q14 61 2 100.5t-50 39.5
q-26 0 -63 -23t-70 -67q-2 -26 -5 -39l-64 -316h-86l-11 13l60 292q14 62 3 101t-48 39q-27 0 -64.5 -25t-68.5 -70l-72 -350h-85l-11 13l80 387q9 42 -19 42q-20 0 -52 -27z" />
    <glyph glyph-name="afii10085" unicode="&#x443;" horiz-adv-x="555" 
d="M75 -156l-6 -32q3 -3 9 -3q20 0 78 49t121 125l-94 424q-8 35 -34 35q-23 0 -55 -27l-8 10q72 60 132 60q27 0 41 -15t22 -51l71 -358q21 26 53 67t89 127.5t65 126.5h-29q-22 0 -33.5 14.5t-7.5 36.5q5 22 23 36.5t40 14.5q25 0 38.5 -19.5t6.5 -53.5
q-12 -57 -82.5 -165t-158 -212.5t-180 -183t-141.5 -78.5q-25 0 -45 17t-13 51q5 25 21.5 38.5t37.5 13.5q22 0 33 -13.5t6 -34.5z" />
    <glyph glyph-name="afii10086" unicode="&#x444;" horiz-adv-x="782" 
d="M532 448q54 37 127 37q89 0 121.5 -64.5t9.5 -171.5q-25 -121 -95.5 -187t-172.5 -66q-44 0 -80 17l-42 -201l56 -18l-4 -19h-216l4 19l62 21l39 184l8 27l-2 3q-56 -35 -128 -35q-89 0 -121 64.5t-9 171.5q25 121 95.5 187t172.5 66q45 0 80 -16l46 220l-53 15l4 21
l145 18l10 -13l-50 -247l-9 -30zM270 29q42 0 82 26l80 386q-32 16 -64 16q-63 0 -109 -56t-68 -162q-20 -99 0.5 -154.5t78.5 -55.5zM610 449q-42 0 -83 -27l-80 -385q32 -15 64 -15q62 0 108.5 55.5t68.5 162.5q20 99 -1 154t-77 55z" />
    <glyph glyph-name="afii10087" unicode="&#x445;" horiz-adv-x="537" 
d="M142 57l-5 -25q68 16 150 195l-72 173q-17 42 -40 42q-20 0 -52 -27l-7 10q67 60 110 60q51 0 80 -70l47 -113q91 182 189 182q31 0 46.5 -18t10.5 -46q-4 -23 -22 -37t-39 -14q-22 0 -34 14.5t-7 37.5l5 25q-62 -15 -137 -173l81 -193q17 -42 41 -42q23 0 50 27l8 -10
q-67 -60 -111 -60q-52 0 -79 70l-57 135q-16 -34 -34.5 -65.5t-45 -65t-58.5 -54t-64 -20.5q-31 0 -46 17.5t-10 45.5q5 23 22.5 37.5t38.5 14.5q23 0 34.5 -15.5t6.5 -37.5z" />
    <glyph glyph-name="afii10088" unicode="&#x446;" horiz-adv-x="585" 
d="M585 65l7 -10q-4 -4 -6 -5q-25 -25 -30 -49q-5 -22 7 -45.5t9 -37.5q-9 -36 -83 -98l-8 10q31 27 36 54q5 23 -6.5 46t-8.5 37q4 20 29 48q-38 -20 -73 -20q-60 0 -45 70l8 25l-2 4q-43 -47 -98.5 -73t-103.5 -26q-65 0 -90.5 41.5t-11.5 107.5l53 256q9 42 -19 42
q-20 0 -52 -27l-8 10q29 25 67.5 42.5t67.5 17.5q60 0 45 -70l-54 -261q-11 -55 4 -87.5t54 -32.5q34 0 76 25t77 71l72 350h86l10 -14l-80 -386q-9 -42 18 -42q19 0 44 19z" />
    <glyph glyph-name="afii10089" unicode="&#x447;" horiz-adv-x="565" 
d="M480 480h85l10 -14l-79 -386q-10 -42 18 -42q21 0 53 27l7 -10q-29 -25 -66.5 -42.5t-67.5 -17.5q-61 0 -46 70l35 172q-34 -26 -82 -40t-89 -14q-66 0 -92 40t-13 106l15 71q9 42 -19 42q-20 0 -52 -27l-8 10q29 25 67.5 42.5t67.5 17.5q60 0 45 -70l-15 -77
q-25 -118 58 -118q27 0 62.5 12t60.5 34z" />
    <glyph glyph-name="afii10090" unicode="&#x448;" horiz-adv-x="843" 
d="M843 65l9 -10q-30 -25 -68 -42.5t-67 -17.5q-60 0 -45 70l7 25l-2 3q-40 -47 -90.5 -72t-91.5 -25q-42 0 -66 27t-29 75q-41 -48 -94.5 -75t-95.5 -27q-63 0 -85 45.5t-6 122.5l49 236q9 42 -19 42q-20 0 -52 -27l-8 10q29 25 67.5 42.5t67.5 17.5q60 0 45 -70l-49 -240
q-14 -62 -2 -101t51 -39q24 0 62 24t70 66q0 20 4 39l66 316h86l9 -14l-60 -291q-14 -62 -2.5 -101t49.5 -39q26 0 63.5 25.5t68.5 69.5l72 350h86l10 -14l-80 -386q-9 -42 18 -42q23 0 52 27z" />
    <glyph glyph-name="afii10091" unicode="&#x449;" horiz-adv-x="843" 
d="M843 65l9 -10l-3 -3q-29 -25 -34 -51q-4 -22 7 -45.5t8 -37.5q-7 -36 -82 -98l-8 10q28 24 35 54q5 23 -6 45.5t-8 37.5q3 20 29 48q-43 -20 -73 -20q-60 0 -45 70l7 25l-2 3q-40 -47 -90.5 -72t-91.5 -25q-42 0 -66 27t-29 75q-41 -48 -94.5 -75t-95.5 -27
q-63 0 -85 45.5t-6 122.5l49 236q9 42 -19 42q-20 0 -52 -27l-8 10q29 25 67.5 42.5t67.5 17.5q60 0 45 -70l-49 -240q-14 -62 -2 -101t51 -39q24 0 62 24t70 66q0 20 4 39l66 316h86l9 -14l-60 -291q-14 -62 -2.5 -101t49.5 -39q26 0 63.5 25.5t68.5 69.5l72 350h86l10 -14
l-80 -386q-9 -42 18 -42q15 0 41 17z" />
    <glyph glyph-name="afii10092" unicode="&#x44a;" horiz-adv-x="552" 
d="M386 486l8 -11q-63 -91 -105 -206q50 22 106 22q81 0 124.5 -40.5t29.5 -106.5q-14 -69 -80 -109t-163 -40q-88 0 -127.5 38.5t-20.5 127.5q10 51 41.5 120t79.5 130q-14 -2 -20 -2q-18 0 -42.5 14.5t-50.5 14.5q-38 0 -69 -27l-8 10q80 68 137 68q17 0 40.5 -15
t47.5 -15q40 0 72 27zM362 261q-38 0 -83 -21q-19 -60 -24 -91q-28 -127 62 -127q46 0 82 31t48 88q12 56 -11.5 88t-73.5 32z" />
    <glyph glyph-name="afii10093" unicode="&#x44b;" horiz-adv-x="739" 
d="M565 415l-8 10q73 60 135 60q61 0 46 -70l-69 -335q-9 -42 18 -42q23 0 53 27l7 -10q-29 -25 -67 -42.5t-67 -17.5q-61 0 -45 70l68 335q9 42 -18 42q-19 0 -53 -27zM97 415l-8 10q29 25 67.5 42.5t67.5 17.5q60 0 45 -70l-31 -151q59 27 118 27q81 0 124 -40.5
t29 -106.5q-14 -69 -79.5 -109t-158.5 -40q-85 0 -129 35t-30 102l56 268q9 42 -18 42q-21 0 -53 -27zM323 261q-43 0 -90 -25l-26 -123q-8 -39 12 -65t61 -26q44 0 79.5 31t47.5 88q12 56 -11 88t-73 32z" />
    <glyph glyph-name="afii10094" unicode="&#x44c;" horiz-adv-x="513" 
d="M97 415l-8 10q29 25 67.5 42.5t67.5 17.5q60 0 45 -70l-31 -151q59 27 118 27q81 0 124 -40.5t29 -106.5q-14 -69 -79.5 -109t-158.5 -40q-85 0 -129 35t-30 102l56 268q9 42 -18 42q-21 0 -53 -27zM323 261q-43 0 -90 -25l-26 -123q-8 -39 12 -65t61 -26q44 0 79.5 31
t47.5 88q12 56 -11 88t-73 32z" />
    <glyph glyph-name="afii10095" unicode="&#x44d;" horiz-adv-x="516" 
d="M334 484q115 0 164 -65.5t26 -178.5q-24 -115 -101.5 -180t-193.5 -65q-75 0 -123.5 28.5t-38.5 76.5q4 23 20 36t35 13q21 0 32 -14.5t6 -37.5l-11 -52q36 -24 84 -24q68 0 117 55.5t71 155.5h-198l5 28h198q17 95 -11 146.5t-93 51.5q-47 0 -84 -22l-10 -50
q-5 -24 -21.5 -38.5t-37.5 -14.5q-20 0 -30.5 13t-5.5 36q10 48 68.5 75t132.5 27z" />
    <glyph glyph-name="afii10096" unicode="&#x44e;" horiz-adv-x="775" 
d="M184 0h-85l-11 13l80 387q9 42 -19 42q-20 0 -52 -27l-8 10q29 25 67.5 42.5t67.5 17.5q60 0 45 -70l-32 -156h97q27 103 101.5 164t171.5 61q101 0 149.5 -66.5t25.5 -178.5q-22 -111 -98 -177.5t-177 -66.5q-100 0 -149 63.5t-29 172.5h-97zM431 239q-21 -105 1 -161.5
t80 -56.5q56 0 102 56.5t67 161.5q22 105 0 162t-78 57q-58 0 -104 -56.5t-68 -162.5z" />
    <glyph glyph-name="afii10097" unicode="&#x44f;" horiz-adv-x="540" 
d="M350 480h201l-83 -400q-9 -42 19 -42q22 0 52 27l9 -10q-31 -25 -68.5 -42.5t-66.5 -17.5q-61 0 -46 70l31 153h-36q-42 0 -69.5 -15.5t-47.5 -54.5l-34 -68q-23 -45 -45 -65t-62 -20q-56 0 -81 33l12 10q13 -11 29 -11t27 12.5t28 47.5l33 61q32 65 102 81
q-62 9 -93 41.5t-21 82.5q12 58 70 92.5t140 34.5zM327 246h77l43 207h-77q-49 0 -84 -27t-46 -76q-10 -50 14 -77t73 -27z" />
    <glyph glyph-name="uni0450" unicode="&#x450;" horiz-adv-x="506" 
d="M190 230q-40 -198 133 -198q86 0 148 52l14 -17q-85 -72 -203 -72q-115 0 -165 67t-27 178q23 114 102.5 179t196.5 65q79 0 118 -32t27 -93q-5 -27 -21 -47t-52 -38.5t-104 -29.5t-167 -14zM375 458q-57 0 -107.5 -52t-73.5 -151q118 4 179.5 28t72.5 80q8 40 -10 67.5
t-61 27.5zM365 690l110 -140l-18 -15l-161 98z" />
    <glyph glyph-name="afii10071" unicode="&#x451;" horiz-adv-x="506" 
d="M190 230q-40 -198 133 -198q86 0 148 52l14 -17q-85 -72 -203 -72q-115 0 -165 67t-27 178q23 114 102.5 179t196.5 65q79 0 118 -32t27 -93q-5 -27 -21 -47t-52 -38.5t-104 -29.5t-167 -14zM375 458q-57 0 -107.5 -52t-73.5 -151q118 4 179.5 28t72.5 80q8 40 -10 67.5
t-61 27.5zM232 595q5 26 25.5 42.5t45.5 16.5t38.5 -17t8.5 -42t-25.5 -42t-45.5 -17q-26 0 -39 17t-8 42zM450 595q4 25 24.5 42t45.5 17t38.5 -16.5t8.5 -42.5q-5 -25 -25.5 -42t-45.5 -17t-38 16.5t-8 42.5z" />
    <glyph glyph-name="afii10099" unicode="&#x452;" horiz-adv-x="588" 
d="M184 0h-85l-11 13l116 566h-58l4 16l61 12l17 84l-56 14l4 18l147 19l11 -14l-25 -121h187l-6 -28h-187l-20 -99l-22 -90l2 -3q44 46 100.5 71.5t103.5 25.5q67 0 91.5 -46t8.5 -122l-63 -308q-23 -112 -81.5 -175t-138.5 -63q-46 0 -64 18t-12 45q4 24 22 38t39 14
q20 0 31.5 -14.5t7.5 -37.5l-8 -34q62 0 105 209l61 297q15 62 1 101t-56 39q-32 0 -75.5 -25t-78.5 -69z" />
    <glyph glyph-name="afii10100" unicode="&#x453;" horiz-adv-x="437" 
d="M252 550l167 140l46 -57l-200 -98zM461 371q-8 -37 -38.5 -66t-70 -47t-78.5 -36t-69 -43.5t-37 -58.5q-8 -38 16.5 -63.5t74.5 -25.5q75 0 137 53l13 -17q-86 -72 -195 -72q-80 0 -119.5 34.5t-28.5 87.5q8 37 38.5 64.5t69.5 45.5t78 35.5t69.5 44t37.5 60.5
q7 36 -14 58.5t-70 22.5q-71 0 -132 -52l-13 17q86 72 190 72q77 0 114.5 -31t26.5 -83z" />
    <glyph glyph-name="afii10101" unicode="&#x454;" horiz-adv-x="520" 
d="M386 458q-66 0 -116.5 -51.5t-74.5 -146.5h231l-5 -28h-231q-18 -96 15 -148t115 -52q86 0 145 52l14 -17q-86 -72 -202 -72q-113 0 -162 65.5t-25 176.5q24 114 101 180.5t193 66.5q74 0 122 -27t38 -75q-5 -23 -21 -36t-35 -13q-21 0 -31.5 14.5t-6.5 38.5l11 50
q-27 22 -75 22z" />
    <glyph glyph-name="afii10102" unicode="&#x455;" horiz-adv-x="445" 
d="M377 386l9 51q-25 21 -68 21q-46 0 -78 -22t-39 -59q-8 -36 13.5 -54.5t73.5 -34.5q86 -30 114 -56q41 -38 29 -101q-13 -63 -67 -99.5t-148 -36.5q-78 0 -119 26t-32 72q5 24 20.5 36.5t33.5 12.5q21 0 31 -13.5t6 -35.5l-11 -49q27 -23 75 -23q51 0 88 22.5t46 64.5
q8 38 -16 57.5t-84 38.5q-39 14 -59 23t-42.5 25.5t-29 40.5t0.5 57q12 61 61 97t137 36q73 0 113.5 -25t30.5 -72q-4 -24 -19.5 -36.5t-34.5 -12.5q-20 0 -30 14t-5 35z" />
    <glyph glyph-name="afii10103" unicode="&#x456;" horiz-adv-x="271" 
d="M97 415l-8 10q29 25 67.5 42.5t67.5 17.5q60 0 45 -70l-68 -335q-10 -42 18 -42q20 0 52 27l8 -10q-30 -25 -67.5 -42.5t-66.5 -17.5q-61 0 -46 70l69 335q9 42 -19 42q-20 0 -52 -27zM190 624q6 28 29 47t51 19t43 -19t8 -47q-5 -29 -27 -48t-51 -19t-44 19t-9 48z" />
    <glyph glyph-name="afii10104" unicode="&#x457;" horiz-adv-x="270" 
d="M116 605q5 25 25.5 42t45.5 17t38 -16.5t8 -42.5t-25 -42.5t-45 -16.5t-38.5 17t-8.5 42zM274 605q4 25 25 42t47 17q24 0 37 -17t8 -42t-25 -42t-45 -17q-26 0 -39 17t-8 42zM97 415l-8 10q29 25 67 42.5t68 17.5q60 0 45 -70l-68 -335q-10 -42 17 -42q21 0 53 27l8 -10
q-30 -25 -67.5 -42.5t-67.5 -17.5q-60 0 -45 70l69 335q9 42 -19 42q-20 0 -52 -27z" />
    <glyph glyph-name="afii10105" unicode="&#x458;" horiz-adv-x="269" 
d="M-10 -167l-7 -34q61 0 104 209l81 392q9 42 -18 42q-20 0 -54 -27l-7 10q29 25 67 42.5t68 17.5q60 0 45 -70l-83 -407q-23 -112 -81.5 -175t-138.5 -63q-45 0 -63 18t-12 45q4 24 21.5 38t38.5 14t32 -14.5t7 -37.5zM190 624q6 28 28.5 47t50.5 19t43 -19t8 -47
q-5 -29 -27 -48t-51 -19t-43.5 19t-8.5 48z" />
    <glyph glyph-name="afii10106" unicode="&#x459;" horiz-adv-x="775" 
d="M132 55l-3 -18q24 0 53 68t68 194q14 50 30 79.5t47.5 55t84.5 36t134 10.5l-45 -216q59 27 117 27q81 0 124.5 -40.5t29.5 -106.5q-14 -69 -79.5 -109t-159.5 -40q-84 0 -128 35t-30 102l65 313q-71 0 -106.5 -36t-56.5 -110q-17 -57 -28.5 -92t-30 -80.5t-36 -70.5
t-41.5 -43t-51 -18q-30 0 -44.5 16t-9.5 40q6 24 23 37.5t37 13.5q19 0 30 -13.5t6 -33.5zM586 261q-42 0 -91 -25l-26 -123q-8 -39 12 -65t62 -26q44 0 80 31t47 88q12 56 -11 88t-73 32z" />
    <glyph glyph-name="afii10107" unicode="&#x45a;" horiz-adv-x="816" 
d="M184 0h-85l-11 13l80 387q9 42 -19 42q-20 0 -52 -27l-8 10q29 25 67.5 42.5t67.5 17.5q60 0 45 -70l-32 -156h205l46 221h85l10 -14l-41 -202q57 27 117 27q81 0 124 -40.5t29 -106.5q-14 -69 -79.5 -109t-159.5 -40q-83 0 -126.5 34.5t-31.5 101.5l21 100h-204z
M625 261q-42 0 -89 -25l-26 -123q-8 -39 11.5 -65t60.5 -26q44 0 80.5 31t47.5 88q12 56 -11.5 88t-73.5 32z" />
    <glyph glyph-name="afii10108" unicode="&#x45b;" horiz-adv-x="599" 
d="M589 65l8 -10q-30 -25 -67.5 -42.5t-66.5 -17.5q-61 0 -46 70l49 240q15 62 1 101t-56 39q-32 0 -76 -25.5t-78 -68.5l-73 -351h-85l-11 13l116 566h-58l4 16l61 12l17 84l-56 14l4 18l147 19l11 -14l-25 -121h187l-6 -28h-187l-20 -99l-22 -90l2 -3q44 46 100.5 71.5
t103.5 25.5q67 0 91.5 -46t8.5 -122l-48 -236q-10 -42 18 -42q22 0 52 27z" />
    <glyph glyph-name="afii10109" unicode="&#x45c;" horiz-adv-x="523" 
d="M301 550l167 140l46 -57l-200 -98zM97 415l-8 10q29 25 67.5 42.5t67.5 17.5q60 0 45 -70l-85 -415h-85l-11 13l80 387q9 42 -18 42q-21 0 -53 -27zM455 423l5 26q-42 -9 -90.5 -66.5t-81.5 -111.5q35 -8 60.5 -32t37 -46.5t28 -62t25.5 -57.5q18 -35 42 -35q22 0 53 27
l8 -10q-69 -59 -123 -59q-53 0 -82 65q-7 17 -19.5 62.5t-28 74t-43.5 43.5q3 4 19 30.5t31 49.5t40 54.5t49 54t54.5 38.5t58.5 16q32 0 48 -18t11 -45q-5 -23 -23 -37.5t-38 -14.5q-22 0 -34 15.5t-7 38.5z" />
    <glyph glyph-name="uni045D" unicode="&#x45d;" 
d="M97 415l-8 10q29 25 67.5 42.5t67.5 17.5q60 0 45 -70l-54 -261q-11 -55 4 -87.5t54 -32.5q34 0 76 25t77 71l72 350h86l10 -14l-80 -386q-9 -42 18 -42q23 0 53 27l7 -10q-29 -25 -66.5 -42.5t-67.5 -17.5q-60 0 -45 70l8 25l-2 4q-43 -47 -98.5 -73t-103.5 -26
q-65 0 -90.5 41.5t-11.5 107.5l53 256q9 42 -19 42q-20 0 -52 -27zM373 690l110 -140l-18 -15l-161 98z" />
    <glyph glyph-name="afii10110" unicode="&#x45e;" horiz-adv-x="555" 
d="M470 585l11 53q4 21 20.5 34.5t36.5 13.5t30.5 -13.5t5.5 -35.5q-8 -42 -61 -67t-112 -25t-101 25t-33 68q4 23 19.5 35.5t35.5 12.5t30.5 -13.5t6.5 -34.5l-11 -53q25 -16 58 -16q35 0 64 16zM75 -156l-6 -32q3 -3 9 -3q20 0 78 49t121 125l-94 424q-8 35 -34 35
q-23 0 -55 -27l-8 10q72 60 132 60q27 0 41 -15t22 -51l71 -358q21 26 53 67t89 127.5t65 126.5h-29q-22 0 -33.5 14.5t-7.5 36.5q5 22 23 36.5t40 14.5q25 0 38.5 -19.5t6.5 -53.5q-12 -57 -82.5 -165t-158 -212.5t-180 -183t-141.5 -78.5q-25 0 -45 17t-13 51
q5 25 21.5 38.5t37.5 13.5q22 0 33 -13.5t6 -34.5z" />
    <glyph glyph-name="afii10193" unicode="&#x45f;" 
d="M97 415l-8 10q29 25 67.5 42.5t67.5 17.5q60 0 45 -70l-54 -261q-11 -55 4 -87.5t54 -32.5q34 0 76 25t77 71l72 350h86l10 -14l-80 -386q-9 -42 18 -42q23 0 53 27l7 -10q-29 -25 -66.5 -42.5t-67.5 -17.5q-60 0 -45 70l8 25l-2 4q-43 -47 -104 -76q-17 -19 -22 -39
q-4 -22 7.5 -45.5t8.5 -37.5q-7 -35 -83 -98l-8 10q29 27 36 54q5 23 -6.5 46t-8.5 37q4 22 43 61q-36 -11 -65 -11q-65 0 -90.5 41.5t-11.5 107.5l53 256q9 42 -19 42q-20 0 -52 -27z" />
    <glyph glyph-name="afii10050" unicode="&#x490;" horiz-adv-x="528" 
d="M173 700h400l60 98h25l-31 -127h-295l-130 -631l88 -21l-3 -19h-258l3 19l68 22l129 626l-60 17z" />
    <glyph glyph-name="afii10098" unicode="&#x491;" horiz-adv-x="406" 
d="M185 480h225l48 86h25l-24 -115h-182l-79 -386q-16 -70 -76 -70q-29 0 -60 17.5t-49 42.5l12 10q20 -27 41 -27q27 0 36 42z" />
    <glyph glyph-name="uni04D8" unicode="&#x4d8;" horiz-adv-x="724" 
d="M221 585l-13 17q119 104 274 104q154 0 225.5 -96t37.5 -259q-33 -163 -145 -260t-260 -97q-131 0 -196 74.5t-41 188.5q8 36 18 55l23 19h488q35 148 -10 242t-180 94q-126 0 -221 -82zM342 21q92 0 170 73.5t113 209.5l-417 -21q-25 -122 9 -192t125 -70z" />
    <glyph glyph-name="afii10846" unicode="&#x4d9;" horiz-adv-x="530" 
d="M113 236h323q21 105 -12 158t-116 53t-145 -52l-14 17q84 72 199 72q114 0 163 -67t27 -176q-24 -113 -103.5 -179.5t-182.5 -66.5q-92 0 -138.5 53.5t-29.5 135.5q6 26 12 38zM252 21q55 0 105.5 51.5t72.5 139.5l-252 -12q-17 -85 3 -132t71 -47z" />
    <glyph glyph-name="Wgrave" unicode="&#x1e80;" horiz-adv-x="1157" 
d="M776 0l-98 491l-295 -491h-39l-136 662l-58 19l3 19h232l-4 -19l-67 -19l106 -557l250 421l-29 136l-58 19l3 19h232l-4 -19l-68 -19l106 -557l337 557l-80 19l4 19h178l-4 -19l-67 -19l-405 -662h-39zM709 900l111 -139l-19 -16l-161 98z" />
    <glyph glyph-name="wgrave" unicode="&#x1e81;" horiz-adv-x="860" 
d="M585 0l-58 275q-38 -60 -94 -128.5t-93 -107.5l-37 -39h-33l-87 407q-8 35 -36 35q-21 0 -53 -27l-8 10q72 60 131 60q27 0 42 -14.5t22 -51.5l66 -348q115 134 172 237l-21 99q-8 35 -36 35q-21 0 -54 -27l-7 10q69 60 131 60q28 0 42.5 -14.5t21.5 -51.5l65 -348
q7 9 19.5 23.5t45.5 56.5t59 79.5t50 80.5t30 71h-30q-21 0 -33 14.5t-8 36.5q5 21 22 36t41 15q27 0 39.5 -20.5t4.5 -59.5q-14 -68 -84.5 -169t-134.5 -168l-63 -67h-34zM516 690l110 -140l-18 -15l-160 98z" />
    <glyph glyph-name="Wacute" unicode="&#x1e82;" horiz-adv-x="1157" 
d="M776 0l-98 491l-295 -491h-39l-136 662l-58 19l3 19h232l-4 -19l-67 -19l106 -557l250 421l-29 136l-58 19l3 19h232l-4 -19l-68 -19l106 -557l337 557l-80 19l4 19h178l-4 -19l-67 -19l-405 -662h-39zM662 761l167 139l45 -57l-200 -98z" />
    <glyph glyph-name="wacute" unicode="&#x1e83;" horiz-adv-x="860" 
d="M585 0l-58 275q-38 -60 -94 -128.5t-93 -107.5l-37 -39h-33l-87 407q-8 35 -36 35q-21 0 -53 -27l-8 10q72 60 131 60q27 0 42 -14.5t22 -51.5l66 -348q115 134 172 237l-21 99q-8 35 -36 35q-21 0 -54 -27l-7 10q69 60 131 60q28 0 42.5 -14.5t21.5 -51.5l65 -348
q7 9 19.5 23.5t45.5 56.5t59 79.5t50 80.5t30 71h-30q-21 0 -33 14.5t-8 36.5q5 21 22 36t41 15q27 0 39.5 -20.5t4.5 -59.5q-14 -68 -84.5 -169t-134.5 -168l-63 -67h-34zM470 550l167 140l46 -57l-200 -98z" />
    <glyph glyph-name="Wdieresis" unicode="&#x1e84;" horiz-adv-x="1158" 
d="M779 0l-98 491l-295 -491h-39l-135 662l-59 19l4 19h231l-3 -19l-68 -19l106 -557l250 421l-29 136l-58 19l4 19h231l-4 -19l-67 -19l105 -557l337 557l-80 19l4 19h178l-4 -19l-67 -19l-404 -662h-40zM578 815q5 26 25 43t45 17t38.5 -17t8.5 -43t-25.5 -42.5
t-45.5 -16.5t-38 17t-8 42zM796 815q5 26 25 43t45 17t38.5 -17t8.5 -43q-6 -26 -26 -42.5t-45 -16.5t-38 16.5t-8 42.5z" />
    <glyph glyph-name="wdieresis" unicode="&#x1e85;" horiz-adv-x="860" 
d="M585 0l-58 275q-38 -60 -94 -128.5t-93 -107.5l-37 -39h-33l-87 407q-8 35 -36 35q-21 0 -53 -27l-8 10q72 60 131 60q27 0 42 -14.5t22 -51.5l66 -348q115 134 172 237l-21 99q-8 35 -36 35q-21 0 -54 -27l-7 10q69 60 131 60q28 0 42.5 -14.5t21.5 -51.5l65 -348
q7 9 19.5 23.5t45.5 56.5t59 79.5t50 80.5t30 71h-30q-21 0 -33 14.5t-8 36.5q5 21 22 36t41 15q27 0 39.5 -20.5t4.5 -59.5q-14 -68 -84.5 -169t-134.5 -168l-63 -67h-34zM393 605q5 26 25.5 42.5t45.5 16.5t38 -17t8 -42t-25 -42t-45 -17q-26 0 -39 17t-8 42zM610 605
q4 25 24.5 42t46.5 17q25 0 38.5 -16.5t8.5 -42.5q-5 -25 -25.5 -42t-45.5 -17q-26 0 -39 17t-8 42z" />
    <glyph glyph-name="Ygrave" unicode="&#x1ef2;" horiz-adv-x="697" 
d="M317 663l133 -333l274 333l-75 18l4 19h177l-4 -19l-69 -18l-300 -364l-54 -261l57 -19l-3 -19h-227l4 19l67 22l54 257l-148 365l-57 18l3 19h234l-3 -19zM475 900l110 -139l-18 -16l-161 98z" />
    <glyph glyph-name="ygrave" unicode="&#x1ef3;" horiz-adv-x="555" 
d="M75 -156l-6 -32q3 -3 9 -3q20 0 78 49t121 125l-94 424q-8 35 -34 35q-23 0 -55 -27l-8 10q72 60 132 60q27 0 41 -15t22 -51l71 -358q21 26 53 67t89 127.5t65 126.5h-29q-22 0 -33.5 14.5t-7.5 36.5q5 22 23 36.5t40 14.5q25 0 38.5 -19.5t6.5 -53.5
q-12 -57 -82.5 -165t-158 -212.5t-180 -183t-141.5 -78.5q-25 0 -45 17t-13 51q5 25 21.5 38.5t37.5 13.5q22 0 33 -13.5t6 -34.5zM362 690l111 -140l-18 -15l-160 98z" />
    <glyph glyph-name="figuredash" unicode="&#x2012;" horiz-adv-x="492" 
d="M107 333l6 34h415l-7 -34h-414z" />
    <glyph glyph-name="endash" unicode="&#x2013;" horiz-adv-x="492" 
d="M91 258l7 34h415l-8 -34h-414z" />
    <glyph glyph-name="emdash" unicode="&#x2014;" horiz-adv-x="687" 
d="M91 258l7 34h610l-7 -34h-610z" />
    <glyph glyph-name="quoteleft" unicode="&#x2018;" horiz-adv-x="191" 
d="M273 705l11 -15q-23 -20 -43.5 -46.5t-23.5 -41.5q-1 -5 1 -9q24 0 37 -16t8 -41q-4 -24 -24 -40t-45 -16q-24 0 -37 16t-7 50q14 67 123 159z" />
    <glyph glyph-name="quoteright" unicode="&#x2019;" horiz-adv-x="191" 
d="M162 480l-12 15q23 18 44 45t24 42q1 6 -1 10q-24 0 -37 15.5t-9 40.5q5 25 25 41t44 16t37.5 -16.5t6.5 -49.5q-15 -71 -122 -159z" />
    <glyph glyph-name="quotesinglbase" unicode="&#x201a;" horiz-adv-x="191" 
d="M40 -112l-12 14q23 20 44 47t23 41q1 7 0 10q-24 0 -37.5 16t-8.5 40q5 25 24.5 40.5t44.5 15.5q24 0 37.5 -16.5t6.5 -49.5q-14 -67 -122 -158z" />
    <glyph glyph-name="quotedblleft" unicode="&#x201c;" horiz-adv-x="344" 
d="M425 705l11 -15q-24 -20 -44.5 -46.5t-22.5 -41.5q-1 -6 0 -9q25 0 38 -16t8 -41q-5 -24 -24.5 -40t-44.5 -16q-23 0 -36.5 16.5t-6.5 49.5q13 67 122 159zM273 705l11 -15q-23 -20 -43.5 -46.5t-23.5 -41.5q-1 -5 1 -9q24 0 37 -16t8 -41q-4 -24 -24 -40t-45 -16
q-24 0 -37 16t-7 50q14 67 123 159z" />
    <glyph glyph-name="quotedblright" unicode="&#x201d;" horiz-adv-x="344" 
d="M162 480l-12 15q23 18 44 45t24 42q1 6 -1 10q-24 0 -37 15.5t-9 40.5q5 25 25 41t44 16t37.5 -16.5t6.5 -49.5q-15 -71 -122 -159zM314 480l-11 15q23 18 43.5 45t23.5 42q1 6 -1 10q-24 0 -37 16t-9 40q5 25 25 41t44 16t37.5 -16.5t6.5 -49.5q-15 -71 -122 -159z" />
    <glyph glyph-name="quotedblbase" unicode="&#x201e;" horiz-adv-x="343" 
d="M40 -112l-12 14q23 20 44 47t23 41q1 7 0 10q-24 0 -37.5 16t-8.5 40q5 25 24.5 40.5t44.5 15.5q24 0 37.5 -16.5t6.5 -49.5q-14 -67 -122 -158zM192 -112l-11 14q23 19 43 46t23 42q1 7 0 10q-24 0 -37.5 16t-8.5 40q5 25 24.5 40.5t44.5 15.5q24 0 37.5 -16t6.5 -50
q-15 -70 -122 -158z" />
    <glyph glyph-name="dagger" unicode="&#x2020;" horiz-adv-x="500" 
d="M340 500q8 68 6.5 114t-0.5 50q4 17 17.5 28.5t30.5 11.5t26 -11.5t5 -28.5q-1 -9 -9.5 -26.5t-23 -54t-27.5 -83.5q47 4 83.5 11t55 11.5t27.5 4.5q17 0 26 -11t5 -28q-3 -17 -16.5 -28.5t-30.5 -11.5q-6 0 -50 11t-105 16q-29 -158 -47 -277.5t-25.5 -178.5t-12.5 -84
q-3 -17 -16.5 -28t-30.5 -11t-26 11t-6 28q5 26 22 84.5t49 178t68 277.5q-47 -3 -83.5 -10t-55 -12t-26.5 -5q-17 0 -26 11.5t-6 28.5q4 17 17.5 28t29.5 11q8 0 24.5 -4.5t50.5 -11.5t80 -11z" />
    <glyph glyph-name="daggerdbl" unicode="&#x2021;" horiz-adv-x="500" 
d="M340 500q8 68 6.5 114t-0.5 50q4 17 17.5 28.5t30.5 11.5t26 -11.5t5 -28.5q-1 -9 -9.5 -26.5t-23 -54t-27.5 -83.5q47 4 83.5 11t55 11.5t27.5 4.5q17 0 26 -11t5 -28q-3 -17 -16.5 -28.5t-30.5 -11.5q-6 0 -50 11t-105 16l-47 -230q46 4 82.5 10.5t55 11t26.5 4.5
q17 0 26.5 -11t5.5 -28q-3 -16 -16.5 -27.5t-30.5 -11.5q-7 0 -51 11t-104 16q-14 -84 -20 -147t-8 -94t-4 -44q-3 -17 -16.5 -28t-30.5 -11t-26 11t-6 28q3 13 14 43.5t31 94t42 147.5q-47 -4 -84 -11t-55.5 -11.5t-26.5 -4.5q-17 0 -26 11t-5 28q3 17 16 28t30 11
q8 0 25 -4.5t51 -11t80 -10.5l47 230q-47 -3 -83.5 -10t-55 -12t-26.5 -5q-17 0 -26 11.5t-6 28.5q4 17 17.5 28t29.5 11q8 0 24.5 -4.5t50.5 -11.5t80 -11z" />
    <glyph glyph-name="bullet" unicode="&#x2022;" horiz-adv-x="230" 
d="M93 300q8 36 36.5 60.5t63.5 24.5t54.5 -24.5t12.5 -60.5q-8 -36 -37 -60.5t-65 -24.5q-35 0 -53.5 24.5t-11.5 60.5z" />
    <glyph glyph-name="ellipsis" unicode="&#x2026;" horiz-adv-x="571" 
d="M49 54q4 25 24 41.5t44 16.5q25 0 38 -16.5t8 -41.5t-25 -41.5t-44 -16.5q-25 0 -37.5 16.5t-7.5 41.5zM238 54q5 25 25 41.5t45 16.5q24 0 37.5 -16.5t8.5 -41.5t-25 -41.5t-45 -16.5t-38 16.5t-8 41.5zM429 54q5 25 24.5 41.5t43.5 16.5q25 0 38.5 -16.5t8.5 -41.5
t-25.5 -41.5t-44.5 -16.5q-25 0 -37.5 16.5t-7.5 41.5z" />
    <glyph glyph-name="perthousand" unicode="&#x2030;" horiz-adv-x="1055" 
d="M153 525q17 83 67 132t114 49t93 -49t12 -132t-66.5 -132t-113.5 -49t-93.5 49t-12.5 132zM221 525q-15 -77 -2.5 -116t46.5 -39t63 40t44 115q15 76 3 115.5t-46 39.5t-63.5 -40.5t-44.5 -114.5zM182 0h-43l548 700h42zM429 175q17 83 66.5 132t112.5 49q65 0 94.5 -49
t12.5 -132t-67 -132t-114 -49t-93.5 49t-11.5 132zM496 175q-15 -77 -2.5 -116t45.5 -39q34 0 63.5 40.5t44.5 114.5q15 76 2.5 115.5t-46.5 39.5q-33 0 -62.5 -40.5t-44.5 -114.5zM760 175q17 83 66.5 132t112.5 49q65 0 94.5 -49t12.5 -132t-67 -132t-114 -49t-93.5 49
t-11.5 132zM828 175q-15 -77 -3.5 -116t45.5 -39t63.5 40.5t44.5 114.5q15 76 2.5 115.5t-46.5 39.5t-62.5 -40.5t-43.5 -114.5z" />
    <glyph glyph-name="guilsinglleft" unicode="&#x2039;" horiz-adv-x="252" 
d="M88 263l4 13l189 158l12 -16l-126 -148l65 -150l-18 -15z" />
    <glyph glyph-name="guilsinglright" unicode="&#x203a;" horiz-adv-x="252" 
d="M274 276l-3 -13l-189 -158l-13 15l127 150l-65 148l19 16z" />
    <glyph glyph-name="fraction" unicode="&#x2044;" horiz-adv-x="340" 
d="M38 0h-37l444 700h38z" />
    <glyph glyph-name="Euro" unicode="&#x20ac;" horiz-adv-x="692" 
d="M112 395l7 35h24q49 129 151.5 202.5t233.5 73.5q123 0 194 -56h42l-19 -126h-25q-3 46 -21.5 78t-47.5 47t-55 20.5t-55 5.5q-100 0 -176 -63t-116 -182h331l-6 -35h-335q-5 -16 -10 -43q-6 -26 -9 -49h334l-7 -35h-330q-6 -111 45 -173t161 -62q130 0 223 80l13 -16
q-119 -103 -276 -103q-133 0 -205.5 72.5t-67.5 201.5h-25l8 35h19q2 12 8 46q4 23 12 46h-20z" />
    <glyph glyph-name="uni20B4" unicode="&#x20b4;" horiz-adv-x="535" 
d="M98 270l7 35h428l-8 -35h-277q-61 -49 -73 -111q-13 -60 24 -94t114 -34q96 0 168 58l13 -17q-94 -77 -224 -77q-107 0 -159.5 43.5t-37.5 115.5q14 67 79 116h-54zM124 395l6 34h276q61 49 75 113q12 61 -21 93.5t-109 32.5q-93 0 -160 -56l-14 18q93 74 217 74
q106 0 154.5 -42t33.5 -114q-14 -68 -80 -119h56l-6 -34h-428z" />
    <glyph glyph-name="uni20BD" unicode="&#x20bd;" horiz-adv-x="612" 
d="M65 181l2 14l66 14l19 89h-64l3 14l66 13l71 342l-60 17l3 16h275q114 0 172.5 -54.5t39.5 -147.5t-100 -146.5t-195 -53.5h-109l-19 -89h200l-5 -28h-200l-30 -141l91 -21l-3 -19h-261l4 19l68 22l29 140h-63zM426 671h-95l-71 -346h95q73 0 126 44.5t70 128.5
t-17.5 128.5t-107.5 44.5z" />
    <glyph glyph-name="afii61352" unicode="&#x2116;" horiz-adv-x="1041" 
d="M30 14l68 22l129 626l-60 19l4 19h168l265 -554l109 521l-60 19l3 14h155l-3 -14l-67 -20l-137 -666h-39l-314 646l-126 -613l59 -20l-2 -13h-155zM812 525q16 83 65.5 132t113.5 49t93.5 -49t12.5 -132t-66.5 -132t-113.5 -49t-93.5 49t-11.5 132zM879 525
q-15 -77 -2.5 -116t46.5 -39q33 0 62.5 40.5t44.5 114.5q14 76 2 115.5t-45 39.5q-34 0 -63.5 -40.5t-44.5 -114.5zM761 258l7 34h277l-7 -34h-277z" />
    <glyph glyph-name="trademark" unicode="&#x2122;" horiz-adv-x="810" 
d="M431 684h-84l-65 -312l31 -11l-2 -11h-130l3 12l34 12l65 310h-84l-34 -52h-15l17 68h302l-11 -67h-14zM882 677l-41 -305l30 -11l-3 -11h-128l2 12l35 12l35 261l-182 -285h-24l-65 286l-76 -268l29 -11l-1 -7h-80l1 8l35 11l86 309l-30 10l2 12h84l63 -286l182 286h82
l-2 -12z" />
    <glyph glyph-name="arrowleft" unicode="&#x2190;" horiz-adv-x="712" 
d="M43 268v14l159 157l16 -16l-87 -130h538v-35h-539l88 -132l-16 -16z" />
    <glyph glyph-name="arrowup" unicode="&#x2191;" horiz-adv-x="712" 
d="M349 587h14l157 -159l-16 -16l-130 87v-538h-35v539l-133 -88l-15 16z" />
    <glyph glyph-name="arrowright" unicode="&#x2192;" horiz-adv-x="712" 
d="M669 282v-14l-159 -158l-16 16l88 132h-539v35h538l-87 130l16 16z" />
    <glyph glyph-name="arrowdown" unicode="&#x2193;" horiz-adv-x="712" 
d="M363 -39h-14l-158 159l15 16l133 -88v539h35v-538l130 87l16 -16z" />
    <glyph glyph-name="uni2196" unicode="&#x2196;" horiz-adv-x="712" 
d="M130 492l10 9l224 -1l-1 -23l-153 -30l380 -381l-24 -25l-382 382l-31 -156h-22z" />
    <glyph glyph-name="uni2197" unicode="&#x2197;" horiz-adv-x="712" 
d="M573 500l9 -10l-1 -223h-23l-30 153l-381 -380l-25 24l382 382l-157 31l1 22z" />
    <glyph glyph-name="uni2198" unicode="&#x2198;" horiz-adv-x="712" 
d="M582 58l-9 -9l-225 1v22l156 31l-381 381l25 25l380 -381l31 154h22z" />
    <glyph glyph-name="uni2199" unicode="&#x2199;" horiz-adv-x="712" 
d="M139 48l-9 9v225h23l31 -155l381 380l25 -24l-381 -381l154 -31v-21z" />
    <glyph glyph-name="minus" unicode="&#x2212;" horiz-adv-x="442" 
d="M107 333l6 34h366l-7 -34h-365z" />
    <glyph glyph-name="commaaccent" unicode="&#xf6c3;" horiz-adv-x="191" 
d="M16 -250l-10 12q20 17 37.5 40.5t20.5 36.5q2 6 -1 9q-20 0 -31 13.5t-7 33.5q5 21 21 34.5t38 13.5q19 0 30 -14t5 -42q-13 -61 -103 -137z" />
    <glyph glyph-name="dollaroldstyle" unicode="&#xf724;" horiz-adv-x="445" 
d="M221 -50h-26l9 45q-73 2 -110.5 28t-28.5 70q5 24 20.5 36.5t33.5 12.5q21 0 31 -13.5t6 -35.5l-11 -49q24 -22 65 -23l40 184q-17 6 -26.5 9.5t-24 10t-22.5 11t-18.5 12t-16 14.5t-11.5 16.5t-8 20t-2 23.5t3 28q11 58 57 94t129 39l10 47h26l-10 -47
q66 -2 102.5 -27.5t27.5 -69.5q-4 -24 -19.5 -36.5t-34.5 -12.5q-20 0 -30 14t-5 35l9 51q-22 18 -56 21l-37 -172q37 -13 57 -22t45.5 -27t34 -44.5t1.5 -61.5q-29 -129 -200 -135zM354 108q7 34 -13 53.5t-67 35.5l-38 -176q46 4 78 26t40 61zM201 377q-7 -33 10 -51
t58 -32l35 163q-41 -3 -68.5 -24.5t-34.5 -55.5z" />
    <glyph glyph-name="zerooldstyle" unicode="&#xf730;" horiz-adv-x="615" 
d="M98 240q23 113 108.5 179.5t200.5 66.5q116 0 174 -66.5t34 -179.5t-109 -179.5t-200 -66.5q-116 0 -174 66.5t-34 179.5zM202 239q-22 -105 8.5 -162t100.5 -57t124 57t75 162q22 106 -8 163.5t-100 57.5t-124 -57.5t-76 -163.5z" />
    <glyph glyph-name="oneoldstyle" unicode="&#xf731;" horiz-adv-x="360" 
d="M52 0l4 19l85 21l81 390h-94l4 23l187 34l10 -14l-89 -436l78 -18l-4 -19h-262z" />
    <glyph glyph-name="twooldstyle" unicode="&#xf732;" horiz-adv-x="476" 
d="M41 0l7 40q63 40 100 64.5t85 61t75.5 65.5t50 65t30.5 72q10 44 -10 67t-65 23q-46 0 -83 -29l-15 -75q-5 -24 -23 -39.5t-41 -15.5q-22 0 -34 14.5t-6 43.5q11 55 70.5 90.5t146.5 35.5q83 0 125.5 -31.5t30.5 -91.5q-7 -34 -32.5 -69t-54 -61t-81 -60.5t-85 -53
t-93.5 -52.5h251l49 88h24l-33 -152h-389z" />
    <glyph glyph-name="threeoldstyle" unicode="&#xf733;" horiz-adv-x="528" 
d="M383 25q29 139 -138 139h-36l6 28h33q142 0 169 133q13 63 -10.5 97.5t-73.5 34.5q-47 0 -87 -29l-14 -68q-4 -24 -22 -39t-40 -15q-21 0 -33 14t-6 42q11 57 77 90t145 33q90 0 135.5 -43t30.5 -115q-12 -58 -54.5 -95.5t-105.5 -51.5q73 -18 105 -56.5t18 -106.5
q-23 -112 -143.5 -176.5t-306.5 -70.5l-13 16q165 17 254.5 79.5t109.5 159.5z" />
    <glyph glyph-name="fouroldstyle" unicode="&#xf734;" horiz-adv-x="562" 
d="M396 -225h-96l46 225h-298l4 20q107 128 171.5 236.5t88.5 223.5h99q-25 -119 -107.5 -228t-214.5 -225h263l41 196l99 84l11 -14l-55 -266h72l-5 -27h-73z" />
    <glyph glyph-name="fiveoldstyle" unicode="&#xf735;" horiz-adv-x="494" 
d="M357 30q16 73 -16 112.5t-106 39.5q-67 0 -119 -34l-14 17l94 314q192 0 309 14l-17 -83h-270l-90 -233q66 36 146 36q105 0 152.5 -51t29.5 -138q-23 -116 -139.5 -181.5t-302.5 -72.5l-12 16q311 32 355 244z" />
    <glyph glyph-name="sixoldstyle" unicode="&#xf736;" horiz-adv-x="551" 
d="M223 371q65 54 154 54q98 0 145.5 -57.5t27.5 -155.5q-21 -99 -94.5 -157.5t-172.5 -58.5q-117 0 -161.5 83t-13.5 232q42 201 170.5 308.5t311.5 121.5l12 -17q-300 -53 -379 -353zM211 317q-61 -296 72 -296q57 0 101.5 50t63.5 138q19 89 -9.5 137t-89.5 48
q-42 0 -79 -21t-59 -56z" />
    <glyph glyph-name="sevenoldstyle" unicode="&#xf737;" horiz-adv-x="520" 
d="M234 -225h-98q18 86 60.5 174.5t85 148.5t113.5 155.5t110 154.5h-313l-51 -87h-26l38 159h417l-5 -22q-31 -56 -95.5 -166t-101.5 -176.5t-77 -162t-57 -178.5z" />
    <glyph glyph-name="eightoldstyle" unicode="&#xf738;" horiz-adv-x="559" 
d="M597 571q-14 -69 -57 -108t-106 -65q71 -34 102 -77.5t15 -123.5q-19 -93 -89 -148t-193 -55q-112 0 -158 47.5t-29 128.5q16 76 67 119.5t129 72.5q-58 29 -83 69.5t-10 113.5q17 86 79.5 141t171.5 55q98 0 137.5 -47t23.5 -123zM336 337q-6 2 -16.5 7t-14.5 6
q-55 -31 -87.5 -70t-45.5 -102q-33 -158 109 -158q70 0 118 40t63 114q4 21 4 38t-3 30t-12 25t-18.5 20t-26.5 17.5t-31.5 16t-38.5 16.5zM385 421l20 -9q44 29 69.5 64.5t37.5 89.5q15 73 -8 111t-80 38q-58 0 -99 -38.5t-55 -103.5q-13 -63 13.5 -92t101.5 -60z" />
    <glyph glyph-name="nineoldstyle" unicode="&#xf739;" horiz-adv-x="550" 
d="M423 109q-63 -54 -153 -54q-96 0 -143.5 56.5t-27.5 153.5q21 101 96.5 160.5t176.5 59.5q114 0 156.5 -80t12.5 -226q-79 -380 -485 -408l-13 17q160 22 250 103.5t130 217.5zM436 163q61 296 -67 296q-59 0 -105.5 -52.5t-65.5 -140.5q-18 -88 11 -134t88 -46
q42 0 78.5 21t60.5 56z" />
    <glyph glyph-name="T_h" horiz-adv-x="1146" 
d="M781 671h-263l-131 -633l60 -19l-3 -19h-230l4 19l68 22l129 630h-176l-62 -99h-25l32 128h545l149 29l11 -13l-48 -236l-21 -90l2 -3q42 46 98.5 71.5t103.5 25.5q68 0 92.5 -46t7.5 -122l-48 -236q-10 -42 18 -42q23 0 53 27l8 -10q-30 -25 -68 -42.5t-67 -17.5
q-61 0 -46 70l49 240q15 62 1.5 101t-55.5 39q-33 0 -76.5 -25t-78.5 -69l-72 -351h-85l-11 13z" />
    <glyph glyph-name="T_h.caron" horiz-adv-x="1146" 
d="M781 671h-263l-131 -633l60 -19l-3 -19h-230l4 19l68 22l129 630h-176l-62 -99h-25l32 128h545l149 29l11 -13l-48 -236l-21 -90l2 -3q42 46 98.5 71.5t103.5 25.5q68 0 92.5 -46t7.5 -122l-48 -236q-10 -42 18 -42q23 0 53 27l8 -10q-30 -25 -68 -42.5t-67 -17.5
q-61 0 -46 70l49 240q15 62 1.5 101t-55.5 39q-33 0 -76.5 -25t-78.5 -69l-72 -351h-85l-11 13zM488 745h-13l-106 140l17 15l111 -78l142 78l12 -15z" />
    <glyph glyph-name="T_h.commaaccent" horiz-adv-x="1146" 
d="M781 671h-263l-131 -633l60 -19l-3 -19h-230l4 19l68 22l129 630h-176l-62 -99h-25l32 128h545l149 29l11 -13l-48 -236l-21 -90l2 -3q42 46 98.5 71.5t103.5 25.5q68 0 92.5 -46t7.5 -122l-48 -236q-10 -42 18 -42q23 0 53 27l8 -10q-30 -25 -68 -42.5t-67 -17.5
q-61 0 -46 70l49 240q15 62 1.5 101t-55.5 39q-33 0 -76.5 -25t-78.5 -69l-72 -351h-85l-11 13zM249 -250l-10 12q20 17 37.5 40.5t20.5 36.5q1 5 -1 9q-20 0 -31 13.5t-7 33.5q5 21 21 34.5t37 13.5q20 0 31 -14t5 -42q-12 -58 -103 -137z" />
    <glyph glyph-name="A.smcp" 
d="M412 490l105 -459l42 -15l-2 -16h-184l2 16l48 15l-28 126h-208l-82 -126l57 -15l-2 -16h-133l3 16l49 15l299 459h34zM342 398l-141 -218h189z" />
    <glyph glyph-name="Aacute.smcp" 
d="M412 490l105 -459l42 -15l-2 -16h-184l2 16l48 15l-28 126h-208l-82 -126l57 -15l-2 -16h-133l3 16l49 15l299 459h34zM342 398l-141 -218h189zM340 530l124 107l39 -50l-152 -69z" />
    <glyph glyph-name="Abreve.smcp" 
d="M412 490l105 -459l42 -15l-2 -16h-184l2 16l48 15l-28 126h-208l-82 -126l57 -15l-2 -16h-133l3 16l49 15l299 459h34zM342 398l-141 -218h189zM456 593q3 17 15.5 28t29.5 11q16 0 25 -10.5t5 -27.5q-6 -32 -45.5 -50t-84.5 -18t-77 18t-26 50q4 17 17 27.5t29 10.5
q17 0 25.5 -11t4.5 -28q-1 -18 -0.5 -27.5t8 -14t12 -5.5t11.5 -1q41 0 51 48z" />
    <glyph glyph-name="Acircumflex.smcp" 
d="M412 490l105 -459l42 -15l-2 -16h-184l2 16l48 15l-28 126h-208l-82 -126l57 -15l-2 -16h-133l3 16l49 15l299 459h34zM342 398l-141 -218h189zM418 637h11l77 -107l-13 -12l-83 55l-102 -55l-11 12z" />
    <glyph glyph-name="Agrave.smcp" 
d="M412 490l105 -459l42 -15l-2 -16h-184l2 16l48 15l-28 126h-208l-82 -126l57 -15l-2 -16h-133l3 16l49 15l299 459h34zM342 398l-141 -218h189zM384 637l79 -107l-14 -12l-125 69z" />
    <glyph glyph-name="Adieresis.smcp" 
d="M412 490l105 -459l42 -15l-2 -16h-184l2 16l48 15l-28 126h-208l-82 -126l57 -15l-2 -16h-133l3 16l49 15l299 459h34zM342 398l-141 -218h189zM284 574q4 20 20 33.5t37 13.5q20 0 31 -13.5t7 -33.5q-5 -20 -21 -34t-36 -14q-21 0 -32 14t-6 34zM443 574q4 20 20 33.5
t36 13.5t31 -13.5t7 -33.5q-5 -20 -21 -34t-36 -14t-31 14t-6 34z" />
    <glyph glyph-name="Amacron.smcp" 
d="M412 490l105 -459l42 -15l-2 -16h-184l2 16l48 15l-28 126h-208l-82 -126l57 -15l-2 -16h-133l3 16l49 15l299 459h34zM342 398l-141 -218h189zM315 556l6 30h184l-6 -30h-184z" />
    <glyph glyph-name="Aogonek.smcp" 
d="M526 -117l5 -6q-43 -35 -76 -35q-43 0 -35 44q12 56 85 114h-132l2 16l48 15l-28 126h-208l-82 -126l57 -15l-2 -16h-133l3 16l49 15l299 459h34l105 -459l42 -15l-2 -16h-36q-51 -56 -59 -102q-8 -30 21 -30q20 0 43 15zM342 398l-141 -218h189z" />
    <glyph glyph-name="Aring.smcp" 
d="M412 490l105 -459l42 -15l-2 -16h-184l2 16l48 15l-28 126h-208l-82 -126l57 -15l-2 -16h-133l3 16l49 15l299 459h34zM342 398l-141 -218h189zM351 572q5 26 24.5 41.5t46.5 15.5q28 0 41 -15.5t8 -41.5q-6 -27 -25.5 -42.5t-47.5 -15.5q-27 0 -40 15.5t-7 42.5z
M382 572q-4 -18 2 -28.5t18 -10.5q13 0 23 10.5t14 28.5t-2 28.5t-19 10.5q-12 0 -22 -10.5t-14 -28.5z" />
    <glyph glyph-name="Atilde.smcp" 
d="M412 490l105 -459l42 -15l-2 -16h-184l2 16l48 15l-28 126h-208l-82 -126l57 -15l-2 -16h-133l3 16l49 15l299 459h34zM342 398l-141 -218h189zM291 535l-9 13q79 66 107 66q14 0 36 -16.5t39 -16.5q30 0 69 32l9 -12q-81 -67 -110 -67q-14 0 -36.5 16t-39.5 16
q-30 0 -65 -31z" />
    <glyph glyph-name="AE.smcp" horiz-adv-x="635" 
d="M323 26l7 131h-144l-81 -126l57 -15l-2 -16h-133l3 16l49 15l298 459h293l-14 -94h-22l-17 71h-189l-7 -204h112l25 54h21l-28 -131h-20l-2 54h-110l-10 -217h122l48 70h20l-22 -93h-303l2 14zM341 398l-141 -218h131z" />
    <glyph glyph-name="AEacute.smcp" horiz-adv-x="635" 
d="M323 26l7 131h-144l-81 -126l57 -15l-2 -16h-133l3 16l49 15l298 459h293l-14 -94h-22l-17 71h-189l-7 -204h112l25 54h21l-28 -131h-20l-2 54h-110l-10 -217h122l48 70h20l-22 -93h-303l2 14zM341 398l-141 -218h131zM393 530l123 107l39 -50l-152 -69z" />
    <glyph glyph-name="B.smcp" horiz-adv-x="517" 
d="M140 490h229q79 0 120 -33t29 -90q-9 -44 -43.5 -74t-87.5 -42q57 -11 84.5 -43t17.5 -79q-13 -60 -73.5 -94.5t-147.5 -34.5h-229l2 14l48 12l90 438l-42 12zM180 23h79q51 0 87.5 27.5t47.5 80.5q11 54 -13.5 81.5t-76.5 27.5h-79zM351 467h-79l-42 -205h78
q43 0 73.5 26t41.5 77q10 50 -10 76t-62 26z" />
    <glyph glyph-name="C.smcp" horiz-adv-x="540" 
d="M488 83l10 -14q-87 -74 -200 -74t-165.5 67t-28.5 182q23 115 104 182.5t192 67.5q83 0 130 -35l36 17l6 -10l-15 -101h-21q-4 41 -26.5 65.5t-47 31.5t-52.5 7q-79 0 -132.5 -55.5t-76.5 -166.5q-21 -101 10.5 -160t122.5 -59q89 0 154 55z" />
    <glyph glyph-name="Cacute.smcp" horiz-adv-x="540" 
d="M488 83l10 -14q-87 -74 -200 -74t-165.5 67t-28.5 182q23 115 104 182.5t192 67.5q83 0 130 -35l36 17l6 -10l-15 -101h-21q-4 41 -26.5 65.5t-47 31.5t-52.5 7q-79 0 -132.5 -55.5t-76.5 -166.5q-21 -101 10.5 -160t122.5 -59q89 0 154 55zM347 530l123 107l39 -50
l-152 -69z" />
    <glyph glyph-name="Ccaron.smcp" horiz-adv-x="540" 
d="M488 83l10 -14q-87 -74 -200 -74t-165.5 67t-28.5 182q23 115 104 182.5t192 67.5q83 0 130 -35l36 17l6 -10l-15 -101h-21q-4 41 -26.5 65.5t-47 31.5t-52.5 7q-79 0 -132.5 -55.5t-76.5 -166.5q-21 -101 10.5 -160t122.5 -59q89 0 154 55zM409 518h-12l-77 107l14 12
l82 -55l104 55l8 -12z" />
    <glyph glyph-name="Ccedilla.smcp" horiz-adv-x="540" 
d="M235 -76l54 71q-108 3 -158.5 70t-26.5 179q23 115 104 182.5t192 67.5q83 0 130 -35l36 17l6 -10l-15 -101h-21q-4 41 -26.5 65.5t-47 31.5t-52.5 7q-79 0 -132.5 -55.5t-76.5 -166.5q-21 -101 10.5 -160t122.5 -59q89 0 154 55l10 -14q-83 -71 -191 -74l-20 -27
q26 0 40.5 -8t10.5 -25q-5 -28 -89 -96l-7 8q39 29 44 53q3 13 -9 18.5t-42 5.5z" />
    <glyph glyph-name="Ccircumflex.smcp" horiz-adv-x="540" 
d="M488 83l10 -14q-87 -74 -200 -74t-165.5 67t-28.5 182q23 115 104 182.5t192 67.5q83 0 130 -35l36 17l6 -10l-15 -101h-21q-4 41 -26.5 65.5t-47 31.5t-52.5 7q-79 0 -132.5 -55.5t-76.5 -166.5q-21 -101 10.5 -160t122.5 -59q89 0 154 55zM422 637h12l76 -107l-13 -12
l-82 55l-103 -55l-10 12z" />
    <glyph glyph-name="Cdotaccent.smcp" horiz-adv-x="540" 
d="M488 83l10 -14q-87 -74 -200 -74t-165.5 67t-28.5 182q23 115 104 182.5t192 67.5q83 0 130 -35l36 17l6 -10l-15 -101h-21q-4 41 -26.5 65.5t-47 31.5t-52.5 7q-79 0 -132.5 -55.5t-76.5 -166.5q-21 -101 10.5 -160t122.5 -59q89 0 154 55zM364 585q5 22 22.5 36
t39.5 14t33 -14t7 -36q-5 -22 -22 -36t-39 -14t-33.5 14t-7.5 36z" />
    <glyph glyph-name="D.smcp" horiz-adv-x="564" 
d="M140 490h228q109 0 162 -65.5t30 -179.5q-24 -114 -104 -179.5t-189 -65.5h-228l2 14l48 12l90 438l-42 12zM363 467h-91l-92 -444h91q68 0 119 55.5t73 165.5q23 110 -5 166.5t-95 56.5z" />
    <glyph glyph-name="Dcaron.smcp" horiz-adv-x="564" 
d="M140 490h228q109 0 162 -65.5t30 -179.5q-24 -114 -104 -179.5t-189 -65.5h-228l2 14l48 12l90 438l-42 12zM363 467h-91l-92 -444h91q68 0 119 55.5t73 165.5q23 110 -5 166.5t-95 56.5zM387 518h-11l-78 107l15 12l81 -55l104 55l9 -12z" />
    <glyph glyph-name="Dcroat.smcp" horiz-adv-x="564" 
d="M88 237l2 13l47 9l42 205l-42 12l3 14h228q109 0 162 -65.5t30 -179.5q-24 -114 -104 -179.5t-189 -65.5h-228l2 14l48 12l44 211h-45zM363 467h-91l-43 -208h109l-4 -22h-109l-45 -214h91q68 0 119 55.5t73 165.5q23 110 -5 166.5t-95 56.5z" />
    <glyph glyph-name="Eth.smcp" horiz-adv-x="564" 
d="M88 237l3 13l46 9l42 205l-42 12l3 14h228q109 0 162 -65.5t30 -179.5q-24 -114 -104 -179.5t-189 -65.5h-228l2 14l48 12l44 211h-45zM363 467h-91l-43 -208h109l-4 -22h-109l-45 -214h91q68 0 119 55.5t73 165.5q23 110 -5 166.5t-95 56.5z" />
    <glyph glyph-name="Thorn.smcp" horiz-adv-x="491" 
d="M270 458l-13 -66h72q84 0 128 -38t31 -102t-73 -102t-144 -38h-45l-8 11l2 12h45q49 0 82.5 29t45.5 88q12 58 -9.5 87.5t-69.5 29.5h-62l-70 -337l66 -16l-2 -16h-207l3 17l48 16l88 426l-42 15l4 16h183l-4 -16z" />
    <glyph glyph-name="E.smcp" horiz-adv-x="486" 
d="M180 23h202l47 70h21l-23 -93h-388l2 14l48 12l90 438l-42 12l3 14h382l-15 -94h-22l-18 71h-195l-42 -204h154l26 54h20l-27 -131h-20l-4 54h-154z" />
    <glyph glyph-name="Eacute.smcp" horiz-adv-x="486" 
d="M180 23h202l47 70h21l-23 -93h-388l2 14l48 12l90 438l-42 12l3 14h382l-15 -94h-22l-18 71h-195l-42 -204h154l26 54h20l-27 -131h-20l-4 54h-154zM290 530l123 107l39 -50l-151 -69z" />
    <glyph glyph-name="Ebreve.smcp" horiz-adv-x="486" 
d="M180 23h202l47 70h21l-23 -93h-388l2 14l48 12l90 438l-42 12l3 14h382l-15 -94h-22l-18 71h-195l-42 -204h154l26 54h20l-27 -131h-20l-4 54h-154zM405 593q4 17 16.5 28t29.5 11q16 0 25 -10t6 -28q-7 -32 -46.5 -50t-85.5 -18q-44 0 -75.5 18t-25.5 50q3 17 15.5 27.5
t28.5 10.5q17 0 26 -11t6 -28q-5 -21 0.5 -33t12 -13.5t16.5 -1.5q42 0 51 48z" />
    <glyph glyph-name="Ecaron.smcp" horiz-adv-x="486" 
d="M180 23h202l47 70h21l-23 -93h-388l2 14l48 12l90 438l-42 12l3 14h382l-15 -94h-22l-18 71h-195l-42 -204h154l26 54h20l-27 -131h-20l-4 54h-154zM356 518h-12l-77 107l15 12l80 -55l104 55l9 -12z" />
    <glyph glyph-name="Ecircumflex.smcp" horiz-adv-x="486" 
d="M180 23h202l47 70h21l-23 -93h-388l2 14l48 12l90 438l-42 12l3 14h382l-15 -94h-22l-18 71h-195l-42 -204h154l26 54h20l-27 -131h-20l-4 54h-154zM368 637h12l76 -107l-14 -12l-82 55l-102 -55l-11 12z" />
    <glyph glyph-name="Edieresis.smcp" horiz-adv-x="486" 
d="M180 23h202l47 70h21l-23 -93h-388l2 14l48 12l90 438l-42 12l3 14h382l-15 -94h-22l-18 71h-195l-42 -204h154l26 54h20l-27 -131h-20l-4 54h-154zM235 574q4 20 20 33.5t36 13.5t31.5 -13.5t7.5 -33.5q-5 -20 -21.5 -34t-36.5 -14t-31 14t-6 34zM393 574
q4 20 19.5 33.5t36.5 13.5t32 -13.5t6 -33.5q-4 -20 -20 -34t-37 -14t-31.5 14t-5.5 34z" />
    <glyph glyph-name="Edotaccent.smcp" horiz-adv-x="486" 
d="M180 23h202l47 70h21l-23 -93h-388l2 14l48 12l90 438l-42 12l3 14h382l-15 -94h-22l-18 71h-195l-42 -204h154l26 54h20l-27 -131h-20l-4 54h-154zM313 585q4 22 21.5 36t38.5 14q23 0 34 -14t6 -36t-22 -36t-39 -14q-21 0 -32 14t-7 36z" />
    <glyph glyph-name="Egrave.smcp" horiz-adv-x="486" 
d="M180 23h202l47 70h21l-23 -93h-388l2 14l48 12l90 438l-42 12l3 14h382l-15 -94h-22l-18 71h-195l-42 -204h154l26 54h20l-27 -131h-20l-4 54h-154zM334 637l78 -107l-13 -12l-125 69z" />
    <glyph glyph-name="Emacron.smcp" horiz-adv-x="486" 
d="M180 23h202l47 70h21l-23 -93h-388l2 14l48 12l90 438l-42 12l3 14h382l-15 -94h-22l-18 71h-195l-42 -204h154l26 54h20l-27 -131h-20l-4 54h-154zM265 556l6 30h183l-6 -30h-183z" />
    <glyph glyph-name="Eogonek.smcp" horiz-adv-x="486" 
d="M402 -117l4 -6q-42 -35 -75 -35q-43 0 -35 44q12 55 86 114h-343l2 14l48 12l90 438l-42 12l3 14h382l-15 -94h-22l-18 71h-195l-42 -204h154l26 54h20l-27 -131h-20l-4 54h-154l-45 -217h202l47 70h21l-23 -93h-30q-49 -53 -59 -102q-6 -30 21 -30q21 0 43 15z" />
    <glyph glyph-name="F.smcp" horiz-adv-x="470" 
d="M367 239h-142l-43 -207l63 -16l-2 -16h-204l3 17l48 16l89 431l-42 12l3 14h372l-15 -94h-21l-17 71h-187l-42 -204h142l26 54h20l-27 -132h-20z" />
    <glyph glyph-name="G.smcp" horiz-adv-x="574" 
d="M532 206l-38 -183l-13 -11l-38 19q-63 -36 -145 -36q-113 0 -165.5 67t-28.5 182t105 182.5t192 67.5q82 0 131 -35l35 17l7 -10l-15 -101h-21q-6 59 -43.5 81.5t-83.5 22.5q-164 0 -210 -224q-21 -100 7 -160t110 -60q50 0 90 24l33 158l-43 15l3 15h182l-2 -15z" />
    <glyph glyph-name="Gbreve.smcp" horiz-adv-x="574" 
d="M532 206l-38 -183l-13 -11l-38 19q-63 -36 -145 -36q-113 0 -165.5 67t-28.5 182t105 182.5t192 67.5q82 0 131 -35l35 17l7 -10l-15 -101h-21q-6 59 -43.5 81.5t-83.5 22.5q-164 0 -210 -224q-21 -100 7 -160t110 -60q50 0 90 24l33 158l-43 15l3 15h182l-2 -15z
M459 593q4 17 17 28t30 11q16 0 24.5 -10t4.5 -28q-6 -32 -45.5 -50t-84.5 -18t-77 18t-25 50q3 17 16 27.5t29 10.5q17 0 26 -11t5 -28q-5 -22 0.5 -33.5t12.5 -13t17 -1.5q41 0 50 48z" />
    <glyph glyph-name="Gcircumflex.smcp" horiz-adv-x="574" 
d="M532 206l-38 -183l-13 -11l-38 19q-63 -36 -145 -36q-113 0 -165.5 67t-28.5 182t105 182.5t192 67.5q82 0 131 -35l35 17l7 -10l-15 -101h-21q-6 59 -43.5 81.5t-83.5 22.5q-164 0 -210 -224q-21 -100 7 -160t110 -60q50 0 90 24l33 158l-43 15l3 15h182l-2 -15z
M424 637h12l76 -107l-13 -12l-82 55l-103 -55l-11 12z" />
    <glyph glyph-name="Gcommaaccent.smcp" horiz-adv-x="574" 
d="M532 206l-38 -183l-13 -11l-38 19q-63 -36 -145 -36q-113 0 -165.5 67t-28.5 182t105 182.5t192 67.5q82 0 131 -35l35 17l7 -10l-15 -101h-21q-6 59 -43.5 81.5t-83.5 22.5q-164 0 -210 -224q-21 -100 7 -160t110 -60q50 0 90 24l33 158l-43 15l3 15h182l-2 -15z
M242 -175l-7 9q14 11 27 27.5t15 25.5q1 2 -1 6q-15 0 -23.5 9.5t-5.5 25.5q3 15 15.5 25t27.5 10q36 0 29 -40q-10 -44 -77 -98z" />
    <glyph glyph-name="Gdotaccent.smcp" horiz-adv-x="574" 
d="M532 206l-38 -183l-13 -11l-38 19q-63 -36 -145 -36q-113 0 -165.5 67t-28.5 182t105 182.5t192 67.5q82 0 131 -35l35 17l7 -10l-15 -101h-21q-6 59 -43.5 81.5t-83.5 22.5q-164 0 -210 -224q-21 -100 7 -160t110 -60q50 0 90 24l33 158l-43 15l3 15h182l-2 -15z
M366 585q5 22 22.5 36t38.5 14q23 0 34 -14t6 -36t-21.5 -36t-38.5 -14t-33.5 14t-7.5 36z" />
    <glyph glyph-name="H.smcp" horiz-adv-x="589" 
d="M42 17l48 16l88 426l-42 15l4 16h183l-4 -16l-49 -16l-41 -199h236l41 200l-43 15l4 16h184l-4 -16l-50 -16l-88 -427l43 -15l-2 -16h-184l3 17l49 16l43 204h-236l-43 -206l42 -15l-2 -16h-183z" />
    <glyph glyph-name="Hbar.smcp" horiz-adv-x="577" 
d="M111 349l2 13l47 10l18 87l-42 15l3 16h183l-3 -16l-50 -16l-17 -86h225l18 87l-43 15l4 16h183l-4 -16l-49 -16l-17 -86l43 -10l-2 -13h-46l-66 -318l42 -15l-2 -16h-183l3 17l49 16l42 204h-225l-43 -206l43 -15l-3 -16h-183l3 17l49 16l65 316h-44zM229 259h224l19 90
h-225z" />
    <glyph glyph-name="Hcircumflex.smcp" horiz-adv-x="589" 
d="M42 17l48 16l88 426l-42 15l4 16h183l-4 -16l-49 -16l-41 -199h236l41 200l-43 15l4 16h184l-4 -16l-50 -16l-88 -427l43 -15l-2 -16h-184l3 17l49 16l43 204h-236l-43 -206l42 -15l-2 -16h-183zM419 637h12l76 -107l-14 -12l-82 55l-103 -55l-10 12z" />
    <glyph glyph-name="I.smcp" horiz-adv-x="261" 
d="M270 458l-88 -427l41 -15l-2 -16h-181l2 17l49 16l88 426l-42 15l4 16h181l-4 -16z" />
    <glyph glyph-name="Iacute.smcp" horiz-adv-x="261" 
d="M270 458l-88 -427l41 -15l-2 -16h-181l2 17l49 16l88 426l-42 15l4 16h181l-4 -16zM177 530l124 107l39 -50l-152 -69z" />
    <glyph glyph-name="Ibreve.smcp" horiz-adv-x="260" 
d="M269 458l-88 -427l41 -15l-2 -16h-181l2 17l50 16l88 426l-43 15l4 16h181l-4 -16zM293 593q3 17 15.5 28t29.5 11q16 0 25 -10.5t5 -27.5q-6 -32 -45.5 -50t-84.5 -18t-77 18t-25 50q3 17 16 27.5t29 10.5q17 0 25.5 -11t5.5 -28q-5 -22 0.5 -33.5t12.5 -13t17 -1.5
q41 0 51 48z" />
    <glyph glyph-name="Icircumflex.smcp" horiz-adv-x="260" 
d="M269 458l-88 -427l42 -15l-3 -16h-181l3 17l49 16l88 426l-43 15l4 16h181l-3 -16zM255 637h11l76 -107l-13 -12l-81 55l-104 -55l-10 12z" />
    <glyph glyph-name="Idieresis.smcp" horiz-adv-x="261" 
d="M269 458l-88 -427l42 -15l-3 -16h-180l2 17l49 16l88 426l-42 15l4 16h180l-3 -16zM133 574q4 20 20 33.5t37 13.5q20 0 31 -13.5t7 -33.5q-5 -20 -21 -34t-36 -14q-21 0 -31.5 13.5t-6.5 34.5zM269 574q4 20 19.5 33.5t36.5 13.5q20 0 31.5 -13.5t7.5 -33.5t-20.5 -34
t-36.5 -14q-21 0 -32 13.5t-6 34.5z" />
    <glyph glyph-name="Idotaccent.smcp" horiz-adv-x="261" 
d="M270 458l-88 -427l41 -15l-2 -16h-181l2 17l49 16l88 426l-42 15l4 16h181l-4 -16zM200 585q5 22 22 36t39 14t33.5 -14t6.5 -36t-22 -36t-39 -14t-33.5 14t-6.5 36z" />
    <glyph glyph-name="Igrave.smcp" horiz-adv-x="260" 
d="M269 458l-88 -427l42 -15l-3 -16h-181l3 17l48 16l88 426l-42 15l4 16h181l-3 -16zM221 637l79 -107l-13 -12l-126 69z" />
    <glyph glyph-name="Imacron.smcp" horiz-adv-x="261" 
d="M269 458l-88 -427l42 -15l-3 -16h-181l3 17l49 16l88 426l-43 15l4 16h181l-3 -16zM152 556l7 30h183l-6 -30h-184z" />
    <glyph glyph-name="Iogonek.smcp" horiz-adv-x="261" 
d="M190 -117l5 -6q-43 -35 -76 -35q-43 0 -35 44q11 54 85 114h-129l2 17l49 16l88 426l-42 15l4 16h181l-4 -16l-48 -16l-88 -427l41 -15l-2 -16h-36q-49 -53 -59 -102q-6 -30 20 -30q22 0 44 15z" />
    <glyph glyph-name="Itilde.smcp" horiz-adv-x="261" 
d="M270 458l-88 -427l41 -15l-2 -16h-182l3 17l49 16l88 426l-42 15l3 16h182l-4 -16zM129 535l-10 13q80 66 107 66q15 0 37 -16.5t38 -16.5q32 0 69 32l10 -12q-83 -67 -110 -67q-14 0 -37 16t-40 16q-29 0 -64 -31z" />
    <glyph glyph-name="IJ.smcp" horiz-adv-x="477" 
d="M270 458l-88 -427l41 -15l-2 -16h-181l2 17l49 16l88 426l-42 15l4 16h181l-4 -16zM302 8l93 451l-42 15l3 16h181l-3 -16l-50 -16l-93 -450q-21 -105 -159 -170l-11 13q61 61 81 157z" />
    <glyph glyph-name="J.smcp" horiz-adv-x="261" 
d="M87 8l93 451l-43 15l4 16h180l-3 -16l-49 -16l-92 -450q-23 -106 -161 -170l-10 13q61 59 81 157z" />
    <glyph glyph-name="Jcircumflex.smcp" horiz-adv-x="260" 
d="M86 8l93 451l-42 15l3 16h181l-4 -16l-48 -16l-93 -450q-21 -105 -160 -170l-10 13q60 58 80 157zM255 637h11l76 -107l-13 -12l-81 55l-104 -55l-10 12z" />
    <glyph glyph-name="K.smcp" horiz-adv-x="540" 
d="M268 458l-47 -225l267 226l-57 15l4 16h141l-3 -16l-53 -15l-170 -146l121 -284l41 -13l-2 -16h-128l-108 251l-59 -50l-35 -170l42 -15l-2 -16h-183l2 17l49 16l88 426l-42 15l4 16h183l-4 -16z" />
    <glyph glyph-name="Kcommaaccent.smcp" horiz-adv-x="540" 
d="M268 458l-47 -225l267 226l-57 15l4 16h141l-3 -16l-53 -15l-170 -146l121 -284l41 -13l-2 -16h-128l-108 251l-59 -50l-35 -170l42 -15l-2 -16h-183l2 17l49 16l88 426l-42 15l4 16h183l-4 -16zM213 -175l-7 9q14 11 27 27.5t15 25.5q1 2 -1 6q-15 0 -23.5 9.5
t-5.5 25.5q4 15 16 25t28 10t24 -10t4 -30q-8 -40 -77 -98z" />
    <glyph glyph-name="L.smcp" horiz-adv-x="466" 
d="M180 23h180l48 70h20l-23 -93h-366l2 14l48 12l89 433l-42 15l4 16h183l-4 -16l-49 -16z" />
    <glyph glyph-name="Lacute.smcp" horiz-adv-x="466" 
d="M180 23h180l48 70h20l-23 -93h-366l2 14l48 12l89 433l-42 15l4 16h183l-4 -16l-49 -16zM178 530l123 107l39 -50l-152 -69z" />
    <glyph glyph-name="Lcaron.smcp" horiz-adv-x="466" 
d="M180 23h180l47 70h21l-23 -93h-366l2 14l48 12l89 433l-42 15l4 16h183l-4 -16l-49 -16zM242 515h-11l-77 107l14 12l82 -55l103 55l9 -12z" />
    <glyph glyph-name="Lcommaaccent.smcp" horiz-adv-x="466" 
d="M180 23h180l48 70h20l-23 -93h-366l2 14l48 12l89 433l-42 15l4 16h183l-4 -16l-49 -16zM176 -175l-6 9q37 31 41 53v6q-17 0 -25 9.5t-5 25.5q3 15 15.5 25t28.5 10q15 0 23 -10t4 -30q-8 -43 -76 -98z" />
    <glyph glyph-name="Ldot.smcp" horiz-adv-x="466" 
d="M180 23h180l48 70h20l-23 -93h-366l2 14l48 12l89 433l-42 15l4 16h183l-4 -16l-49 -16zM345 245q4 19 19.5 32t34.5 13q20 0 30.5 -12.5t6.5 -32.5t-19.5 -33t-35.5 -13q-19 0 -29.5 13.5t-6.5 32.5z" />
    <glyph glyph-name="Lslash.smcp" horiz-adv-x="466" 
d="M73 129l-13 16l65 53l54 261l-42 15l3 16h183l-3 -16l-50 -16l-40 -195l100 83l14 -16l-121 -99l-43 -208h180l47 70h22l-24 -93h-366l2 14l48 12l30 140z" />
    <glyph glyph-name="M.smcp" horiz-adv-x="709" 
d="M693 458l-56 -427l42 -15l-3 -16h-183l3 17l50 16l49 365l-256 -398h-35l-92 399l-106 -374l42 -14l-2 -11h-114l2 11l49 16l121 432l-43 15l4 16h120l88 -398l256 398h116l-4 -16z" />
    <glyph glyph-name="N.smcp" horiz-adv-x="544" 
d="M41 11l48 16l89 432l-42 15l4 16h138l184 -362l70 336l-43 15l3 11h114l-2 -11l-49 -15l-96 -464h-33l-227 443l-86 -418l42 -14l-2 -11h-114z" />
    <glyph glyph-name="Nacute.smcp" horiz-adv-x="544" 
d="M41 11l48 16l89 432l-42 15l4 16h138l184 -362l70 336l-43 15l3 11h114l-2 -11l-49 -15l-96 -464h-33l-227 443l-86 -418l42 -14l-2 -11h-114zM319 530l123 107l39 -50l-152 -69z" />
    <glyph glyph-name="Ncaron.smcp" horiz-adv-x="544" 
d="M41 11l48 16l89 432l-42 15l4 16h138l184 -362l70 336l-43 15l3 11h114l-2 -11l-49 -15l-96 -464h-33l-227 443l-86 -418l42 -14l-2 -11h-114zM384 518h-11l-79 107l16 12l81 -55l104 55l9 -12z" />
    <glyph glyph-name="Ncommaaccent.smcp" horiz-adv-x="544" 
d="M41 11l48 16l89 432l-42 15l4 16h138l184 -362l70 336l-43 15l3 11h114l-2 -11l-49 -15l-96 -464h-33l-227 443l-86 -418l42 -14l-2 -11h-114zM215 -175l-7 9q37 31 41 53v6q-16 0 -24 9.5t-5 25.5q3 15 15 25t28 10t24 -10t4 -30q-8 -41 -76 -98z" />
    <glyph glyph-name="Ntilde.smcp" horiz-adv-x="544" 
d="M41 11l48 16l89 432l-42 15l4 16h138l184 -362l70 336l-43 15l3 11h114l-2 -11l-49 -15l-96 -464h-33l-227 443l-86 -418l42 -14l-2 -11h-114zM269 535l-9 13q80 66 107 66q15 0 37 -16.5t39 -16.5q30 0 69 32l10 -12q-83 -67 -111 -67q-14 0 -36.5 16t-39.5 16
q-29 0 -66 -31z" />
    <glyph glyph-name="Eng.smcp" horiz-adv-x="544" 
d="M41 11l48 16l89 432l-42 15l4 16h138l171 -424l83 398l-43 15l3 11h114l-2 -11l-49 -15l-95 -456q-21 -104 -160 -170l-11 13q60 58 80 157l3 13l-173 422l-86 -418l42 -14l-2 -11h-114z" />
    <glyph glyph-name="O.smcp" horiz-adv-x="587" 
d="M104 245q24 114 104 181.5t187 67.5t159.5 -67.5t28.5 -181.5q-24 -115 -104 -182.5t-187 -67.5t-159.5 68t-28.5 182zM200 244q-23 -112 4 -170t92 -58q66 0 116.5 58t73.5 170q23 113 -3.5 171.5t-91.5 58.5t-116.5 -59t-74.5 -171z" />
    <glyph glyph-name="Oacute.smcp" horiz-adv-x="587" 
d="M104 245q24 114 104 181.5t187 67.5t159.5 -67.5t28.5 -181.5q-24 -115 -104 -182.5t-187 -67.5t-159.5 68t-28.5 182zM200 244q-23 -112 4 -170t92 -58q66 0 116.5 58t73.5 170q23 113 -3.5 171.5t-91.5 58.5t-116.5 -59t-74.5 -171zM340 530l123 107l39 -50l-151 -69z
" />
    <glyph glyph-name="Obreve.smcp" horiz-adv-x="587" 
d="M104 245q24 114 104 181.5t187 67.5t159.5 -67.5t28.5 -181.5q-24 -115 -104 -182.5t-187 -67.5t-159.5 68t-28.5 182zM200 244q-23 -112 4 -170t92 -58q66 0 116.5 58t73.5 170q23 113 -3.5 171.5t-91.5 58.5t-116.5 -59t-74.5 -171zM455 593q4 17 16.5 28t29.5 11
t25.5 -10t5.5 -28q-7 -32 -46.5 -50t-84.5 -18q-44 0 -76 18t-26 50q3 17 16.5 27.5t29.5 10.5t25 -11t5 -28q-5 -22 1 -33.5t12.5 -13t17.5 -1.5q40 0 49 48z" />
    <glyph glyph-name="Ocircumflex.smcp" horiz-adv-x="587" 
d="M104 245q24 114 104 181.5t187 67.5t159.5 -67.5t28.5 -181.5q-24 -115 -104 -182.5t-187 -67.5t-159.5 68t-28.5 182zM200 244q-23 -112 4 -170t92 -58q66 0 116.5 58t73.5 170q23 113 -3.5 171.5t-91.5 58.5t-116.5 -59t-74.5 -171zM418 637h12l76 -107l-13 -12l-83 55
l-102 -55l-11 12z" />
    </font>
</defs>
</svg>
